<?xml version="1.0" standalone="no"?>
<!DOCTYPE svg PUBLIC "-//W3C//DTD SVG 20010904//EN"
 "http://www.w3.org/TR/2001/REC-SVG-20010904/DTD/svg10.dtd">
<svg version="1.0" xmlns="http://www.w3.org/2000/svg"
 width="100.000000pt" height="100.000000pt" viewBox="0 0 100.000000 100.000000"
 preserveAspectRatio="xMidYMid meet">
<metadata>
Created by potrace 1.14, written by Peter Selinger 2001-2017
</metadata>
<g transform="translate(0.000000,100.000000) scale(0.100000,-0.100000)"
fill="#000000" stroke="none">
<path d="M328 889 c-17 -9 -18 -38 -18 -374 0 -317 2 -366 16 -379 21 -21 47
-20 67 2 13 14 17 39 17 104 0 71 3 88 19 102 11 10 24 16 29 15 5 -2 51 -56
102 -119 96 -119 107 -130 127 -130 18 0 43 29 43 52 0 12 -45 76 -100 144
l-100 123 52 48 c159 145 153 139 140 167 -22 48 -51 35 -184 -83 l-123 -110
-3 207 c-2 174 -5 209 -19 224 -18 20 -39 22 -65 7z"/>
</g>
</svg>
