<?xml version="1.0" standalone="no"?>
<!DOCTYPE svg PUBLIC "-//W3C//DTD SVG 20010904//EN"
 "http://www.w3.org/TR/2001/REC-SVG-20010904/DTD/svg10.dtd">
<svg version="1.0" xmlns="http://www.w3.org/2000/svg"
 width="158.000000pt" height="158.000000pt" viewBox="0 0 158.000000 158.000000"
 preserveAspectRatio="xMidYMid meet">
<metadata>
Created by potrace 1.14, written by Peter Selinger 2001-2017
</metadata>
<g transform="translate(0.000000,158.000000) scale(0.100000,-0.100000)"
fill="#000000" stroke="none">
<path d="M396 1549 l-26 -31 0 -720 0 -720 29 -29 c39 -38 96 -40 135 -4 31
29 29 12 31 213 l1 164 35 31 c69 65 57 69 155 -54 49 -61 94 -116 99 -123 6
-6 49 -58 95 -116 117 -145 122 -150 167 -150 98 0 132 101 60 180 -12 14 -46
54 -75 90 -59 72 -54 66 -137 170 -33 41 -62 77 -65 80 -19 18 -92 111 -89
113 5 3 176 156 199 177 9 8 47 42 85 75 37 33 76 68 86 78 70 74 -20 194
-107 144 -19 -10 -96 -76 -175 -148 -14 -13 -61 -55 -104 -94 -43 -38 -99 -89
-125 -113 -51 -45 -96 -82 -102 -82 -1 0 -3 183 -2 407 0 225 -4 420 -8 435
-13 36 -49 58 -97 58 -32 0 -44 -6 -65 -31z"/>
</g>
</svg>
