<svg width="32" height="32" viewBox="0 0 32 32" fill="none" xmlns="http://www.w3.org/2000/svg">
<g clip-path="url(#clip0_2_933)">
<path d="M23.4789 29H8.47889C7.64438 28.9998 6.82093 28.8091 6.07136 28.4423C5.32178 28.0755 4.66587 27.5424 4.15367 26.8835C3.64146 26.2247 3.28649 25.4576 3.11582 24.6407C2.94516 23.8239 2.96331 22.9788 3.16889 22.17L6.20889 9.76001C6.26364 9.53813 6.39274 9.3417 6.57468 9.20342C6.75663 9.06514 6.98045 8.99335 7.20889 9.00001H23.9589C24.1795 8.98991 24.3972 9.0531 24.5781 9.17973C24.759 9.30636 24.8929 9.4893 24.9589 9.70001L28.7389 21.86C28.9973 22.6859 29.0568 23.5612 28.9126 24.4145C28.7684 25.2678 28.4244 26.0749 27.9089 26.77C27.4018 27.468 26.7351 28.0346 25.9645 28.4226C25.1938 28.8105 24.3416 29.0085 23.4789 29ZM7.95889 11L5.06889 22.65C4.94019 23.164 4.92988 23.7005 5.03873 24.2191C5.14757 24.7376 5.37274 25.2247 5.69725 25.6436C6.02175 26.0625 6.43713 26.4022 6.91205 26.6372C7.38697 26.8721 7.90904 26.9962 8.43889 27H23.4389C23.9831 27.0009 24.5198 26.8726 25.0048 26.6258C25.4898 26.3789 25.9093 26.0205 26.2289 25.58C26.5577 25.137 26.7771 24.6225 26.8692 24.0786C26.9613 23.5346 26.9235 22.9766 26.7589 22.45L23.2389 11H7.95889Z" fill="#777777"/>
<path d="M19.959 17C19.6938 17 19.4394 16.8946 19.2519 16.7071C19.0643 16.5196 18.959 16.2652 18.959 16V8C18.959 7.20435 18.6429 6.44129 18.0803 5.87868C17.5177 5.31607 16.7546 5 15.959 5C15.1633 5 14.4003 5.31607 13.8377 5.87868C13.2751 6.44129 12.959 7.20435 12.959 8V16C12.959 16.2652 12.8536 16.5196 12.6661 16.7071C12.4786 16.8946 12.2242 17 11.959 17C11.6938 17 11.4394 16.8946 11.2519 16.7071C11.0643 16.5196 10.959 16.2652 10.959 16V8C10.959 6.67392 11.4858 5.40215 12.4235 4.46447C13.3611 3.52678 14.6329 3 15.959 3C17.2851 3 18.5568 3.52678 19.4945 4.46447C20.4322 5.40215 20.959 6.67392 20.959 8V16C20.959 16.2652 20.8536 16.5196 20.6661 16.7071C20.4786 16.8946 20.2242 17 19.959 17Z" fill="#777777"/>
</g>
<defs>
<clipPath id="clip0_2_933">
<rect width="32" height="32" fill="white"/>
</clipPath>
</defs>
</svg>
