<svg width="80" height="80" viewBox="0 0 80 80" fill="none" xmlns="http://www.w3.org/2000/svg">
<g opacity="0.8">
<path d="M20.1351 55.3185C20.545 47.996 23.079 43.091 25.5665 37.818C27.0524 34.6691 28.5803 31.455 30.9373 28.8977C34.4262 25.1059 39.4896 23.1309 44.3527 23.0238C49.2158 22.9166 53.8785 24.5516 57.9125 27.0437C60.6049 28.7067 63.1342 30.8541 64.4292 33.8306C67.2706 40.3473 63.4743 48.2522 59.7897 54.8434C58.3224 57.4659 56.8597 60.0885 55.3924 62.711C53.8692 65.436 52.3227 68.1982 50.194 70.4761C44.744 76.3127 35.7258 77.943 29.2045 74.5333C22.6831 71.1235 19.0311 63.1209 20.1351 55.3185Z" fill="#A9B283"/>
<path d="M19.0684 55.1694L18.9985 55.2346L19.1476 55.4536L19.0684 55.1694Z" fill="#A9B283"/>
<path d="M19.306 56.4969C19.3386 56.4597 19.3898 56.483 19.4224 56.4504L19.0265 55.6492C18.719 55.9613 19.5063 56.2966 19.306 56.4969Z" fill="#A9B283"/>
<path d="M19.2314 56.7159C19.1103 57.0047 19.3293 57.1352 19.4038 57.205C19.2361 57.0979 19.4737 56.6693 19.2314 56.7159Z" fill="#A9B283"/>
<path d="M32.549 76.4478C32.5211 76.4431 32.4838 76.4385 32.4558 76.4385C32.5024 76.4571 32.5304 76.4571 32.549 76.4478Z" fill="#A9B283"/>
<path d="M39.1263 76.0006L39.1682 75.8142C38.6046 76.0844 37.9571 76.0891 37.3096 76.1217C36.9882 76.1077 36.6621 76.0984 36.3361 76.0844H35.8516C35.6932 76.0751 35.5302 76.0704 35.3718 76.0751L35.4603 76.0192C33.8626 75.8794 32.3394 75.6186 30.8674 75.1342C29.3954 74.659 27.9701 73.9836 26.6518 73.0287C26.7031 73.0473 26.7496 73.0147 26.8009 73.0333C26.6425 72.9821 26.4375 72.9588 26.3118 72.833C26.3025 72.7725 26.4003 72.8004 26.4562 72.8237C26.1115 72.1902 24.8445 71.5986 24.7234 71.1142C24.5743 70.9884 24.4252 71.0024 24.4252 71.1468C23.5309 70.2198 22.7669 69.1252 22.0403 67.9932C21.3602 66.838 20.7407 65.6269 20.2376 64.3925C20.2329 64.2574 20.3028 64.2155 20.4146 64.2155C19.2687 62.1985 19.1383 59.7018 19.2966 57.4053C19.1755 57.3122 19.1569 57.6382 19.0311 57.4053C18.8308 58.1646 19.3339 58.7795 19.1383 59.4689L19.0125 59.3897C18.9659 59.8928 19.306 59.4689 19.2035 59.9953C19.1243 60.2049 19.0451 59.958 19.0451 60.0558C19.1988 61.1039 19.2733 62.2312 19.8044 63.1255C19.618 63.4283 20.0652 64.2248 19.9721 64.6673C20.1584 64.8956 20.2236 65.1658 20.4192 65.203C21.5465 68.7292 24.02 71.8409 27.099 74.0209C27.3179 74.0954 27.5275 74.1886 27.7325 74.291C27.9468 74.3795 28.161 74.482 28.3707 74.5938C28.5803 74.7056 28.7899 74.8314 28.9995 74.9571C29.2184 75.0689 29.4374 75.1854 29.661 75.3065C29.8846 75.423 30.1035 75.5627 30.3364 75.6698C30.574 75.7723 30.8115 75.8748 31.0491 75.9773C31.5242 76.1962 32.0413 76.3173 32.5583 76.4058C32.5676 76.4291 32.563 76.4431 32.5443 76.4571C32.889 76.4943 33.3083 76.513 33.7415 76.5642C33.9558 76.5875 34.1747 76.6201 34.389 76.6574C34.6032 76.6806 34.8175 76.7039 35.0178 76.7365L35.7119 76.5735C38.1061 76.9229 40.6122 76.5782 42.9459 75.7909C45.2843 74.9804 47.4364 73.6948 49.3648 72.1343C51.5402 70.313 53.1379 68.1609 54.4841 65.9716C55.8163 63.7637 56.9389 61.5185 57.9497 59.0403C57.9917 59.0683 58.0336 59.045 57.987 59.1754C58.6438 57.7873 59.4869 56.6554 60.0971 55.3464L60.1391 55.3744C60.8331 53.7068 61.7368 52.0671 62.5473 50.3949C63.3625 48.7272 64.0892 47.0084 64.4152 45.2849C65.086 43.2866 65.6124 41.0553 65.5751 38.7542C65.5332 36.4671 64.9183 34.1194 63.6327 32.2794L63.7212 32.2328C62.6684 30.7702 61.4666 29.4799 60.1204 28.3293C58.7742 27.1834 57.293 26.1912 55.6533 25.4506C54.0509 24.5236 52.2016 23.9507 50.3384 23.6153C48.4658 23.2706 46.5979 23.1402 44.7579 23.0004C43.612 22.7489 42.2658 23.0098 41.0221 23.3964C39.7691 23.783 38.6139 24.2861 37.5285 24.4445C36.4385 24.6727 35.3858 25.0686 34.4122 25.5997C33.4434 26.14 32.5537 26.8154 31.7618 27.5887C30.164 29.1352 29.074 31.0869 28.189 33.0853C27.0571 34.7669 26.3071 36.6627 25.5106 38.5073C24.714 40.3566 23.8942 42.1593 22.8881 43.8642C22.711 44.7958 22.2499 45.6575 21.8027 46.5659C21.3509 47.4742 20.8851 48.4291 20.7034 49.4586L20.8431 49.4166C20.2888 50.0688 21.0201 51.1448 20.382 51.4988L20.368 51.415C20.0233 51.7643 20.8944 52.4258 20.5217 52.6075L20.6522 52.6913C20.6382 53.1664 20.4845 52.7239 20.3866 53.0826C20.3866 53.2223 20.6382 53.1664 20.5217 53.4413C20.2329 53.4413 20.2283 53.7347 20.2189 54.0235C20.2189 54.3123 20.2143 54.5965 19.8882 54.5872C19.9069 54.3217 19.6041 54.9831 19.5156 54.3776C19.4364 54.5406 19.4084 55.3604 19.6879 55.2999C19.9767 55.3837 20.2143 55.7098 20.4705 55.2393L20.2655 55.1275C20.4891 54.9785 20.382 55.0111 20.545 54.9645C20.6242 54.3403 20.927 54.2844 21.104 53.8558C21.0993 53.8605 21.09 53.8652 21.0807 53.8558C20.8618 53.5298 21.0574 53.1245 21.1226 52.8916L21.2531 52.8124C21.5232 52.7053 20.8804 52.0485 21.2717 52.2954C21.3509 51.033 21.649 49.617 22.0356 48.2614C21.9331 48.0239 22.3663 47.232 21.9751 47.4323C22.4129 47.1947 22.8368 46.2352 22.9579 45.8625C22.9859 45.8858 23.0138 45.9184 22.9812 45.9696C23.6753 45.4246 22.8881 44.9728 23.6846 44.521C23.3492 44.2648 24.2948 43.3797 24.0246 42.8254C24.1411 42.7788 24.2249 42.7835 24.2808 42.844C24.8025 41.6702 25.5478 40.4404 26.0369 39.4529C26.1254 38.4468 27.1549 37.4546 27.0664 36.5276C27.4484 35.9686 28.1005 35.1069 28.3707 34.2125L28.38 34.3197C28.8411 33.3927 29.484 32.298 29.633 31.5481C30.1827 31.5574 30.3597 31.1522 30.7416 30.896C30.8581 30.5652 31.1422 30.1413 31.4869 29.7128C31.8316 29.2842 32.2183 28.8371 32.5397 28.4271C32.7866 28.4737 33.1219 27.803 33.3595 28.0126C34.2678 26.8713 35.6373 25.9118 37.1652 25.2783C38.6931 24.6401 40.3793 24.342 41.9165 24.328L41.8746 24.3559C42.2379 24.1324 42.6478 23.6898 43.0484 23.4383C43.0903 23.4616 43.0903 23.5128 43.0065 23.5175C43.2906 23.4569 43.5748 23.4989 43.8543 23.5548C44.1338 23.6013 44.4086 23.6526 44.6974 23.6293C44.6927 23.6805 44.6927 23.6805 44.5996 23.7318C45.1399 23.5874 45.6896 23.988 46.3277 23.797L46.3557 23.8808L46.7656 23.8016C46.747 23.9041 46.7144 24.0532 46.5094 24.0019C48.913 24.2581 51.3445 24.7938 53.7062 25.6835C54.8847 26.1307 56.0399 26.6617 57.1532 27.2813C58.2665 27.9008 59.3379 28.5995 60.2928 29.424L60.0878 29.3821C60.3766 29.5404 60.6561 29.7128 60.9403 29.8898C60.903 29.9224 60.8471 29.9131 60.8005 29.8991C61.5924 30.8494 62.6498 31.618 63.2507 32.6754C63.2041 32.694 63.0271 32.5962 63.0644 32.7685C63.4137 33.0666 63.5022 33.4253 63.5814 33.7095C63.6606 33.9983 63.7444 34.2125 64.0798 34.315C64.0705 34.3663 63.9587 34.4361 63.8842 34.3709C64.01 34.6504 64.1357 34.9252 64.2615 35.2047C64.364 35.4935 64.4432 35.7916 64.5317 36.0898C64.6295 36.3832 64.6761 36.6907 64.7227 37.0028C64.7646 37.3102 64.8391 37.6176 64.8391 37.9344C64.9509 39.1874 64.7879 40.4591 64.5456 41.6888C64.6109 42.7649 64.3686 43.8828 64.0006 44.9635C63.6606 46.0535 63.2181 47.1155 62.9805 48.2288L62.8874 48.1776C62.4774 49.575 61.8206 50.9259 61.0847 52.2395C60.344 53.5531 59.5335 54.8387 58.8301 56.1709C58.1827 57.2423 57.8799 58.0388 57.2743 59.1382L57.1439 59.1009C56.543 61.1831 54.6006 62.7668 53.9764 64.9422L53.8972 64.7232C53.9671 65.1611 53.1379 65.8132 53.6037 65.9483L53.2776 66.2045C53.1472 67.0057 52.7094 67.5461 52.2109 68.0818C51.7079 68.6174 51.1535 69.1438 50.711 69.9683L50.7064 69.8053C50.4641 70.2338 50.1148 70.6996 49.7794 70.872C49.8073 70.8207 49.7654 70.8161 49.826 70.7136C49.472 70.8999 49.1692 71.1421 48.8664 71.3937C48.5543 71.6312 48.2562 71.9014 47.9674 72.1856C47.3618 72.7166 46.7563 73.3035 46.0482 73.6855L46.0995 73.4153C45.834 73.7181 45.3635 74.0069 44.8278 74.2351C44.5623 74.3516 44.2968 74.4867 44.0313 74.5938C43.7611 74.6963 43.5049 74.8081 43.2813 74.9245L43.3046 74.8127L42.8761 75.1295L42.7969 74.9478C42.4848 75.0456 42.1773 75.1481 41.8746 75.2553L41.4227 75.423L40.9662 75.5627L40.0486 75.8375C39.7598 75.8841 39.443 75.9447 39.1263 76.0006Z" fill="#A9B283"/>
<path d="M26.4655 72.8191C26.4655 72.8237 26.4702 72.8284 26.4702 72.8331C26.5121 72.847 26.4935 72.8377 26.4655 72.8191Z" fill="#A9B283"/>
<path d="M21.1832 53.6975C21.1646 53.7534 21.1459 53.8046 21.1273 53.8512C21.1646 53.8419 21.1646 53.7487 21.1832 53.6975Z" fill="#A9B283"/>
</g>
<path d="M58.5739 23.8622C57.9498 24.0952 57.5072 24.5097 56.8271 24.5843C56.3846 24.6308 56.0259 24.0393 55.9374 23.6852C55.7045 22.7396 56.0632 21.2304 55.8815 20.159C55.2713 20.4944 54.7729 21.6263 54.4655 22.0269C54.3211 22.2133 53.9345 21.8965 53.8459 21.808C53.0028 20.9789 52.346 17.5039 51.1442 19.8004C49.9238 22.1341 50.4828 25.3063 51.992 27.4537C51.9687 27.1788 52.0945 27.0251 52.4718 27.3186C53.6689 28.2455 54.6984 28.5716 55.9794 27.6214C56.8504 26.9739 57.7355 26.0516 58.355 25.1758C58.6112 24.8172 58.7556 24.6262 58.9093 24.2535C59.3332 23.1915 59.1795 23.634 58.5739 23.8622Z" fill="#D69E9F"/>
<path d="M21.4953 29.2516C20.6661 28.8743 20.545 28.8324 20.1631 29.6196C20.0978 29.7594 20.0466 29.9177 20.0093 30.0854C20.1211 30.5466 20.1258 30.9984 19.9674 31.3711C19.7205 31.9394 18.9706 30.8074 18.9193 30.5932C18.8495 30.295 18.8308 29.955 18.8588 29.6056C18.6538 29.1305 18.2066 28.6973 17.7781 28.8697C17.3682 29.0373 17.2704 29.9177 17.2471 30.2438C17.2191 30.6956 17.3076 31.0729 17.126 31.5015C17.0281 31.7344 16.7114 31.5807 16.581 31.4829C15.4723 30.6491 15.4211 31.6738 15.6028 32.5915C15.9661 34.4175 17.0235 35.5028 18.733 35.8801C19.4131 36.0292 21.2624 35.6333 21.826 35.9966C21.8307 35.9919 21.8353 35.9873 21.84 35.9826C21.3975 35.4749 21.5325 34.6131 22.2313 35.2886C22.2592 35.3165 22.2825 35.3444 22.3104 35.3724C22.8135 34.4035 22.8368 32.9269 22.8601 32.0605C22.8881 30.8028 22.6971 29.7966 21.4953 29.2516Z" fill="#D69E9F"/>
<path d="M40.2815 3.88339C40.0812 3.86476 39.4663 4.67062 39.3359 4.78707C39.0564 5.04327 38.5673 4.41442 38.4741 4.24673C38.1294 3.64117 38.2319 2.89587 37.9291 2.32292C37.3003 1.13044 37.086 2.67228 36.7087 3.22194C36.569 3.42224 36.3267 3.32908 36.1637 3.20331C35.8376 2.95643 35.0411 1.61489 34.8548 1.55899C33.4527 1.11647 33.7461 4.3725 33.7787 5.05258C33.7927 5.4066 33.3595 5.2622 33.2058 5.1504C32.5211 4.64267 31.1236 2.08536 31.1981 4.24207C31.2913 6.9531 33.7601 8.4204 35.9168 9.43587C35.996 9.47314 36.0845 9.53835 36.173 9.61754C36.2895 9.58959 36.4059 9.56164 36.527 9.52904C37.5146 9.23558 38.4415 8.67194 39.1635 7.94062C39.839 7.25587 40.5004 6.26369 40.6541 5.2948C40.7054 4.97339 40.901 3.94395 40.2815 3.88339Z" fill="#D69E9F"/>
<path d="M42.1913 78.8512C42.5407 78.3901 42.3171 76.2753 42.3171 75.7396C42.3171 74.4866 42.2705 73.2382 42.2286 71.9898C42.1261 69.2322 41.9491 66.4746 41.7628 63.717C41.3202 57.2748 40.8777 50.8326 40.3141 44.4044C39.8017 38.5352 39.2008 32.666 38.3157 26.8387C37.8919 24.0578 37.4121 21.2862 36.8578 18.5239C36.5596 17.0286 36.2149 15.552 35.8469 14.0754C35.6886 13.4465 35.6699 11.8488 35.274 11.3597C35.5255 11.4855 35.7771 11.6066 36.0286 11.7324C35.9681 11.9047 35.9028 12.0724 35.8423 12.2448C35.819 12.8969 34.743 11.9187 34.7569 11.4389C34.7756 10.8939 34.7663 10.9358 35.1203 10.5352C35.3252 10.3023 35.7817 10.7914 35.8749 10.9079C36.8578 12.119 36.8904 14.448 37.2444 15.906C38.0083 19.0736 38.5766 22.2923 39.0937 25.5064C40.1371 31.944 40.8172 38.4327 41.3855 44.9261C41.9444 51.2985 42.3823 57.6801 42.8202 64.0617C43.0298 67.1221 43.2301 70.1871 43.3372 73.2522C43.3931 74.808 43.3698 76.3731 43.4863 77.9243C43.5468 78.7301 43.7704 79.182 43.2347 79.8853C42.8621 80.3605 41.9025 79.2286 42.1913 78.8512Z" fill="#333333"/>
<path d="M40.8079 48.8202C43.7704 45.5968 45.6942 41.5862 47.3665 37.5383C48.1537 35.6378 48.8198 33.6953 49.6164 31.7995C50.3663 30.0201 51.4889 28.1102 51.9827 26.2749C52.1085 25.7998 53.1519 26.8106 53.0168 27.309C52.523 29.1443 51.4004 31.0542 50.6505 32.8336C49.7375 35.0043 48.9922 37.2402 48.0466 39.3969C46.3464 43.2771 44.5763 46.9058 41.7115 50.022C41.3901 50.3667 40.4306 49.2302 40.8079 48.8202Z" fill="#333333"/>
<path d="M41.1246 56.171C34.0536 50.7675 28.2076 43.5521 22.194 37.0214C21.7189 36.509 21.84 35.5215 22.5294 36.2668C28.4499 42.695 34.2306 49.8639 41.1852 55.1788C41.6184 55.5048 41.8979 56.7625 41.1246 56.171Z" fill="#333333"/>
<path d="M34.8688 10.1114C35.3905 9.70147 35.9029 9.71544 36.5317 9.52912C37.5192 9.23565 38.4462 8.67202 39.1682 7.9407C39.8436 7.25595 40.5098 6.26377 40.6588 5.29488C40.7101 4.97347 40.9057 3.94403 40.2862 3.88347C40.0859 3.86484 39.471 4.67069 39.3406 4.78715C39.0611 5.04334 38.572 4.4145 38.4788 4.2468C38.1341 3.64125 38.2366 2.89595 37.9338 2.323C37.305 1.13052 37.0907 2.67236 36.7134 3.22202C36.5736 3.42232 36.3314 3.32915 36.1684 3.20338C35.8423 2.9565 35.0458 1.61496 34.8594 1.55907C33.4574 1.11654 33.7508 4.37257 33.7834 5.05266C33.8021 5.40668 33.3642 5.26227 33.2105 5.15048C32.5257 4.64274 31.1283 2.08543 31.2028 4.24215C31.296 6.95317 33.7648 8.42048 35.9215 9.43595C36.2289 9.58035 36.7367 10.158 36.5457 10.5353C36.5224 10.5819 36.4991 10.6238 36.4805 10.6704C36.2289 11.1688 35.2181 10.0881 35.4464 9.63625C35.4697 9.58967 35.493 9.54775 35.5116 9.50117C35.7212 9.86916 35.9308 10.2325 36.1358 10.6005C33.3269 9.27758 30.4808 7.20937 30.1361 3.85086C30.0616 3.10556 29.9591 1.88048 30.9233 1.74073C32.3627 1.54043 32.4698 3.56206 33.2617 4.14898C33.0707 4.18159 32.8797 4.2142 32.6888 4.2468C32.6422 3.24531 32.3953 0.124364 33.9837 0.00325309C35.1809 -0.0852513 35.4883 1.65689 36.215 2.2112C36.0333 2.20655 35.8516 2.19723 35.67 2.19257C36.1963 1.42398 36.4432 -0.481192 37.7661 0.301373C39.089 1.08394 38.6418 3.00308 39.2847 4.13501C38.9959 3.95334 38.7117 3.77633 38.4229 3.59467C39.2101 2.868 39.9368 2.00159 41.0128 2.81676C41.7768 3.39437 41.9398 4.4471 41.8699 5.3368C41.7674 6.67834 41.1526 7.93138 40.2582 8.92356C39.6154 9.63625 38.8654 10.144 37.985 10.5166C37.291 10.8148 36.3547 10.8567 35.7678 11.3132C35.3672 11.6253 34.4542 10.4328 34.8688 10.1114Z" fill="#333333"/>
<path d="M52.4765 27.3137C53.6736 28.2407 54.7031 28.5668 55.984 27.6165C56.8551 26.969 57.7401 26.0467 58.3597 25.171C58.6159 24.8123 58.7603 24.6214 58.914 24.2487C59.3379 23.196 59.1842 23.6385 58.5786 23.8621C57.9544 24.095 57.5119 24.5096 56.8318 24.5841C56.3893 24.6307 56.0306 24.0391 55.9421 23.6851C55.658 22.5252 56.2728 20.5082 55.6766 19.5021C55.8909 19.6931 56.1098 19.884 56.3241 20.075C55.5136 19.926 54.8475 21.533 54.4655 22.0268C54.3211 22.2131 53.9345 21.8964 53.846 21.8078C53.0028 20.9787 52.346 17.5037 51.1442 19.8002C49.7142 22.5392 50.7297 26.4427 52.8631 28.4736C53.3801 28.9627 53.259 29.927 52.5277 29.2282C49.84 26.6663 48.5963 22.7767 49.9424 19.1713C50.3198 18.1559 51.0092 17.2289 52.1318 17.746C53.5618 18.4028 53.2637 20.1496 54.1813 21.0532C53.9764 20.9787 53.7668 20.9042 53.5618 20.8343C54.158 20.0657 55.0943 17.9696 56.3194 19.1481C57.4793 20.2614 56.6688 22.8466 57.0042 24.2161C56.706 23.918 56.4126 23.6152 56.1145 23.3171C57.2976 23.1913 58.355 21.7892 59.5289 22.6603C60.3301 23.2519 60.3161 24.2673 60.0087 25.1244C59.4543 26.6802 57.6842 28.5714 56.2123 29.2841C54.7496 29.9922 53.5804 29.2143 52.4206 28.3152C51.9874 27.9752 51.7079 26.7129 52.4765 27.3137Z" fill="#333333"/>
<path d="M21.6211 36.1411C22.7902 35.475 22.8229 33.2251 22.8555 32.0699C22.8927 30.8029 22.7017 29.7967 21.4999 29.2517C20.6708 28.8744 20.5497 28.8325 20.1677 29.6197C19.9628 30.0483 19.8789 30.6585 19.9861 31.115C19.6367 30.8541 19.2873 30.5979 18.938 30.3371C19.1662 29.8061 18.4489 28.6043 17.7828 28.8698C17.3728 29.0375 17.275 29.9179 17.2517 30.2439C17.2238 30.6958 17.3123 31.0731 17.1306 31.5016C17.0328 31.7345 16.7161 31.5808 16.5856 31.483C15.477 30.6492 15.4258 31.674 15.6074 32.5916C15.9708 34.4176 17.0281 35.5029 18.7377 35.8803C19.4457 36.034 21.4301 35.5961 21.8959 36.0479C21.3835 35.5542 21.5046 34.59 22.2313 35.2933C23.093 36.1271 23.0418 36.8445 21.8726 37.1659C20.2236 37.6177 18.1927 37.096 16.8185 36.1458C15.1975 35.0232 14.4103 32.8897 14.4243 30.9613C14.4382 29.0654 15.5236 29.643 16.6462 30.4861C16.4645 30.4815 16.2828 30.4722 16.1012 30.4675C16.4645 29.6151 15.9335 28.8139 16.5903 27.9941C17.1073 27.3559 17.7129 27.2907 18.3837 27.6913C19.3945 28.2922 20.4705 30.2206 19.9767 31.3665C19.7299 31.9348 18.9799 30.8029 18.9287 30.5886C18.6725 29.5173 19.0637 27.8729 20.2376 27.4817C21.4301 27.0857 22.2965 28.1198 22.8508 29.0328C23.6473 30.3324 24.02 31.5808 23.9315 33.0994C23.8616 34.3524 23.7824 36.6209 22.534 37.3336C22.0543 37.6038 21.1972 36.3833 21.6211 36.1411Z" fill="#333333"/>
<path d="M32.3161 47.805C30.3038 48.7646 28.2309 49.7334 25.9484 49.6543C24.5044 49.603 22.0636 49.1186 21.3183 47.6792C20.4565 46.0163 22.3337 45.625 23.5821 45.6716C24.8119 45.7135 25.9624 46.1187 27.1689 46.3144C28.4266 46.5193 29.81 46.6498 31.0864 46.7662C31.1935 46.715 31.3053 46.6637 31.4124 46.6125C31.9108 46.3703 32.74 47.6 32.3161 47.805Z" fill="#878E6F"/>
<path d="M40.2116 37.7249C40.1324 37.7715 39.9973 37.7528 39.7831 37.6177C37.2071 36.0014 34.7337 34.5247 32.2835 32.6708C31.5382 32.1072 29.456 30.6632 30.4435 29.5452C31.5568 28.2829 34.3144 30.1973 35.2041 30.8774C37.3655 32.5217 38.9353 34.7903 40.2815 37.1147C40.5237 37.5292 40.4212 37.7109 40.2116 37.7249Z" fill="#878E6F"/>
<path d="M42.9273 24.7844C42.0376 25.7021 40.6309 27.4209 39.266 26.4427C38.8375 26.1399 38.5626 25.008 39.2148 25.376C39.2055 25.3713 39.2055 25.3574 39.2008 25.348C39.1822 25.2083 39.1589 25.0686 39.1403 24.9242C39.0844 24.5375 39.294 24.5236 39.5455 24.668C39.9741 24.0158 40.5284 23.4103 41.0221 22.8047C42.1541 20.8856 43.64 18.3562 45.615 18.0721C46.0343 18.0115 46.4489 18.6217 46.5047 18.9711C46.8681 21.1837 44.2688 23.401 42.9273 24.7844Z" fill="#878E6F"/>
<path d="M53.967 40.9249C52.6814 41.5118 51.2886 41.7773 49.8958 41.945C49.1133 42.0382 48.3307 42.1826 47.618 41.7866C47.3013 41.6096 46.91 40.7525 47.0963 40.5802C47.073 40.4451 47.0916 40.3147 47.1662 40.2122C47.4783 39.8116 47.9068 39.7091 48.3214 39.4482C48.9502 39.0523 49.43 38.4794 50.0868 38.1114C51.2048 37.4825 52.4671 37.231 53.7108 37.0074C54.8567 36.7978 56.5756 36.3925 57.1439 37.8179C57.7029 39.22 54.9173 40.487 53.967 40.9249Z" fill="#878E6F"/>
<path d="M32.3161 47.805C30.3038 48.7646 28.2309 49.7334 25.9484 49.6543C24.5044 49.603 22.0636 49.1186 21.3183 47.6792C20.4565 46.0163 22.3337 45.625 23.5821 45.6716C24.8119 45.7135 25.9624 46.1187 27.1689 46.3144C28.4266 46.5193 29.81 46.6498 31.0864 46.7662C31.1935 46.715 31.3053 46.6637 31.4124 46.6125C31.9108 46.3703 32.74 47.6 32.3161 47.805Z" stroke="#333333" stroke-width="1.074" stroke-miterlimit="10"/>
<path d="M40.2116 37.7249C40.1324 37.7715 39.9973 37.7528 39.7831 37.6177C37.2071 36.0014 34.7337 34.5247 32.2835 32.6708C31.5382 32.1072 29.456 30.6632 30.4435 29.5452C31.5568 28.2829 34.3144 30.1973 35.2041 30.8774C37.3655 32.5217 38.9353 34.7903 40.2815 37.1147C40.5237 37.5292 40.4212 37.7109 40.2116 37.7249Z" stroke="#333333" stroke-width="1.074" stroke-miterlimit="10"/>
<path d="M42.9273 24.7844C42.0376 25.7021 40.6309 27.4209 39.266 26.4427C38.8375 26.1399 38.5626 25.008 39.2148 25.376C39.2055 25.3713 39.2055 25.3574 39.2008 25.348C39.1822 25.2083 39.1589 25.0686 39.1403 24.9242C39.0844 24.5375 39.294 24.5236 39.5455 24.668C39.9741 24.0158 40.5284 23.4103 41.0221 22.8047C42.1541 20.8856 43.64 18.3562 45.615 18.0721C46.0343 18.0115 46.4489 18.6217 46.5047 18.9711C46.8681 21.1837 44.2688 23.401 42.9273 24.7844Z" stroke="#333333" stroke-width="1.074" stroke-miterlimit="10"/>
<path d="M53.967 40.9249C52.6814 41.5118 51.2886 41.7773 49.8958 41.945C49.1133 42.0382 48.3307 42.1826 47.618 41.7866C47.3013 41.6096 46.91 40.7525 47.0963 40.5802C47.073 40.4451 47.0916 40.3147 47.1662 40.2122C47.4783 39.8116 47.9068 39.7091 48.3214 39.4482C48.9502 39.0523 49.43 38.4794 50.0868 38.1114C51.2048 37.4825 52.4671 37.231 53.7108 37.0074C54.8567 36.7978 56.5756 36.3925 57.1439 37.8179C57.7029 39.22 54.9173 40.487 53.967 40.9249Z" stroke="#333333" stroke-width="1.074" stroke-miterlimit="10"/>
</svg>
