<svg width="76" height="80" viewBox="0 0 76 80" fill="none" xmlns="http://www.w3.org/2000/svg">
<g opacity="0.8">
<path d="M71.2892 55.9766C70.8248 47.666 67.9466 42.0981 65.1215 36.1143C63.4333 32.5394 61.7015 28.8921 59.0264 25.9896C55.0694 21.6892 49.3178 19.4446 43.7983 19.3237C38.2788 19.2028 32.9867 21.0603 28.4057 23.8902C25.3485 25.7816 22.4799 28.2148 21.0093 31.5913C17.7828 38.9877 22.0929 47.9611 26.2724 55.4445C27.9365 58.4243 29.6005 61.3993 31.2646 64.3792C32.9916 67.4751 34.7524 70.6049 37.1614 73.1929C43.3484 79.8201 53.5843 81.668 60.9856 77.7981C68.3868 73.9282 72.5373 64.8291 71.2892 55.9766Z" fill="#A9B283"/>
<path d="M70.0799 56.146L70.017 56.2331L70.225 56.4072L70.0799 56.146Z" fill="#A9B283"/>
<path d="M70.6362 57.4376C70.6652 57.3941 70.7232 57.4086 70.7571 57.365L70.1379 56.6298C69.867 57.0071 70.8151 57.1812 70.6362 57.4376Z" fill="#A9B283"/>
<path d="M70.6071 57.6746C70.491 57.989 70.7474 58.1051 70.8345 58.1729C70.6361 58.0713 70.878 57.5875 70.6071 57.6746Z" fill="#A9B283"/>
<path d="M56.8544 78.5386C56.8836 78.5289 56.9177 78.5142 56.9421 78.4996C56.8934 78.5045 56.869 78.5191 56.8544 78.5386Z" fill="#A9B283"/>
<path d="M49.6951 79.7187L49.5887 79.9073C50.2997 79.8589 51.035 79.8638 51.7752 79.9605C52.1476 79.9799 52.525 79.9895 52.9023 79.9992C53.0909 79.9992 53.2796 80.0041 53.4634 79.9895C53.6472 79.9702 53.831 79.9412 54.0149 79.9073L53.923 79.9847C54.3874 79.946 54.8517 79.9412 55.3065 79.8541C55.7612 79.7767 56.2062 79.6945 56.6513 79.6026C57.0866 79.4719 57.5171 79.3462 57.9477 79.2204C58.3782 79.0898 58.7845 78.8915 59.1957 78.727C60.8308 78.0014 62.3158 77.0145 63.6897 75.8294C63.6606 75.8826 63.6848 75.9406 63.651 75.9987C63.7429 75.8294 63.8058 75.602 63.9654 75.4908C64.0331 75.4908 63.9847 75.5972 63.9509 75.6552C64.7877 75.4327 65.465 73.9767 65.9632 73.8025C66.0793 73.6139 66.031 73.4494 65.8762 73.4687C66.7904 72.3997 67.5644 71.1613 68.2513 69.8794C68.885 68.5685 69.4075 67.1995 69.6977 65.8111C69.7848 65.695 69.8815 65.6999 69.9783 65.7676C70.1911 63.3005 70.7136 60.8818 70.7281 58.3954C70.5829 58.3083 70.5829 58.6518 70.4281 58.4148C70.3411 58.8066 70.4668 59.1597 70.5201 59.5129C70.5829 59.8611 70.6362 60.2143 70.491 60.5626L70.3556 60.461C70.2395 60.9689 70.7184 60.5916 70.4814 61.114C70.3411 61.3124 70.3121 61.0463 70.2927 61.1431C70.2395 62.246 69.9347 63.3392 70.0073 64.4228C69.6445 64.5921 69.7122 65.5741 69.2865 65.8692C69.3059 66.1739 69.1849 66.4352 69.3397 66.6045C68.6045 68.3943 67.7337 70.1454 66.6163 71.7563C65.5037 73.3671 64.1395 74.8377 62.5142 75.9648C62.3691 76.1583 62.2046 76.3421 62.0208 76.5115C61.8321 76.6663 61.6241 76.8065 61.4112 76.9468C61.1984 77.0823 60.971 77.2129 60.7437 77.3338C60.5018 77.4354 60.2551 77.5321 60.0036 77.6289C59.752 77.7208 59.5053 77.8272 59.2441 77.9046C58.9829 77.9772 58.7217 78.0546 58.4556 78.1271C57.938 78.3061 57.3962 78.4174 56.8786 78.606C56.8593 78.5915 56.8544 78.5673 56.8689 78.548C56.5448 78.7221 56.1143 78.8431 55.6596 78.9447C55.4322 78.9979 55.2 79.0414 54.9727 79.0801C54.7405 79.0995 54.5131 79.1091 54.2954 79.1091L53.5795 79.4187C50.9383 79.3026 48.3309 78.8624 45.8203 78.0207C43.3291 77.1597 40.9684 75.8245 39.048 74.0154C36.8421 71.9933 35.3619 69.5456 33.9252 67.1076C32.503 64.6502 31.0614 62.1541 29.2474 59.716C29.3006 59.6967 29.3055 59.6386 29.4022 59.7644C28.4492 58.3035 27.8591 56.8184 26.9545 55.4446L27.0077 55.4204C25.808 53.766 24.8212 51.9036 23.9263 50.0219C23.0314 48.1353 22.2429 46.2439 21.3915 44.4782C20.6901 42.2192 20.1047 39.7376 20.0951 37.1834C20.0951 34.6438 20.6659 32.0365 21.9865 29.8741L22.0784 29.9467C23.0507 28.1859 24.5697 26.8217 26.1757 25.7091C27.7962 24.5869 29.5377 23.6774 31.2743 22.6906C33.1657 21.8973 35.0571 20.9733 37.0792 20.2961C38.0853 19.9478 39.1254 19.6769 40.1751 19.5076C41.2248 19.3335 42.2939 19.2706 43.3387 19.3625C44.6255 19.6431 46.0912 19.6092 47.5811 19.7398C49.0565 19.8607 50.5416 20.1607 51.5671 20.8863C53.7246 22.2165 55.7128 23.5372 57.5607 25.0851C59.4182 26.6137 61.0823 28.4568 62.5625 30.503C63.5832 32.5831 64.6523 34.6245 65.7068 36.6513C66.7566 38.6734 67.7773 40.7196 68.3287 42.9109C68.914 43.8155 69.2043 44.9088 69.4026 46.0455C69.6058 47.1823 69.7412 48.3482 70.0605 49.4704L70.1814 49.3543C69.9638 50.2541 71.1634 51.0716 70.6265 51.7101L70.5829 51.6279C70.3266 52.1165 71.4972 52.5325 71.1586 52.8614L71.3279 52.9098C71.4392 53.4468 71.1538 52.9969 71.1392 53.4226C71.1779 53.5774 71.4392 53.4468 71.3811 53.7854C71.057 53.8579 71.1344 54.182 71.1925 54.5061C71.2408 54.8303 71.2844 55.1495 70.9167 55.1979C70.8925 54.9077 70.6652 55.6768 70.462 55.0334C70.3991 55.2269 70.5055 56.1073 70.8103 56.0106C71.1441 56.0686 71.4585 56.4072 71.681 55.8413L71.4295 55.7445C71.6568 55.5413 71.5408 55.5946 71.7149 55.5172C71.6907 54.7916 72.0438 54.6609 72.1309 54.1192C72.1261 54.124 72.1164 54.1288 72.1067 54.124C71.7778 53.7951 71.8939 53.2823 71.8987 52.992L72.0196 52.8614C72.2712 52.6486 71.3472 52.1116 71.86 52.2616C71.5214 50.7959 71.1828 49.1125 70.7087 47.5113C70.4717 47.3371 70.3556 46.2826 70.1234 46.7373C70.3991 46.2197 70.0944 45.0055 69.9154 44.575C69.9589 44.5798 70.0025 44.5798 70.017 44.6572C70.196 43.6317 69.1995 43.8349 69.4849 42.8238C69.0253 42.8722 69.0398 41.3581 68.3577 41.1404C68.411 41.005 68.4787 40.9373 68.5657 40.9421C67.9756 39.5634 67.4193 38.0058 66.8968 36.869C66.0793 36.0757 65.9536 34.4503 65.0538 33.8505C64.8264 33.1104 64.4733 31.8817 63.7574 31.0254L63.8686 31.0883C63.2688 30.0193 62.4223 28.7035 61.658 28.2052C61.8901 27.6054 61.4886 27.2184 61.2903 26.6863C60.9372 26.4251 60.5115 25.951 60.0132 25.4673C59.515 24.9835 58.9635 24.4708 58.4121 24.1273C58.4363 23.8032 57.551 23.513 57.7203 23.2034C56.1046 22.3181 54.3728 21.3797 52.5443 20.5331C50.7206 19.6866 48.805 18.9465 46.9378 18.395L46.9958 18.3805C46.4685 18.5014 45.8493 18.84 45.3414 19.0529C45.2979 19.019 45.3076 18.961 45.4091 18.9707C45.0657 18.9658 44.7464 18.8739 44.4175 18.7917C44.0885 18.7046 43.7596 18.6175 43.4161 18.6562C43.421 18.5982 43.421 18.5982 43.5322 18.5401C42.8937 18.6901 42.1826 18.2692 41.4328 18.603L41.3844 18.5159L40.9104 18.6901C40.9104 18.574 40.9104 18.395 41.1764 18.4144C38.1869 18.6127 35.2458 19.5318 32.532 20.8331C31.1727 21.4861 29.8666 22.2311 28.5992 23.0341C27.3318 23.8371 26.0934 24.6933 24.9228 25.6559L25.0244 25.4286C24.7583 25.7285 24.5116 26.0381 24.2649 26.3477C24.231 26.2993 24.2504 26.2413 24.2746 26.1832C23.0168 27.0539 22.209 28.4761 21.406 29.6952C21.3625 29.6613 21.3818 29.4049 21.2222 29.55C21.0625 30.1015 20.7723 30.4401 20.5449 30.7545C20.3273 31.069 20.1773 31.3495 20.395 31.7365C20.3466 31.7704 20.1966 31.7511 20.187 31.6253C20.0757 31.9929 19.9645 32.3654 19.8532 32.7379C19.7661 33.1152 19.6984 33.4974 19.6162 33.8747C19.5242 34.252 19.4855 34.6341 19.4469 35.0211C19.413 35.4033 19.3308 35.7854 19.3356 36.1724C19.2243 37.7107 19.3598 39.2442 19.5388 40.7486C20.066 41.9289 20.3756 43.1963 20.7965 44.454C21.1883 45.7166 21.6721 46.9647 22.3832 48.0482L22.2671 48.0821C23.1184 49.514 23.8489 51.0426 24.5987 52.5857C25.3533 54.124 26.1176 55.6816 26.9883 57.1474C27.6366 58.4099 28.2267 59.1742 28.9281 60.4174L28.8169 60.519C30.4858 62.3331 30.8147 65.1774 32.6142 67.0398L32.353 66.9915C32.8174 67.1704 33.0351 68.3556 33.4172 67.9493L33.5092 68.4088C34.259 68.9458 34.6072 69.623 34.9894 70.3631C35.3667 71.0936 35.7876 71.8869 36.6438 72.5303L36.46 72.5109C36.8905 72.8737 37.3887 73.2849 37.6064 73.6477C37.5484 73.6139 37.5435 73.6622 37.4226 73.5945C37.6451 73.9863 37.9209 74.354 38.245 74.6829C38.5884 74.9925 38.9609 75.2731 39.3479 75.5488C40.1509 76.0519 40.9878 76.4969 41.7859 76.9468L41.486 77.0436C41.7134 77.0968 41.9649 77.2032 42.231 77.3386C42.497 77.4693 42.7873 77.6144 43.0872 77.7643C43.3871 77.9143 43.6822 78.0884 43.9869 78.2142C44.2965 78.34 44.5965 78.4513 44.8819 78.5286L44.7754 78.606L45.3801 78.6786L45.3172 78.8963C45.68 79.0221 46.0477 79.1188 46.4105 79.2156L46.9523 79.351L47.5037 79.4429L48.597 79.6171C48.9598 79.6316 49.3274 79.6703 49.6951 79.7187Z" fill="#A9B283"/>
<path d="M63.9512 75.6553C63.9463 75.6553 63.9414 75.6602 63.9365 75.6602C63.912 75.7042 63.9267 75.6895 63.9512 75.6553Z" fill="#A9B283"/>
<path d="M72.1503 53.916C72.1454 53.9886 72.1358 54.0466 72.1261 54.1095C72.1696 54.0902 72.1454 53.9789 72.1503 53.916Z" fill="#A9B283"/>
</g>
<path d="M28.8368 4.85518C26.8197 4.7923 26.7423 4.76327 26.007 6.39347C24.7686 9.14595 25.0734 12.7498 25.3926 15.6813C25.7458 18.9272 26.9019 22.2214 28.1064 25.2448C29.8914 29.7291 32.968 37.2706 38.2649 38.5041C38.2843 38.2912 38.4294 38.1316 38.6181 38.0494C40.0789 35.3308 39.155 31.9736 38.8261 29.047C38.4971 26.0962 38.0618 23.0341 37.3603 20.151C36.5622 16.8519 35.2706 13.7173 33.9403 10.602C33.413 9.36363 32.9003 8.07689 32.2037 6.92075C31.1733 5.22282 30.9508 4.9229 28.8368 4.85518Z" fill="#D69E9F"/>
<path d="M60.6137 1.66732C58.3063 2.57675 56.7341 6.10805 56.0956 8.25585C55.4812 10.3359 55.2877 12.5273 55.2781 14.6944C55.2684 17.5823 55.6505 20.4509 56.1778 23.2905C56.7051 26.1397 57.2469 30.3821 60.9862 30.3482C61.1023 30.3482 61.199 30.3773 61.2861 30.4208C64.2466 26.3525 65.4172 21.5538 65.6736 16.5617C65.8187 13.8527 65.9784 -0.441783 60.6137 1.66732Z" fill="#D69E9F"/>
<path d="M27.7823 51.207C27.3711 47.0034 20.8261 43.5398 17.4786 41.6193C14.8858 40.1342 8.89227 36.7045 6.12044 38.8572C5.07556 39.1958 4.79983 39.844 5.29324 40.797C5.62219 41.8902 6.18333 42.8432 6.97666 43.6655C7.71194 44.5024 8.58751 45.2522 9.47759 45.9004C11.1175 47.1001 12.9508 48.0627 14.8568 48.769C16.6224 49.4269 18.5187 49.9155 20.3569 50.3218C22.1806 50.7233 25.0588 51.5844 27.0712 51.4634C27.2405 51.2651 27.5114 51.1393 27.7823 51.207Z" fill="#D69E9F"/>
<path d="M39.2324 38.5669C33.563 37.7929 30.3219 29.8451 28.4692 25.1915C27.2695 22.1681 26.1086 18.8787 25.7554 15.628C25.4362 12.6965 25.1314 9.09266 26.3698 6.34019C27.1051 4.70998 27.1824 4.73901 29.1996 4.80189C31.3136 4.86478 31.5361 5.16954 32.5616 6.86746C33.2631 8.0236 33.771 9.31035 34.2983 10.5487C35.6285 13.664 36.9201 16.7986 37.7183 20.0977C38.4197 22.9808 38.8551 26.0429 39.184 28.9937C39.5275 32.0558 40.524 35.5774 38.768 38.3589C39.155 38.4121 39.5468 38.4605 39.9338 38.5137C39.9193 38.4653 39.9 38.4218 39.8854 38.3734C39.6194 37.5994 38.3859 37.9332 38.6519 38.712C38.6664 38.7604 38.6858 38.8039 38.7003 38.8523C38.8793 39.3747 39.5662 39.486 39.8661 39.0071C43.765 32.8346 35.435 -2.39131 27.0035 3.38454C24.7734 4.91315 24.3332 8.17356 24.2703 10.66C24.1736 15.1878 25.0346 19.3963 26.5342 23.6532C27.9226 27.586 29.6882 31.2915 32.0731 34.7163C33.8048 37.1979 35.7543 39.3747 38.8938 39.8004C39.6968 39.9069 40.0451 38.6782 39.2324 38.5669Z" fill="#333333"/>
<path d="M38.6374 39.1814C38.8841 42.3015 40.7175 45.5039 42.2848 48.1451C44.3745 51.6667 46.8368 55.0045 49.1732 58.3665C53.5221 64.6164 58.5723 70.1939 63.9225 75.5828C64.5029 76.1681 65.4075 75.2635 64.827 74.6782C59.7962 69.6183 55.0555 64.4132 50.8905 58.5987C48.8733 55.7833 46.8997 52.9148 44.9889 50.0268C42.9378 46.9357 40.2144 42.9642 39.9145 39.1814C39.8516 38.3687 38.5745 38.3639 38.6374 39.1814Z" fill="#333333"/>
<path d="M51.7274 59.9433C53.2657 58.9371 54.3928 56.6007 55.4135 55.1011C57.0775 52.6533 58.2917 49.9299 59.3511 47.1774C61.4022 41.8514 63.0662 35.7853 63.1049 30.0385C63.1098 29.2162 61.8327 29.2162 61.8279 30.0385C61.7892 35.1952 60.3524 40.6324 58.6303 45.4601C57.6725 48.14 56.5599 50.8006 55.0894 53.2435C54.4799 54.2545 53.7833 55.1978 53.0819 56.1459C52.4869 56.9489 51.9257 58.2937 51.0888 58.8452C50.3971 59.2902 51.0356 60.398 51.7274 59.9433Z" fill="#333333"/>
<path d="M61.3538 30.2949C57.6145 30.3288 57.0679 26.0864 56.5454 23.2372C56.023 20.3976 55.6408 17.5339 55.6457 14.6411C55.6505 12.4788 55.844 10.2875 56.4632 8.20257C57.0969 6.05476 58.6739 2.52347 60.9813 1.61404C66.346 -0.499903 66.1815 13.7994 66.0412 16.5035C65.7752 21.6699 64.5368 26.6282 61.3441 30.7884C60.8459 31.4414 61.9536 32.0751 62.4471 31.4317C66.8297 25.7236 67.6763 18.4433 67.3618 11.4388C67.2167 8.1542 65.8235 -2.42035 60.3331 0.506275C55.0507 3.32648 54.1799 11.0131 54.4025 16.2617C54.5573 19.8655 54.9975 23.8467 56.1923 27.2619C57.2033 30.145 58.2821 31.5914 61.3538 31.5623C62.1762 31.5623 62.1762 30.2853 61.3538 30.2949Z" fill="#333333"/>
<path d="M46.3143 53.6645C43.6006 55.3528 39.6968 54.1482 36.9056 53.3017C34.424 52.5471 31.4297 52.0682 29.1126 50.9169C28.3773 50.5541 27.7291 51.657 28.4692 52.0198C31.4055 53.4758 35.2561 54.2402 38.4294 55.0625C41.0754 55.7494 44.5003 56.296 46.9577 54.7626C47.6543 54.3321 47.0109 53.2291 46.3143 53.6645Z" fill="#333333"/>
<path d="M29.427 51.1974C29.1996 48.6336 27.671 47.0276 25.7167 45.4409C23.2255 43.4237 20.4633 41.5081 17.6334 39.994C14.9632 38.5622 7.43137 34.5423 4.75145 37.8849C1.68455 41.7065 8.82454 46.9308 11.4706 48.3917C14.0054 49.7946 16.7385 50.5782 19.5297 51.2893C22.1564 51.9617 25.6732 53.0937 28.3918 52.5712C28.8465 52.4842 29.0303 51.8021 28.6724 51.5022C28.5901 51.4296 28.5031 51.3619 28.4208 51.2893C27.7968 50.7669 26.8874 51.6618 27.5162 52.1939C27.5985 52.2665 27.6855 52.3342 27.7678 52.4068C27.8597 52.0488 27.9564 51.6957 28.0483 51.3377C26.0505 51.7199 22.7417 50.7137 20.7245 50.2686C18.8863 49.8623 16.9901 49.3689 15.2244 48.7158C13.3185 48.0096 11.4851 47.0469 9.84523 45.8473C8.95515 45.1942 8.07474 44.4444 7.3443 43.6124C6.55097 42.79 5.98983 41.8371 5.66088 40.7438C5.16747 39.7909 5.4432 39.1426 6.48808 38.804C9.25991 36.6514 15.2534 40.0859 17.8463 41.571C21.2083 43.4963 27.7823 46.9744 28.1596 51.1974C28.2225 52.0101 29.4996 52.0149 29.427 51.1974Z" fill="#333333"/>
<path d="M58.5336 4.02784C58.7174 4.02784 58.7174 3.74243 58.5336 3.74243C58.3498 3.74243 58.3498 4.02784 58.5336 4.02784Z" fill="#333333"/>
<path d="M61.2474 1.50286C61.199 2.81863 60.4444 4.18278 60.0429 5.4405C59.6704 6.60148 59.4914 7.75761 59.3608 8.96213C59.0657 11.7146 59.0319 14.4961 58.6787 17.2389C58.3159 20.0543 58.7174 22.7971 58.848 25.6028C58.9061 26.846 58.94 28.1569 59.0947 29.3904C59.1818 30.087 59.177 30.8658 59.622 31.427C59.7284 31.5624 59.9316 31.4705 59.98 31.3351C59.9945 31.2915 60.009 31.2528 60.0187 31.2093C60.1058 30.9481 59.6946 30.8368 59.6075 31.098C59.593 31.1416 59.5785 31.1803 59.5688 31.2238C59.6897 31.1948 59.8058 31.1609 59.9268 31.1319C59.2737 30.3047 59.5204 28.4568 59.4817 27.5087C59.4285 26.3187 59.3608 25.1142 59.2834 23.9242C59.1963 22.5987 58.8964 21.312 58.8916 19.9769C58.8916 18.6466 59.1431 17.355 59.2495 16.0344C59.4527 13.5189 59.5446 11.0083 59.8397 8.4929C60.0042 7.09973 60.3428 5.79363 60.8023 4.46819C61.1652 3.43298 61.6344 2.61063 61.6731 1.5077C61.6828 1.23197 61.2571 1.23197 61.2474 1.50286Z" fill="#333333"/>
<path d="M61.615 1.50286C61.6489 3.83449 62.1858 6.14676 62.3164 8.47839C62.4664 11.1244 62.3455 13.8044 62.3455 16.4552C62.3455 18.9562 62.1616 21.4426 62.1616 23.9484C62.1616 25.1916 62.1084 26.3719 62.0068 27.6054C61.9343 28.5391 61.6489 29.4388 61.6102 30.3628C61.7505 30.3628 61.8956 30.3628 62.0359 30.3628C62.0359 30.3241 62.0359 30.2805 62.0359 30.2418C62.0359 29.9661 61.6102 29.9661 61.6102 30.2418C61.6102 30.2805 61.6102 30.3241 61.6102 30.3628C61.6102 30.6385 62.0262 30.6385 62.0359 30.3628C62.0552 29.8258 62.2826 29.3904 62.3648 28.8728C62.447 28.3552 62.4228 27.8231 62.4857 27.3007C62.6115 26.2703 62.5873 25.2593 62.5873 24.2241C62.5873 21.6264 62.7711 19.0481 62.7711 16.4552C62.7711 13.8963 62.8679 11.3179 62.7566 8.75895C62.6502 6.33542 62.0794 3.92156 62.0407 1.5077C62.0359 1.23197 61.6102 1.23197 61.615 1.50286Z" fill="#333333"/>
<path d="M27.9661 4.50684C27.4485 5.61944 27.5936 7.08517 27.5646 8.29452C27.5259 9.79411 27.5501 11.2792 27.792 12.7594C28.3386 16.0876 29.0787 19.4205 30.051 22.6519C30.9169 25.535 32.3101 28.3987 33.7468 31.0399C34.5063 32.438 34.811 33.9037 35.4399 35.3452C35.6769 35.8822 35.9188 36.4772 36.2623 36.9512C36.6879 37.5414 37.2781 37.9477 37.6651 38.5814C37.8054 38.8136 38.1779 38.6008 38.0327 38.3686C37.4571 37.4205 36.6009 36.7964 36.1123 35.7709C35.5028 34.5035 35.2851 33.1249 34.6853 31.8623C33.3743 29.1147 31.7538 26.4493 30.7766 23.5517C29.8382 20.7556 29.1851 17.8339 28.6192 14.9411C28.2902 13.2577 27.9855 11.5839 27.971 9.86183C27.9564 8.39127 27.7097 6.06448 28.3338 4.72452C28.4499 4.47782 28.0822 4.26013 27.9661 4.50684Z" fill="#333333"/>
<path d="M28.4595 4.04723C28.4063 4.06658 28.3531 4.08593 28.2999 4.10528C28.2128 4.1343 28.1403 4.2117 28.1451 4.30845C28.208 5.67259 28.8465 6.93515 29.2964 8.20255C29.8334 9.72149 30.3703 11.2308 30.9508 12.7303C31.4829 14.109 31.8989 15.4828 32.2327 16.9195C32.5955 18.4578 33.2776 19.8365 33.8049 21.3216C34.7917 24.1176 35.6721 26.9088 36.3784 29.787C36.7315 31.2285 37.0653 32.6652 37.4136 34.1068C37.7038 35.2968 37.5635 36.6513 38.0473 37.7784C38.1295 37.9719 38.4633 37.8751 38.4439 37.672C38.4391 37.6333 38.4391 37.5897 38.4342 37.551C38.4101 37.2801 37.9844 37.2753 38.0086 37.551C38.0134 37.5897 38.0134 37.6333 38.0182 37.672C38.1488 37.6381 38.2843 37.5994 38.4149 37.5655C37.9312 36.4336 38.0714 34.9775 37.7667 33.773C37.4377 32.4766 37.1523 31.1802 36.8379 29.8837C36.1413 27.0103 35.2658 24.2337 34.2983 21.4473C33.8339 20.1122 33.1712 18.8303 32.8084 17.4662C32.431 16.0682 32.136 14.6895 31.6329 13.3253C31.3475 12.5514 28.2322 4.57934 28.5805 4.45357C28.8272 4.36166 28.7159 3.95048 28.4595 4.04723Z" fill="#333333"/>
<path d="M5.08525 38.5814C6.26558 40.5308 7.6781 42.0401 9.49696 43.4236C11.103 44.6426 12.946 45.8955 14.7794 46.742C16.9707 47.7531 19.1621 48.6576 21.4356 49.451C23.5738 50.1959 25.6732 51.3763 27.971 51.502C28.2467 51.5165 28.2419 51.0909 27.971 51.0763C25.8038 50.9602 23.7769 49.8622 21.7694 49.1269C20.6084 48.7012 19.4668 48.4013 18.3397 47.874C17.5174 47.4918 16.724 47.071 15.8823 46.7324C13.9861 45.9681 12.2107 44.7974 10.5273 43.6413C8.44724 42.2191 6.76383 40.526 5.45773 38.3733C5.31261 38.1363 4.94497 38.3492 5.08525 38.5814Z" fill="#333333"/>
<path d="M5.09007 39.3603C5.04654 39.3603 5.00784 39.3651 4.9643 39.3651C4.98365 39.5054 5.003 39.6457 5.02235 39.7811C5.99467 39.4474 7.74096 39.9795 8.69393 40.1826C9.65657 40.3858 10.6144 40.647 11.5335 41.0002C13.7055 41.8322 16.0564 42.8916 17.9672 44.2219C21.5227 46.6986 24.7396 49.6639 27.8162 52.7115C28.0096 52.905 28.3144 52.6051 28.1161 52.4116C24.8363 49.1609 21.3534 45.7456 17.3916 43.3318C15.3792 42.1079 12.975 40.9808 10.7256 40.2649C9.63239 39.9166 8.50527 39.6892 7.37332 39.5103C6.57999 39.3845 5.68507 39.0991 4.90625 39.3651C4.68857 39.4377 4.70792 39.7957 4.9643 39.7811C5.00784 39.7811 5.04654 39.7763 5.09007 39.7763C5.36097 39.7763 5.36097 39.3458 5.09007 39.3603Z" fill="#333333"/>
</svg>
