<svg width="80" height="80" viewBox="0 0 80 80" fill="none" xmlns="http://www.w3.org/2000/svg">
<g opacity="0.8">
<path d="M54.7167 63.9935C58.9821 57.1111 59.794 51.0654 60.8778 44.7188C61.529 40.9273 62.1801 37.0575 61.6691 33.2496C60.9149 27.6118 57.5809 22.617 53.2496 19.4437C48.9141 16.2704 43.6637 14.7992 38.434 14.4983C34.9434 14.3005 31.2961 14.6425 28.2424 16.5094C21.5455 20.6059 19.9794 30.1628 19.1387 38.4587C18.8049 41.7598 18.4711 45.0608 18.1331 48.3619C17.787 51.7907 17.4367 55.269 17.9188 58.6772C19.1552 67.4099 26.2807 74.5931 34.3417 75.6357C42.4027 76.6784 50.7769 71.7454 54.7167 63.9935Z" fill="#A9B283"/>
<path d="M53.6575 63.4536L53.5627 63.4907L53.6287 63.7462L53.6575 63.4536Z" fill="#A9B283"/>
<path d="M53.3814 64.793C53.4309 64.7765 53.468 64.8219 53.5174 64.8013L53.4309 63.8699C53.0064 64.0224 53.6699 64.69 53.3814 64.793Z" fill="#A9B283"/>
<path d="M53.2248 64.9661C52.9569 65.1515 53.097 65.3864 53.13 65.4936C53.027 65.2999 53.4927 65.0526 53.2248 64.9661Z" fill="#A9B283"/>
<path d="M30.6285 73.9296C30.6533 73.9379 30.6904 73.9461 30.7233 73.9461C30.678 73.9255 30.6491 73.9214 30.6285 73.9296Z" fill="#A9B283"/>
<path d="M23.7257 71.0575L23.5362 71.1482C24.1296 71.5067 24.7107 71.9188 25.2506 72.4092C25.539 72.6318 25.8316 72.8543 26.1284 73.0686C26.2767 73.1758 26.4251 73.2788 26.5817 73.3736C26.7424 73.4601 26.9032 73.5426 27.068 73.6126L26.9485 73.625C27.34 73.8516 27.715 74.1072 28.123 74.2926C28.5269 74.4822 28.9308 74.6676 29.3346 74.8407C29.7509 74.9808 30.1671 75.121 30.5833 75.257C30.9996 75.3888 31.4323 75.4589 31.8527 75.5619C33.5588 75.8957 35.2938 75.9369 37.0495 75.7597C36.9959 75.7845 36.9794 75.8463 36.9258 75.8751C37.0948 75.7927 37.272 75.6485 37.4616 75.6485C37.5151 75.6856 37.4162 75.7433 37.3585 75.7721C38.1498 76.0647 39.5015 75.2776 39.9961 75.4177C40.1939 75.3311 40.2475 75.1745 40.1115 75.1045C40.4412 75.0097 40.7709 74.9108 41.1047 74.8119C41.4344 74.7047 41.7558 74.5687 42.0855 74.4451L42.5759 74.2555L43.054 74.0289C43.3713 73.8764 43.6928 73.728 44.006 73.5632C45.2423 72.8708 46.421 72.0713 47.4307 71.1275C47.5625 71.0863 47.6367 71.1399 47.6779 71.2512C48.0612 70.7814 48.4527 70.3239 48.8689 69.8953C49.0626 69.6687 49.2646 69.4461 49.4706 69.2277C49.6767 69.0093 49.891 68.7991 50.0847 68.5683C50.4803 68.115 50.9089 67.6905 51.2798 67.2166L51.8609 66.5242L52.3884 65.7906C52.3225 65.6382 52.1329 65.9143 52.1412 65.6382C51.8527 65.9019 51.7538 66.2563 51.6013 66.5654C51.4529 66.8786 51.3004 67.1877 50.9913 67.3814L50.9419 67.2289C50.5627 67.5669 51.1562 67.5339 50.6781 67.8183C50.4556 67.9007 50.5834 67.6699 50.5092 67.7358C49.8539 68.5848 49.0008 69.2854 48.4527 70.1921C48.0694 70.1261 47.5749 70.9462 47.0721 70.9421C46.9196 71.1976 46.6765 71.3377 46.7053 71.5562C45.1228 72.5741 43.4496 73.4807 41.661 74.1442C39.8766 74.8078 37.9644 75.2199 36.0439 75.2116C35.8213 75.2817 35.5864 75.3353 35.3474 75.3723C35.1084 75.3888 34.8652 75.3888 34.618 75.3765C34.3707 75.3641 34.1193 75.3435 33.8679 75.3105C33.6165 75.257 33.3693 75.1951 33.1137 75.1333C32.8624 75.0674 32.6068 75.0138 32.3555 74.9273C32.1041 74.8407 31.8568 74.7542 31.6013 74.6635C31.0903 74.5151 30.5957 74.305 30.0764 74.1649C30.0682 74.1401 30.0806 74.1236 30.1012 74.1113C29.7426 74.0701 29.3346 73.9258 28.9184 73.7527C28.7082 73.6662 28.498 73.5755 28.2961 73.4766C28.0983 73.3653 27.9128 73.2417 27.7397 73.1222L26.9979 72.9656C24.958 71.4037 23.124 69.5904 21.5951 67.5257C20.0909 65.4486 18.9534 63.0666 18.43 60.5568C17.8036 57.7132 17.985 54.9355 18.1993 52.1949C18.4383 49.442 18.6773 46.6478 18.5908 43.6971C18.6443 43.7095 18.6773 43.6641 18.6856 43.8207C18.7433 42.1269 19.1018 40.6103 19.143 39.0155L19.1966 39.0278C19.1636 37.0414 19.415 35.0056 19.7529 33.0068C20.0909 31.0039 20.5154 29.0587 20.8244 27.1712C21.525 24.9788 22.4441 22.675 23.8576 20.631C25.2753 18.6075 27.1875 16.8477 29.4418 15.8628L29.4748 15.9699C31.2345 15.1086 33.2003 14.8696 35.1084 14.8778C37.0247 14.8861 38.9246 15.1333 40.8574 15.3147C42.8067 15.735 44.8302 16.0565 46.8207 16.6417C47.8181 16.926 48.7948 17.2887 49.7303 17.7379C50.6658 18.183 51.5518 18.727 52.3307 19.3864C53.2003 20.326 54.3913 21.1172 55.4999 22.0528C56.6085 22.9718 57.6223 24.0392 58.0344 25.189C59.0111 27.4515 59.8601 29.611 60.47 31.8817C61.0964 34.136 61.3973 36.5345 61.4385 38.9907C61.0923 41.2203 60.808 43.4416 60.5154 45.6464C60.2227 47.843 59.8972 50.0437 59.1142 52.1001C59.0771 53.1469 58.6979 54.1813 58.2199 55.1993C57.7501 56.2213 57.2019 57.2227 56.8352 58.2943L56.9959 58.2695C56.32 58.863 56.8228 60.1859 56.0398 60.396L56.0521 60.3054C55.5782 60.5526 56.2747 61.5376 55.8213 61.6118L55.9285 61.7478C55.7183 62.2382 55.7431 61.7231 55.4917 62.0528C55.434 62.197 55.7142 62.2382 55.4834 62.4772C55.1867 62.3536 55.0631 62.6544 54.9312 62.947C54.7911 63.2314 54.6427 63.5116 54.3254 63.3427C54.4696 63.0995 53.8597 63.5817 54.0534 62.9594C53.8968 63.0789 53.4888 63.8372 53.7855 63.932C54.0204 64.1669 54.0822 64.612 54.5726 64.2823L54.4284 64.0639C54.721 64.0309 54.6015 64.0062 54.7828 64.0433C55.1661 63.4498 55.5246 63.5446 55.8955 63.1613C55.8873 63.1613 55.879 63.1655 55.8708 63.149C55.7925 62.7039 56.1675 62.3577 56.3365 62.1311L56.5055 62.094C56.8269 62.0651 56.3859 61.1214 56.7115 61.5252C57.2596 60.1694 57.9273 58.6363 58.4465 57.095C58.3559 56.823 58.8463 55.9205 58.4094 56.1512C58.9163 55.8916 59.3532 54.7501 59.4521 54.3132C59.4851 54.3379 59.518 54.3668 59.4892 54.4327C60.2063 53.7156 59.2955 53.32 60.0868 52.673C59.6911 52.4546 60.5483 51.2553 60.128 50.7031C60.2434 50.6248 60.3381 50.6083 60.4082 50.6619C60.7049 49.2318 61.1294 47.6823 61.3519 46.483C61.1418 45.395 61.9495 44.0309 61.5662 43.0501C61.797 42.333 62.2009 41.1543 62.1061 40.0746L62.1597 40.1859C62.2751 38.999 62.3369 37.4824 62.0031 36.654C62.5224 36.3037 62.4152 35.7721 62.5553 35.2363C62.4193 34.8325 62.3451 34.2184 62.2174 33.5508C62.0896 32.8873 61.9372 32.1702 61.6858 31.5891C61.8877 31.3419 61.3396 30.6206 61.6487 30.4682C60.8574 28.8609 59.9961 27.1465 59.0111 25.4568C58.0303 23.7672 56.9135 22.1063 55.7348 20.6227L55.7925 20.6433C55.3062 20.4414 54.6221 20.3713 54.0987 20.2559C54.0822 20.2023 54.1234 20.1611 54.1976 20.2312C53.9256 20.0375 53.7237 19.782 53.5053 19.5347C53.291 19.2833 53.0767 19.0278 52.7799 18.8671C52.817 18.8259 52.817 18.8218 52.9365 18.8424C52.3431 18.6033 52.0093 17.8739 51.2263 17.7214L51.2345 17.6225L50.7564 17.4906C50.8224 17.3958 50.9213 17.2598 51.1232 17.4164C48.6299 15.9081 45.774 14.9973 42.885 14.5234C41.4385 14.2844 39.9796 14.1525 38.5207 14.0865C37.0618 14.0206 35.5988 14.0124 34.1276 14.1236L34.3336 14C33.9586 14.0907 33.5836 14.1978 33.2168 14.3091C33.2168 14.2514 33.2662 14.2184 33.3157 14.1855C32.578 14.1855 31.8403 14.3544 31.1273 14.5852C30.4144 14.8201 29.7385 15.1251 29.0709 15.3847C29.0544 15.3311 29.2151 15.1416 29.0008 15.1663C28.5681 15.5166 28.1436 15.6237 27.7892 15.7515C27.4389 15.8793 27.1628 16.0235 27.1257 16.4521C27.068 16.4562 26.9608 16.3532 27.0227 16.246C26.7259 16.4809 26.4333 16.7117 26.1366 16.9466C25.8564 17.198 25.5926 17.4659 25.3165 17.7214C25.0321 17.9687 24.789 18.253 24.5417 18.5374C24.3027 18.8259 24.0225 19.0814 23.8123 19.3946L23.1364 20.2889C22.9262 20.5939 22.7325 20.9153 22.5265 21.2244C22.3122 21.5335 22.135 21.8549 21.9578 22.1805C21.7847 22.5061 21.5827 22.8193 21.4261 23.1531C21.319 23.7795 21.1088 24.3688 20.944 24.9788C20.8533 25.2837 20.7544 25.5846 20.6472 25.8854C20.5524 26.1904 20.4577 26.4954 20.3629 26.8045C19.9714 28.0284 19.6623 29.2936 19.6211 30.5547L19.5098 30.5176C19.3903 32.1372 19.1183 33.761 18.8545 35.4094C18.599 37.0579 18.3394 38.7229 18.2157 40.3796C18.0303 41.7478 18.0715 42.6874 17.9396 44.068L17.7913 44.0886C18.1086 46.4665 16.7898 48.9145 17.1813 51.4037L17 51.2182C17.2679 51.618 16.7816 52.6853 17.3132 52.5741L17.1278 52.9944C17.4245 53.8393 17.3256 54.577 17.2184 55.3765C17.1154 56.1719 17.0041 57.0373 17.3297 58.0264L17.1937 57.9069C17.3338 58.4385 17.5069 59.0402 17.4739 59.4523C17.4451 59.3946 17.4162 59.4276 17.3585 59.3081C17.3173 59.7449 17.3297 60.1941 17.4121 60.6351C17.511 61.0719 17.6511 61.5088 17.8077 61.9374C18.1663 62.7863 18.5866 63.6064 18.9699 64.4142L18.6773 64.3235C18.8298 64.4925 18.9699 64.7191 19.1059 64.9747C19.246 65.2302 19.3944 65.5063 19.551 65.7906C19.7076 66.075 19.8477 66.38 20.0167 66.6561C20.1939 66.9281 20.3711 67.1836 20.5566 67.4061L20.4288 67.4103L20.8739 67.8059L20.7049 67.946C20.9233 68.2469 21.1624 68.5312 21.3973 68.8115L21.7517 69.2236L22.1391 69.6027L22.9139 70.3528C23.1859 70.5794 23.4579 70.8143 23.7257 71.0575Z" fill="#A9B283"/>
<path d="M37.894 75.5904C37.8899 75.5904 37.8817 75.5904 37.8776 75.5863C37.8363 75.6069 37.857 75.6028 37.894 75.5904Z" fill="#A9B283"/>
<path d="M56.5548 62.8313C56.5094 62.8849 56.4723 62.9302 56.427 62.9714C56.4723 62.9838 56.5177 62.8808 56.5548 62.8313Z" fill="#A9B283"/>
</g>
<path d="M38.5577 56.9669C37.7788 55.6522 36.9875 54.5065 35.883 53.4391C34.078 51.6959 31.8072 50.4472 29.9403 48.7822C30.3112 49.6848 30.917 50.6203 31.2714 51.395C31.9267 52.8416 32.6397 54.2551 33.5875 55.5327C35.2566 57.7746 37.2512 60.0124 40.2515 60.1649C39.9836 59.0645 39.1181 57.9065 38.5577 56.9669Z" fill="#878E6F"/>
<path d="M42.7241 43.0209C43.4453 42.7077 44.1335 42.2915 44.8011 41.8752C46.396 40.8862 47.4304 39.5674 48.5473 38.092C50.3771 35.6688 51.2508 32.8293 51.9101 29.9115C50.8799 30.4184 49.8166 31.2385 48.9264 31.8484C47.55 32.7922 46.293 33.9131 45.1638 35.1413C42.9054 37.5933 41.7268 40.4946 40.7212 43.6102C41.3682 43.5938 42.2707 43.2146 42.7241 43.0209Z" fill="#878E6F"/>
<path d="M46.6144 63.1239C45.172 63.705 43.6843 64.249 42.3738 65.1021C40.9602 66.0211 39.695 67.4223 38.7224 68.8153C39.3942 69.182 40.1854 69.0831 40.919 69.1738C42.1842 69.3345 43.0331 69.1491 44.1912 68.5927C45.7449 67.8509 47.2491 66.8948 48.6214 65.8645C50.8263 64.2078 52.1368 61.9412 53.6039 59.7198C51.4197 61.1252 49.0707 62.1348 46.6144 63.1239Z" fill="#878E6F"/>
<path d="M33.4103 11.3951C33.571 11.2138 33.7524 11.0654 33.9543 10.9376C33.9337 10.9294 33.9131 10.9212 33.8966 10.9047C33.3279 10.4307 33.0806 9.53644 32.2811 9.45814C31.63 9.39632 30.8717 9.90322 30.4843 10.4019C29.9238 11.1231 30.1711 11.9556 30.476 12.7262C30.6491 13.1589 31.0242 14.3376 31.6547 14.2881C31.8484 14.2717 31.9308 14.42 31.9184 14.5725C32.2811 14.5766 32.6644 14.6508 33.0559 14.7827C33.4309 14.9104 33.7936 15.0753 34.1521 15.2525C34.0244 15.1 33.9048 14.9434 33.7895 14.7827C33.0806 13.8018 32.4913 12.4336 33.4103 11.3951Z" fill="#D69E9F"/>
<path d="M35.4915 10.4636C35.2854 9.33031 35.1906 8.03626 35.5698 7.03482C35.4338 6.94415 35.306 6.84937 35.1535 6.74634C34.7085 6.44549 34.284 6.5238 33.8059 6.70101C32.7715 7.08015 32.5284 7.91675 32.7591 8.9388C33.4391 9.21079 33.7194 9.99793 34.3252 10.5048C34.3952 10.5625 34.42 10.6285 34.42 10.6903C34.7579 10.5584 35.1206 10.4801 35.4915 10.4636Z" fill="#D69E9F"/>
<path d="M38.3062 13.0806C37.8611 12.2193 37.3542 11.5022 36.3981 11.2055C36.3157 11.1807 36.2291 11.1601 36.1426 11.1437C36.0272 11.3291 35.6975 11.3415 35.6151 11.0901C34.7167 11.0818 33.8141 11.5104 33.604 12.4459C33.3484 13.5875 34.3993 14.7208 35.1494 15.4832C35.9654 16.3075 36.7649 16.6248 37.7045 16.9875C37.7334 16.971 37.7622 16.9545 37.7952 16.9463C38.4257 16.7361 39.0068 16.905 39.6209 17.0946C39.6456 17.1029 39.6703 17.1111 39.695 17.1152C39.6085 16.7196 39.5178 16.3075 39.4395 15.8871C39.1387 14.9228 38.7719 13.979 38.3062 13.0806Z" fill="#D69E9F"/>
<path d="M35.5491 16.6371C35.2812 16.5094 35.0216 16.3857 34.7826 16.2539C34.1149 15.8912 33.4143 15.4626 32.6725 15.273C31.8854 15.0752 31.4898 15.0422 30.9417 15.6439C30.4512 16.1756 30.3441 16.5052 30.4347 17.2182C30.7274 19.5261 33.946 19.5261 35.648 19.2252C36.4146 19.0892 37.1646 18.8667 37.9105 18.6359C37.5726 18.3886 37.2965 18.0837 37.2099 17.7127C37.1893 17.6262 37.2141 17.5438 37.2594 17.482C36.6701 17.2924 36.1137 17.0905 35.5656 16.6495C35.5574 16.6495 35.5532 16.6412 35.5491 16.6371Z" fill="#D69E9F"/>
<path d="M48.4113 14.42C48.3907 14.354 48.3742 14.2881 48.3536 14.2221C48.263 14.2057 48.1723 14.1933 48.0816 14.1892C47.1791 14.1315 46.1241 14.6425 45.374 15.0711C45.2133 15.1659 45.0526 15.2648 44.896 15.3678C44.2572 16.5794 43.3423 17.6716 42.1843 18.2691C42.0854 18.4669 41.9947 18.6648 41.9205 18.8749C41.9205 18.8873 41.9164 18.9038 41.9164 18.9161C41.9205 18.9203 41.9246 18.9203 41.9246 18.9203C42.9343 19.8723 45.1391 20.0701 46.3878 19.728C47.6736 19.3777 49.0007 18.4875 49.7383 17.3666C50.4431 16.2992 50.0474 15.0505 49.079 14.4859C49.0007 14.5271 48.9224 14.5766 48.8399 14.6095C48.6545 14.6961 48.469 14.6137 48.4113 14.42Z" fill="#D69E9F"/>
<path d="M49.6559 14.0944C50.3318 14.453 50.8304 15.0506 50.8634 15.9242C50.8799 16.3487 50.7768 16.7567 50.6038 17.1441C50.612 17.1606 50.6244 17.1688 50.6326 17.1853C50.5914 17.0947 51.1972 16.9545 51.2961 16.9339C51.803 16.8103 52.1245 16.7691 52.5695 16.4394C53.1053 16.0396 53.5916 15.5327 53.6658 14.8363C53.8636 12.9941 52.0668 12.5078 50.6491 12.8581C50.645 12.8581 50.6367 12.8581 50.6326 12.8581C50.3812 13.3362 50.0515 13.7606 49.6559 14.0944Z" fill="#D69E9F"/>
<path d="M36.0891 10.4967C36.666 10.575 37.2224 10.8058 37.6551 11.1767C38.2774 11.7083 38.7637 12.446 39.1593 13.262C39.1634 12.1781 39.3736 11.1231 39.9588 10.1959C40.1237 9.93622 40.3339 9.69308 40.577 9.46641C40.7418 8.7246 40.2143 7.61189 39.8393 6.96487C39.3407 6.10354 38.3928 5.8233 37.4614 6.05821C36.9133 6.19421 36.5383 6.47033 36.291 6.82887C36.3693 7.00196 36.2663 7.24098 36.0684 7.25335C35.6893 8.19709 35.8789 9.47465 36.0891 10.4967Z" fill="#D69E9F"/>
<path d="M44.4386 14.9516C44.6158 14.6055 44.7682 14.251 44.8919 13.909C45.4771 12.2853 45.7285 9.42104 43.4412 8.94299C41.3724 8.51027 40.0083 10.8923 39.8064 12.5449C39.6951 13.4763 39.7816 14.4118 39.9382 15.339C40.1484 16.0438 40.3174 16.7361 40.4658 17.3584C40.6965 17.4408 40.9273 17.5356 41.1375 17.6675C41.3023 17.7664 41.4754 17.9189 41.6197 18.0961C42.2379 16.8309 43.2475 15.7511 44.4386 14.9516Z" fill="#D69E9F"/>
<path d="M45.7243 13.1712C45.6254 13.5834 45.4894 14.0037 45.3246 14.4241C45.7738 14.1892 46.2395 13.9955 46.7093 13.8471C47.3769 13.6328 48.2424 13.6205 49.013 13.843C50.27 12.9734 50.8758 11.0612 50.5626 9.64765C50.2782 8.35361 49.1119 7.6324 47.8632 8.18876C46.8783 8.6256 46.3466 9.4045 45.815 10.2906C45.7862 10.3359 45.7532 10.3689 45.712 10.3895C45.9634 11.3085 45.918 12.3759 45.7243 13.1712Z" fill="#D69E9F"/>
<path d="M44.2736 8.52256C44.8341 8.76159 45.2173 9.19843 45.4729 9.72182C45.5182 9.64764 45.5676 9.57346 45.613 9.49928C45.5594 9.39625 45.5553 9.26437 45.6583 9.1531C46.0828 8.72038 45.7325 7.40985 45.5924 6.90294C45.3822 6.14465 45.0195 5.28745 44.1582 5.12672C42.2542 4.76818 40.8901 7.12961 41.6443 8.72862C42.485 8.3165 43.4452 8.17226 44.2736 8.52256Z" fill="#D69E9F"/>
<path d="M30.7562 77.0905C32.7921 76.4765 34.5848 74.5766 35.8995 72.9694C37.2471 71.3291 38.3598 69.4622 39.1346 67.4841C40.9808 62.7901 41.0344 57.3048 40.9767 52.3306C40.9067 46.6763 40.2761 41.1169 39.8393 35.4874C39.6209 32.6603 39.4066 29.8208 39.32 26.9854C39.2335 24.2366 39.1304 21.3765 39.6786 18.6689C39.7527 18.3021 39.1964 18.1208 39.1181 18.4876C38.1578 23.2475 38.7678 28.3825 39.0934 33.1837C39.4478 38.4134 40.1566 43.6143 40.3215 48.8564C40.4863 54.0573 40.5852 59.4684 39.4189 64.5745C38.8873 66.8948 37.9147 69.079 36.5918 71.0571C35.2442 73.0683 33.0435 75.7882 30.6326 76.5136C30.2699 76.6248 30.3936 77.1977 30.7562 77.0905Z" fill="#333333"/>
<path d="M38.0053 17.5273C37.8363 17.4449 37.7539 17.4037 37.5767 17.3501C37.3665 17.2883 37.1481 17.4738 37.2017 17.6922C37.3995 18.5329 38.5411 19.0604 39.2829 19.2624C39.9299 19.4396 40.9849 19.8022 41.6031 19.3613C42.3119 18.8544 41.6814 17.9724 41.1374 17.6386C40.6717 17.3543 40.1401 17.2224 39.6249 17.0658C39.0109 16.8762 38.4298 16.7072 37.7993 16.9174C37.6839 16.9545 37.5644 17.0534 37.5685 17.1894C37.585 17.9518 38.1207 18.2527 38.7512 18.5535C39.1551 18.7431 39.8804 19.1717 40.2678 18.7142C41.1209 17.7046 38.063 17.3419 37.7292 17.313C37.519 17.2966 37.4077 17.4903 37.4284 17.6675C37.5437 18.7719 39.9299 19.4931 40.8036 19.2417C40.9231 19.2047 41.0302 19.1057 41.0344 18.9697C41.0385 18.3062 40.4492 17.9889 39.934 17.6963C39.3076 17.3378 38.6771 17.0369 37.9394 17.107C37.7869 17.1193 37.6797 17.3172 37.7168 17.4573C38.0177 18.5865 40.1937 19.3283 41.2239 19.0151C41.3888 18.9656 41.463 18.8338 41.4465 18.6648C41.3187 17.4037 39.0727 17.3913 39.8063 18.5618C40.0041 18.8791 40.5275 18.6071 40.3255 18.2856C40.206 18.1414 40.2143 18.1167 40.3544 18.2156C40.5975 18.3227 40.7706 18.5164 40.8736 18.7884C40.9478 18.673 41.022 18.5535 41.0962 18.4381C40.4162 18.6442 38.4999 18.1125 38.2897 17.3254C38.2155 17.4408 38.1413 17.5603 38.0671 17.6757C38.5246 17.6345 40.4533 18.2568 40.445 18.9368C40.5233 18.8461 40.5975 18.7554 40.6758 18.6648C40.0989 18.8338 38.0754 18.2692 37.9971 17.5397C37.8982 17.6592 37.7951 17.7787 37.6962 17.8941C38.4133 17.9518 38.9944 18.0919 39.6497 18.3516C39.8516 18.434 39.8186 18.3969 39.6373 18.2898C39.4931 18.2032 39.2911 18.1579 39.1386 18.0837C38.7677 17.9106 38.166 17.721 38.1537 17.21C38.0754 17.3007 38.0012 17.3913 37.9229 17.482C38.6194 17.2512 39.4106 17.5892 40.0865 17.8076C40.408 17.9147 40.7665 18.0342 41.022 18.265C41.4135 18.6195 41.2899 18.9574 40.7706 18.9491C40.2967 18.9409 39.8104 18.7925 39.3612 18.6607C38.8914 18.5247 37.9146 18.1125 37.7786 17.5521C37.655 17.6675 37.5273 17.7787 37.4036 17.8941C37.5025 17.9312 37.5973 17.9683 37.6962 18.0054C38.0259 18.1867 38.3433 17.6922 38.0053 17.5273Z" fill="#333333"/>
<path d="M38.4587 17.2635C37.1729 16.736 36.1715 16.5011 35.1453 15.4626C34.3911 14.7002 33.3402 13.5669 33.5999 12.4253C33.8719 11.2137 35.306 10.851 36.3899 11.1848C37.3419 11.4774 37.8529 12.1986 38.298 13.06C39.0274 14.4776 39.5385 15.9983 39.9052 17.5479C39.9918 17.9147 40.5646 17.7911 40.4781 17.4201C40 15.4008 39.2953 12.5654 37.6469 11.1519C36.4764 10.1504 34.453 10.1793 33.4021 11.3703C32.483 12.4088 33.0765 13.777 33.7771 14.7538C34.2757 15.4502 34.8898 16.0931 35.5574 16.6289C36.4187 17.3212 37.2966 17.416 38.2815 17.8199C38.6318 17.9641 38.809 17.4078 38.4587 17.2635Z" fill="#333333"/>
<path d="M40.3462 17.3377C40 15.7717 39.6043 14.1397 39.8022 12.5242C40.0041 10.8716 41.3682 8.48959 43.437 8.92231C45.7243 9.40036 45.4688 12.2646 44.8877 13.8883C44.3602 15.3596 43.3299 17.0039 41.8957 17.7375C41.5619 17.9106 41.8339 18.4298 42.1718 18.2567C44.0181 17.313 45.2545 15.1041 45.7243 13.1506C46.0869 11.6505 45.9427 9.21079 44.2695 8.50195C42.7488 7.85493 40.7748 8.8811 39.9546 10.171C38.5905 12.3181 39.2705 15.1576 39.7774 17.4614C39.8557 17.8323 40.4286 17.7045 40.3462 17.3377Z" fill="#333333"/>
<path d="M41.904 18.8627C42.5098 17.2224 43.8657 15.9119 45.3658 15.0506C46.1158 14.6179 47.1708 14.1068 48.0734 14.1687C49.7095 14.2758 50.6408 15.9655 49.7259 17.3502C48.9883 18.4711 47.6654 19.3613 46.3754 19.7116C45.1267 20.0537 42.9178 19.8559 41.9122 18.9039C41.6402 18.6442 41.2075 19.044 41.4795 19.3036C42.8148 20.5647 45.4605 20.7254 47.0925 20.0784C48.6668 19.452 50.9211 17.853 50.851 15.9037C50.781 13.8884 48.2258 13.3403 46.701 13.8225C44.3767 14.5602 42.1966 16.3735 41.3435 18.6854C41.2157 19.0399 41.7721 19.2171 41.904 18.8627Z" fill="#333333"/>
<path d="M38.8172 17.8653C38.096 17.1729 37.1729 16.8556 36.2951 16.4023C35.2236 15.8459 34.1933 15.1494 33.0435 14.7579C31.5516 14.2469 30.1051 14.6137 29.8454 16.3198C29.557 18.2073 30.748 19.3777 32.5077 19.761C35.0752 20.3215 37.4243 19.25 39.8764 18.6565C40.2431 18.5659 40.1195 17.993 39.7486 18.0837C38.3721 18.4175 37.0327 18.9615 35.6357 19.2047C33.9295 19.5055 30.7109 19.5055 30.4224 17.1976C30.3317 16.4806 30.4389 16.155 30.9293 15.6234C31.4815 15.0217 31.8772 15.0546 32.6602 15.2525C33.402 15.442 34.1026 15.8665 34.7702 16.2333C35.9036 16.8515 37.449 17.3707 38.3845 18.265C38.6565 18.5247 39.0892 18.129 38.8172 17.8653Z" fill="#333333"/>
<path d="M36.1715 10.917C35.817 9.2974 35.2648 6.58568 37.449 6.03756C38.3845 5.80265 39.3324 6.08289 39.8269 6.94422C40.202 7.59124 40.7336 8.70807 40.5646 9.44988C40.4822 9.81667 41.0386 9.998 41.1251 9.63121C41.3435 8.66686 40.7542 7.22858 40.2061 6.43319C39.6415 5.6172 38.7101 5.27927 37.7416 5.39466C34.8238 5.73672 35.1288 8.90177 35.5986 11.0448C35.681 11.4116 36.2539 11.2838 36.1715 10.917Z" fill="#333333"/>
<path d="M31.6464 14.2633C31.02 14.3128 30.6409 13.1341 30.4678 12.7014C30.1628 11.9349 29.9155 11.1024 30.476 10.3771C30.8634 9.87842 31.6176 9.37152 32.2729 9.43334C33.0724 9.51164 33.3196 10.4059 33.8884 10.8799C34.1727 11.1189 34.6096 10.7233 34.3211 10.4801C33.5504 9.83721 33.3114 8.74098 32.1163 8.81929C31.2632 8.87286 30.3029 9.49928 29.8537 10.2205C29.3633 11.0035 29.557 11.9143 29.8579 12.7261C30.134 13.4597 30.6368 14.9227 31.6217 14.8444C31.9844 14.8197 32.0215 14.2345 31.6464 14.2633Z" fill="#333333"/>
<path d="M45.8068 10.2618C46.3384 9.37572 46.87 8.59682 47.855 8.15998C49.1037 7.60774 50.27 8.32895 50.5544 9.61887C50.9047 11.1932 50.1134 13.3897 48.5515 14.0738C48.6916 14.1398 48.8358 14.2057 48.9759 14.2717C48.9553 14.2016 48.9347 14.1315 48.9141 14.0656C48.807 13.7029 48.2341 13.8307 48.3413 14.1934C48.3619 14.2634 48.3825 14.3335 48.4031 14.3994C48.4608 14.5931 48.6463 14.6755 48.8276 14.5972C50.9788 13.6576 51.8031 10.4761 50.7645 8.50203C50.27 7.56653 49.3881 7.18738 48.3454 7.3852C46.87 7.66132 46.0376 8.7493 45.3164 9.94444C45.1185 10.27 45.6131 10.5832 45.8068 10.2618Z" fill="#333333"/>
<path d="M41.6402 8.70806C40.8819 7.10905 42.246 4.74763 44.1541 5.10617C45.0155 5.26689 45.374 6.12409 45.5883 6.88239C45.7284 7.38929 46.0787 8.69982 45.6542 9.13254C45.3905 9.40042 45.7861 9.83314 46.054 9.56526C46.7505 8.8523 46.3383 7.23681 46.054 6.40021C45.7573 5.52653 45.2133 4.6652 44.2283 4.51272C41.8463 4.13769 40.1648 6.96069 41.121 8.98418C41.2817 9.32624 41.8009 9.05012 41.6402 8.70806Z" fill="#333333"/>
<path d="M32.7509 8.91829C32.5242 7.89624 32.7633 7.05965 33.7977 6.6805C34.2757 6.50329 34.6961 6.42911 35.1453 6.72583C35.4173 6.90717 35.6233 7.09262 35.9366 7.21213C36.291 7.34813 36.4682 6.78765 36.1179 6.65165C35.6027 6.45796 35.2895 5.97166 34.7084 5.91397C34.1768 5.86451 33.5669 6.0953 33.1012 6.34257C32.0915 6.87832 31.9514 8.02812 32.1781 9.04193C32.2564 9.41283 32.8292 9.2892 32.7509 8.91829Z" fill="#333333"/>
<path d="M50.6367 12.8374C52.0544 12.4871 53.8512 12.9734 53.6534 14.8156C53.5792 15.5121 53.0929 16.019 52.5572 16.4187C52.1162 16.7484 51.7906 16.7896 51.2837 16.9133C51.189 16.938 50.5831 17.074 50.6202 17.1647C50.4677 16.8185 49.9485 17.0946 50.101 17.4408C50.1133 17.4696 50.1257 17.4985 50.1381 17.5273C50.1751 17.6097 50.2864 17.688 50.3812 17.6839C52.1038 17.5933 54.2716 16.5712 54.2469 14.5683C54.2386 13.7441 53.7853 12.8622 53.0641 12.4377C52.2275 11.9431 51.3991 12.0462 50.5048 12.2646C50.1463 12.3553 50.2699 12.9281 50.6367 12.8374Z" fill="#333333"/>
<path d="M40.2679 18.3763C40.9809 17.4697 41.3023 16.2416 41.632 15.1536C41.834 14.4901 41.9782 13.806 42.1224 13.126C42.2502 12.5201 42.209 11.9597 42.1925 11.3456C42.1884 11.156 41.8958 11.1437 41.8999 11.3291C41.9164 12.0132 41.9329 12.6026 41.7845 13.2743C41.6526 13.876 41.529 14.4736 41.3477 15.0629C41.0262 16.122 40.7048 17.3378 40.0165 18.2197C39.9011 18.3681 40.1525 18.5247 40.2679 18.3763Z" fill="#333333"/>
<path d="M40.5728 18.3475C41.9204 18.5206 43.0043 18.3805 44.2241 17.7705C44.8794 17.445 45.5347 17.1235 46.1941 16.8103C46.7669 16.5383 47.2326 16.1097 47.7848 15.8377C47.9538 15.7553 47.8178 15.4957 47.6488 15.5781C47.1708 15.8089 46.7875 16.188 46.3094 16.4271C45.7325 16.7155 45.139 16.971 44.5621 17.2636C43.9439 17.581 43.3257 17.9272 42.6375 18.0714C41.9575 18.2115 41.2693 18.1415 40.5893 18.0549C40.3997 18.0302 40.3873 18.3228 40.5728 18.3475Z" fill="#333333"/>
<path d="M36.1674 13.4392C36.324 14.0367 36.8762 14.5643 37.2512 15.0382C37.7375 15.6522 38.2527 16.2704 38.8132 16.8185C39.25 17.243 39.7487 17.6015 40.2721 17.9024C40.5276 18.0508 40.7954 18.1868 41.0798 18.2774C41.1457 18.298 41.8546 18.4011 41.8587 18.4134C41.9329 18.5865 42.1925 18.4505 42.1183 18.2774C42.106 18.2486 42.0936 18.2197 42.0812 18.1909C42.0606 18.1455 42.0071 18.1126 41.9576 18.1126C40.7831 18.1084 39.6456 17.2554 38.8544 16.4435C38.4587 16.0355 38.0878 15.5987 37.7252 15.1618C37.3172 14.6714 36.6083 13.9914 36.4435 13.3691C36.4023 13.196 36.1179 13.2578 36.1674 13.4392Z" fill="#333333"/>
<path d="M32.9898 17.9436C34.4075 18.3887 35.5408 19.0068 37.0698 18.809C38.6441 18.603 40.2142 18.5041 41.6979 17.8735C41.871 17.7993 41.735 17.5397 41.5619 17.6139C40.173 18.2073 38.7265 18.2733 37.2553 18.4876C36.4557 18.603 35.7263 18.6112 34.9515 18.3557C34.321 18.1496 33.7193 17.8653 33.0846 17.6633C32.8992 17.6057 32.8085 17.8859 32.9898 17.9436Z" fill="#333333"/>
<path d="M40.1689 43.6144C40.1813 43.6391 40.1978 43.6597 40.2101 43.6844C40.3379 43.8946 40.6676 43.8864 40.75 43.6391C41.7679 40.4617 42.9507 37.5027 45.2462 35.0053C46.3754 33.7771 47.6324 32.6562 49.0088 31.7124C50.0597 30.9912 51.3455 29.9774 52.5407 29.5365C52.4005 29.4211 52.2645 29.3016 52.1244 29.1862C51.4486 32.31 50.5831 35.372 48.6338 37.956C47.517 39.4355 46.4826 40.7502 44.8877 41.7392C44.22 42.1555 43.5318 42.5717 42.8106 42.8849C42.2707 43.1198 41.0879 43.6185 40.4615 43.4413C40.0989 43.3382 39.9175 43.8946 40.2802 44.0017C41.4341 44.3314 43.0414 43.4578 44.0222 42.9261C45.5965 42.0689 46.9276 41.1004 48.0527 39.691C50.5625 36.5507 51.8359 33.2826 52.6849 29.3634C52.7426 29.0955 52.5118 28.9224 52.2687 29.0131C50.9416 29.5035 49.4951 30.6409 48.3412 31.4693C46.94 32.4707 45.6624 33.6411 44.525 34.9311C42.3325 37.4203 41.191 40.3422 40.1937 43.4536C40.375 43.4372 40.5522 43.4207 40.7335 43.4083C40.7212 43.3836 40.7047 43.363 40.6923 43.3382C40.4945 43.0168 39.9752 43.2888 40.1689 43.6144Z" fill="#333333"/>
<path d="M41.1127 43.6143C42.5839 42.8395 43.5236 41.5207 44.7105 40.3998C45.8397 39.3365 47.2409 38.3886 48.1805 37.1441C49.0088 36.0519 49.6723 34.7208 50.2988 33.5009C50.6078 32.8951 50.7727 32.244 51.02 31.6217C51.3744 30.7274 52.0873 29.9609 52.6231 29.1696C52.8333 28.8564 52.3387 28.5391 52.1286 28.8523C51.3909 29.9444 50.7068 30.8387 50.2658 32.0791C49.7589 33.5092 48.8893 34.8857 48.0898 36.1715C47.2779 37.4779 45.9798 38.4752 44.8341 39.4849C43.4865 40.6718 42.4438 42.2378 40.8325 43.0868C40.5069 43.2722 40.7789 43.7915 41.1127 43.6143Z" fill="#333333"/>
<path d="M40.4987 60.0372C37.4078 59.9589 35.3719 57.6799 33.674 55.3967C32.722 54.1192 32.0132 52.7015 31.3579 51.2591C30.8675 50.1793 29.8784 48.7905 29.7259 47.6119C29.557 47.6984 29.3921 47.785 29.2232 47.8756C31.2096 49.9527 33.8924 51.3044 35.9654 53.3032C37.0699 54.3706 37.8611 55.5163 38.64 56.8309C39.2335 57.8323 40.1813 59.0811 40.3874 60.2391C40.4533 60.61 41.0262 60.4823 40.9602 60.1114C40.7789 59.0646 40.0577 58.0343 39.5137 57.1235C38.7595 55.8583 38.0919 54.6673 37.0781 53.5958C34.8609 51.255 31.8607 49.7878 29.6559 47.4759C29.4416 47.2533 29.1201 47.4594 29.1531 47.7396C29.3221 49.0584 30.3977 50.5709 30.9499 51.7784C31.6753 53.365 32.5119 54.8404 33.5792 56.221C35.3184 58.4752 37.416 60.5482 40.4698 60.6265C40.8448 60.6306 40.8737 60.0454 40.4987 60.0372Z" fill="#333333"/>
<path d="M40.9355 59.9382C39.7981 60.0083 38.129 58.3392 37.3872 57.6427C36.6248 56.9256 35.8665 56.1962 35.1783 55.4132C33.6122 53.6369 31.6794 51.7948 30.509 49.7177C30.3235 49.388 29.8043 49.66 29.9897 49.9938C30.6367 51.1436 31.6135 52.1574 32.4665 53.1548C33.4268 54.2757 34.3169 55.4626 35.3596 56.5012C36.2333 57.3748 37.1234 58.2444 38.1002 58.9986C38.8337 59.5673 39.9011 60.5893 40.9026 60.5234C41.2776 60.5028 41.3106 59.9176 40.9355 59.9382Z" fill="#333333"/>
<path d="M38.5947 68.9884C39.592 67.4965 40.9437 65.9469 42.4644 64.962C43.775 64.1089 45.2627 63.5649 46.7051 62.9838C49.6641 61.7928 52.4665 60.5812 55.0216 58.669C54.8732 58.5453 54.7249 58.4217 54.5765 58.2939C52.7055 60.8985 51.3496 63.7421 48.7162 65.7203C47.3439 66.7547 45.8355 67.7067 44.286 68.4485C43.1238 69.0048 42.279 69.1903 41.0138 69.0296C40.2596 68.9348 39.4395 69.0502 38.7554 68.6381C38.4298 68.4444 38.1166 68.9389 38.438 69.1326C39.0645 69.5076 39.5961 69.4994 40.3173 69.553C41.0591 69.6065 41.7061 69.8414 42.4603 69.7343C44.3849 69.4623 46.326 68.0611 47.9002 67.0102C49.388 66.0211 50.7686 64.896 51.8524 63.466C53.0352 61.9123 53.9336 60.1938 55.0711 58.6071C55.2812 58.3187 54.8732 58.0467 54.626 58.2321C51.7123 60.4122 48.403 61.6321 45.0608 63.0127C42.1512 64.216 39.864 66.0335 38.1084 68.6669C37.8858 68.9884 38.3845 69.3057 38.5947 68.9884Z" fill="#333333"/>
<path d="M38.4463 68.7657C41.4094 67.8879 44.5744 66.8576 47.2903 65.3575C49.7218 64.0181 51.8442 61.904 54.0366 60.2308C54.3375 60.0041 53.9377 59.5714 53.6369 59.7981C51.4815 61.4383 49.388 63.5112 47.0142 64.8382C44.3519 66.326 41.2281 67.3274 38.3185 68.1887C37.96 68.3 38.0836 68.8729 38.4463 68.7657Z" fill="#333333"/>
</svg>
