<svg width="51" height="80" viewBox="0 0 51 80" fill="none" xmlns="http://www.w3.org/2000/svg">
<g opacity="0.8">
<path d="M36.2467 72.1721C40.5748 66.9686 41.9229 62.082 43.5407 56.9704C44.5077 53.9209 45.4839 50.7979 45.4792 47.606C45.4792 42.8802 43.2571 38.3932 39.9983 35.3023C36.7395 32.2069 32.5231 30.4157 28.195 29.5937C25.3035 29.0425 22.226 28.9231 19.4692 30.1264C13.4258 32.7626 11.0503 40.4645 9.4232 47.2065C8.77702 49.8886 8.12619 52.5707 7.48001 55.2574C6.80593 58.0451 6.12721 60.8742 6.15045 63.7308C6.20624 71.0607 11.3478 77.7659 17.9537 79.5157C24.555 81.2701 32.0907 78.1288 36.2467 72.1721Z" fill="#D69E9F"/>
<path d="M35.4193 71.6118L35.3356 71.6303L35.3635 71.8535L35.4193 71.6118Z" fill="#D69E9F"/>
<path d="M35.0427 72.6864C35.0845 72.6772 35.1124 72.7186 35.1542 72.7094L35.1868 71.9332C34.8149 72.0113 35.289 72.6313 35.0427 72.6864Z" fill="#D69E9F"/>
<path d="M34.8893 72.8105C34.6475 72.9345 34.7359 73.1412 34.7498 73.233C34.6894 73.0631 35.1031 72.9115 34.8893 72.8105Z" fill="#D69E9F"/>
<path d="M15.039 77.7062C15.0619 77.7153 15.0895 77.7245 15.1125 77.7291C15.0849 77.7062 15.0573 77.697 15.039 77.7062Z" fill="#D69E9F"/>
<path d="M10.0739 74.4822L9.90659 74.5373C10.3622 74.8955 10.7992 75.3042 11.1943 75.7681C11.4081 75.984 11.6313 76.1952 11.8498 76.4065C11.9614 76.5121 12.0729 76.6131 12.1938 76.7096C12.3193 76.7969 12.4448 76.8841 12.5703 76.9622L12.4681 76.9576C13.6396 77.9312 14.9552 78.6431 16.3452 79.0978C17.7305 79.5616 19.1716 79.7867 20.6592 79.8326C20.6128 79.8464 20.5942 79.8969 20.543 79.9107C20.6918 79.8602 20.8545 79.7591 21.0172 79.7821C21.059 79.8188 20.9707 79.8556 20.9149 79.8693C21.5425 80.1954 22.7559 79.6994 23.1557 79.8647C23.3277 79.8142 23.3927 79.6902 23.2858 79.6167C24.4294 79.4836 25.5823 79.1667 26.7073 78.7809C27.8137 78.3446 28.8876 77.8164 29.836 77.1505C29.9522 77.1321 30.008 77.1826 30.0266 77.2791C31.5188 75.9288 33.1785 74.7715 34.5638 73.2973C34.5266 73.1641 34.336 73.3707 34.3732 73.1457C33.8618 73.5361 33.7874 74.1974 33.2203 74.4546L33.197 74.3214C32.8437 74.5602 33.3412 74.597 32.9088 74.7761C32.7136 74.8174 32.8437 74.6429 32.7787 74.6888C32.1371 75.3134 31.3468 75.8002 30.789 76.4846C30.4775 76.3881 29.9708 77.0081 29.5524 76.9484C29.3943 77.1413 29.1805 77.2286 29.1758 77.4123C27.7394 78.0782 26.2471 78.6385 24.6758 78.9875C23.1138 79.3366 21.4728 79.4652 19.869 79.2493C19.6737 79.2815 19.4738 79.2998 19.2693 79.3044C19.0694 79.2907 18.8648 79.2631 18.6603 79.2264C18.4557 79.1896 18.2465 79.1437 18.042 79.0886C17.8421 79.0151 17.6375 78.937 17.433 78.859C17.2331 78.7763 17.0239 78.7028 16.824 78.6064C16.6241 78.5053 16.4242 78.4089 16.2243 78.3078C15.8152 78.1287 15.4294 77.8991 15.011 77.7292C15.0063 77.7108 15.0203 77.6924 15.0342 77.6878C14.7413 77.6143 14.4159 77.449 14.0859 77.2607C13.9231 77.1689 13.7558 77.0678 13.5977 76.9668C13.449 76.852 13.3049 76.7326 13.1747 76.6131L12.5703 76.4019C11.0409 74.8863 9.71599 73.1962 8.67001 71.3224C7.64728 69.444 6.9639 67.3544 6.81049 65.2326C6.60595 62.8214 7.06618 60.5527 7.5543 58.316C8.06102 56.0748 8.57238 53.7969 8.83272 51.3582C8.87456 51.3765 8.91175 51.3444 8.8978 51.4684C9.13489 50.0768 9.60442 48.869 9.81826 47.56L9.86475 47.5738C10.2506 44.2809 11.6127 41.0017 12.5471 37.9844C13.3746 36.2529 14.402 34.4572 15.8059 32.9325C17.2145 31.4215 19.0043 30.1815 20.994 29.6166L21.0079 29.7084C22.5699 29.194 24.2388 29.2124 25.8287 29.4283C27.4279 29.6487 28.9806 30.0575 30.5751 30.4203C32.1557 30.9806 33.806 31.4674 35.4006 32.1747C36.9905 32.8728 38.5292 33.7867 39.6914 35.0451C40.3097 35.9177 41.2162 36.6984 42.039 37.5894C42.8619 38.4712 43.5871 39.4586 43.8009 40.4552C44.3634 42.4301 44.8283 44.2993 45.084 46.2374C45.3536 48.1663 45.3397 50.1733 45.098 52.2032C44.5587 53.9989 44.0752 55.7993 43.5871 57.5858C43.099 59.3632 42.5783 61.1405 41.6997 62.7479C41.4022 64.484 39.9564 65.9352 39.1057 67.6024L39.2405 67.5978C38.6082 68.0157 38.8825 69.1593 38.2038 69.2419L38.2224 69.1685C37.7993 69.32 38.2735 70.211 37.883 70.2202L37.9574 70.3442C37.7296 70.7254 37.804 70.3029 37.5623 70.5463C37.5018 70.6565 37.7296 70.7254 37.5065 70.8953C37.2694 70.7621 37.1392 70.9963 36.9951 71.2214C36.8463 71.4418 36.6929 71.6531 36.4465 71.4832C36.5953 71.2995 36.0328 71.6301 36.2606 71.1387C36.1165 71.2168 35.6888 71.8 35.9305 71.9103C36.1025 72.1307 36.1025 72.5027 36.5488 72.2869L36.4512 72.094C36.7022 72.0986 36.6 72.0664 36.7487 72.1169C37.1346 71.6715 37.4228 71.7909 37.7761 71.5153C37.7668 71.5153 37.7622 71.5153 37.7575 71.5061C37.7389 71.1295 38.0922 70.8861 38.2596 70.7208L38.4037 70.707C38.6733 70.7208 38.413 69.8895 38.6408 70.2615C39.2498 69.2052 39.975 68.0157 40.584 66.8032C40.5375 66.569 41.0489 65.8801 40.6584 66.0225C41.1093 65.8663 41.6021 64.9754 41.7322 64.6217C41.7555 64.6447 41.7834 64.6769 41.7462 64.7228C42.4249 64.2084 41.709 63.7859 42.4388 63.3404C42.1367 63.1154 42.9828 62.2244 42.6899 61.7192C42.7968 61.6687 42.8758 61.6641 42.927 61.7146C43.3361 60.571 43.8614 59.3402 44.1821 58.3757C44.131 57.4572 44.9538 56.4193 44.7446 55.5696C45.0189 55.0047 45.4838 54.077 45.5256 53.1769L45.5582 53.2733C45.786 52.3088 46.0091 51.0642 45.8232 50.3432C46.2927 50.1136 46.2648 49.6635 46.4415 49.2364C46.3717 48.8873 46.381 48.3729 46.3485 47.8126C46.3159 47.2523 46.2695 46.6461 46.1253 46.1363C46.3206 45.9572 45.944 45.3005 46.2183 45.2086C45.7395 43.7987 45.2095 42.2877 44.5773 40.7859C43.9497 39.2841 43.2012 37.7961 42.3831 36.4412L42.4296 36.4642C42.0437 36.2438 41.4858 36.1106 41.0582 35.959C41.0489 35.9131 41.0907 35.8855 41.1465 35.9498C40.9419 35.7615 40.8025 35.5273 40.6491 35.2977C40.5003 35.068 40.3469 34.8338 40.1191 34.6685C40.1563 34.6363 40.1563 34.6363 40.2539 34.6639C39.7844 34.4021 39.5891 33.7637 38.9522 33.5525L38.9708 33.4744L38.5896 33.3182C38.6547 33.2494 38.7524 33.1437 38.9058 33.2999C36.9951 31.7797 34.7126 30.7142 32.3603 30.0069C31.1795 29.6533 29.9801 29.3778 28.7667 29.1619C27.5581 28.946 26.3354 28.7807 25.0988 28.7072L25.2848 28.6292C24.9594 28.6613 24.6386 28.7118 24.3178 28.7577C24.3225 28.7118 24.369 28.6889 24.4155 28.6659C23.1742 28.496 21.9005 28.9001 20.7429 29.1849C20.7336 29.1389 20.8917 29.0012 20.7104 28.9966C20.3106 29.24 19.9433 29.2813 19.6365 29.3456C19.3297 29.4145 19.0833 29.5018 19.0043 29.8462C18.9578 29.8416 18.8788 29.7452 18.9438 29.6671C18.6742 29.8278 18.3999 29.9886 18.1257 30.1447C17.8653 30.3192 17.6143 30.5121 17.354 30.6913C17.089 30.8658 16.8519 31.0724 16.6148 31.2791C16.3824 31.4904 16.122 31.6695 15.9128 31.9037C14.9924 32.7579 14.2253 33.7454 13.5001 34.7374C13.1607 35.7294 12.6447 36.6525 12.2031 37.6307C11.7382 38.5952 11.3384 39.6056 11.1664 40.6389L11.0781 40.5976C10.7992 41.9157 10.3901 43.2246 9.98562 44.5565C9.58582 45.8883 9.18603 47.2294 8.8978 48.5796C8.59098 49.6864 8.52125 50.4672 8.25627 51.5878H8.13075C8.13075 53.581 6.75471 55.4548 6.80584 57.5491L6.67568 57.3791C6.85698 57.7374 6.33167 58.564 6.78725 58.5319L6.58735 58.858C6.74076 59.5882 6.5734 60.1852 6.39675 60.8282C6.2201 61.4712 6.02949 62.1739 6.1922 63.0235L6.08993 62.9087C6.14572 63.3634 6.22474 63.8777 6.15036 64.213C6.13177 64.1625 6.10388 64.1854 6.07133 64.0798C5.98766 64.4334 5.95047 64.8054 5.96441 65.1775C5.99695 65.5495 6.06668 65.9215 6.15036 66.2935C6.35491 67.0329 6.61059 67.7539 6.84303 68.4612L6.60594 68.3556C6.81979 68.6725 6.96855 69.1593 7.16845 69.6599C7.26607 69.9125 7.34975 70.1788 7.46132 70.4223C7.57754 70.6657 7.69841 70.8999 7.82858 71.0974L7.72166 71.0836L8.04707 71.4602L7.88901 71.5566C8.03777 71.8276 8.20513 72.0894 8.36784 72.3466L8.61887 72.7278L8.90245 73.0814L9.46496 73.7841C9.6788 74.0321 9.8787 74.2525 10.0739 74.4822Z" fill="#D69E9F"/>
<path d="M20.9146 79.874C20.91 79.874 20.9054 79.874 20.9008 79.8694C20.8641 79.8786 20.8824 79.8786 20.9146 79.874Z" fill="#D69E9F"/>
<path d="M37.9064 71.4189C37.8645 71.4607 37.8273 71.4933 37.7855 71.5212C37.818 71.5398 37.8692 71.4561 37.9064 71.4189Z" fill="#D69E9F"/>
</g>
<path d="M13.9278 7.58111C13.184 7.70052 13.5187 7.83371 14.2207 8.25164C15.1179 8.78439 15.9779 8.64661 16.9123 8.4629C17.2517 8.3986 18.1303 8.24245 18.8927 8.01282C17.2656 7.67296 15.6106 7.30555 13.9278 7.58111Z" fill="#878E6F"/>
<path d="M20.0549 6.96118C19.7016 6.46977 18.7068 5.73035 18.5022 5.49613C17.7677 4.65567 17.2099 3.70958 16.3731 2.94721C15.4712 2.12512 13.9371 0.976959 12.6541 1.00452C10.3901 1.05503 12.7889 3.47536 13.5234 4.0724C15.5084 5.68902 17.4981 6.76829 20.0549 6.96118Z" fill="#878E6F"/>
<path d="M21.1102 1.85869C20.5245 2.67159 20.5663 3.82894 20.6267 4.82555C20.6686 5.49148 20.8266 6.1666 21.0777 6.78201C21.1242 6.86009 21.166 6.93357 21.1985 7.01165C21.2032 7.02083 21.2125 7.03002 21.2171 7.04379C21.9098 6.4146 22.3979 5.2894 22.7419 4.57754C23.0348 3.96213 23.337 2.98849 23.1743 2.26744C22.8767 0.96772 21.7471 0.976906 21.1102 1.85869Z" fill="#878E6F"/>
<path d="M32.2209 9.41357C31.6305 9.44113 31.0447 9.47328 30.4543 9.50083C30.3613 9.74425 30.2637 9.98306 30.1707 10.2265C29.7756 11.4757 29.4641 12.7846 29.4455 14.0935C29.4362 14.6216 29.5106 15.136 29.5432 15.655C30.5798 15.0304 31.4166 14.2221 31.9745 13.0464C32.3324 12.2886 32.5695 11.4435 32.5091 10.6031C32.4905 10.3734 32.4347 9.56513 32.2209 9.41357Z" fill="#878E6F"/>
<path d="M24.2156 15.903C23.7089 15.8846 23.1789 15.8892 22.6722 15.9305C21.9051 15.9902 21.3798 15.8111 21.7471 16.6378C22.0818 17.3864 22.556 17.1797 23.3277 17.1338C23.9088 17.0971 24.4899 17.0282 25.0663 16.9363C25.5684 16.8582 26.5632 16.7067 27.1815 16.3485C26.2099 16.0913 25.2104 15.9397 24.2156 15.903Z" fill="#878E6F"/>
<path d="M36.1165 23.6783C37.1996 22.5394 38.6361 20.5186 38.1062 18.8561C37.5901 17.2303 36.1025 18.4289 35.7213 19.3429C35.461 19.9583 35.3355 20.6931 35.1914 21.3453C34.8938 22.6771 34.8102 24.009 34.7776 25.3593C35.2611 24.8541 35.8561 23.9539 36.1165 23.6783Z" fill="#878E6F"/>
<path d="M33.0948 26.287C32.1929 26.0804 31.0075 26.1584 30.259 26.1492C29.1712 26.1355 27.2141 25.7405 26.1495 26.1676C24.8199 26.705 26.2657 27.3066 26.8933 27.4949C27.93 27.8072 29.0085 27.8026 30.0638 27.6005C30.7797 27.4627 32.2626 26.9713 33.0948 26.287Z" fill="#878E6F"/>
<path d="M38.743 35.6513C38.7849 35.6881 38.8221 35.7386 38.85 35.8029C38.9569 36.0555 41.2487 34.9257 41.4068 34.82C42.6527 33.9704 43.3221 32.6339 43.4058 31.1643C43.5824 30.7969 43.5406 30.4341 43.2803 30.085C43.2663 29.3594 42.9734 29.217 42.4016 29.6625C41.7369 29.9013 41.6392 29.961 41.2673 30.4846C40.821 31.1184 40.491 31.821 40.0214 32.4456C39.5938 33.0105 39.1521 33.5249 38.8593 34.1725C38.7105 34.494 38.6268 34.8292 38.5385 35.1645C38.7337 35.2839 38.7849 35.4768 38.743 35.6513Z" fill="#878E6F"/>
<path d="M31.9977 35.8672C32.6671 36.028 36.6093 36.625 37.3438 35.6835C36.786 35.4815 36.1863 35.3391 35.647 35.1278C34.8521 34.8155 34.0711 34.4665 33.2715 34.1726C32.4812 33.8832 31.663 33.6214 30.8216 33.5342C30.2777 33.4791 28.7343 33.3459 28.3995 33.8419C27.8045 34.7191 31.3701 35.7157 31.9977 35.8672Z" fill="#878E6F"/>
<path d="M41.9786 49.6222C42.8573 49.5946 43.7359 49.4569 44.5773 49.1859C45.7163 48.8185 48.0314 47.7117 47.2085 46.1502C46.753 45.2867 45.1677 45.5715 44.4146 45.9619C43.6615 46.3476 43.1315 47.0319 42.5597 47.6244C41.9136 48.2949 40.928 48.9241 40.2354 49.6911C40.8211 49.7278 41.5091 49.6406 41.9786 49.6222Z" fill="#878E6F"/>
<path d="M30.854 47.1652C31.7094 47.6887 32.667 48.0423 33.6154 48.3501C34.6056 48.6715 37.2043 49.737 38.5943 49.5074C38.5896 49.4844 38.5757 49.4707 38.5757 49.4477C38.5385 49.1446 37.3112 48.5062 37.0741 48.3409C36.3303 47.8403 35.5958 47.3351 34.8613 46.8253C33.7874 46.0767 31.3282 44.1707 29.9243 44.3958C27.823 44.7219 30.2311 46.7794 30.854 47.1652Z" fill="#878E6F"/>
<path d="M35.5726 61.733C35.2147 60.966 34.4151 59.9005 34.0943 59.4183C33.3691 58.3252 32.3742 57.3837 31.5375 56.3688C30.6914 55.3492 29.134 53.6224 27.6278 53.5902C27.0886 53.3009 26.9073 53.457 27.0746 54.0587C26.9537 54.4307 27.0281 54.7522 27.2931 55.0185C27.4884 55.4181 27.8231 55.859 28.0788 56.2264C28.7621 57.2 29.6082 57.9257 30.5426 58.6605C31.8629 59.703 33.6759 61.4023 35.4424 62.0912C35.4378 61.9626 35.4843 61.834 35.5726 61.733Z" fill="#878E6F"/>
<path d="M43.7312 62.7343C45.0933 62.7802 46.3346 62.8124 47.5758 62.1419C48.2499 61.7745 49.4818 61.2509 48.3568 60.1992C48.05 59.9098 47.2039 59.9833 46.8366 59.9741C44.5401 59.9328 42.1042 60.6768 40.1052 61.7607C39.7891 61.9306 39.4544 62.1373 39.115 62.3393C39.538 62.3807 39.9564 62.4174 40.3516 62.4633C41.4766 62.5965 42.6016 62.6976 43.7312 62.7343Z" fill="#878E6F"/>
<path d="M16.2429 65.2464C20.3385 64.4335 23.4485 59.8133 22.384 55.735C21.2869 51.5328 16.3405 49.5625 12.3333 49.8473C8.26559 50.1366 3.92362 52.782 1.76193 56.2127C-0.743773 60.1853 -0.506685 66.4267 2.02691 70.3167C7.8193 79.2035 22.5513 76.898 29.9755 71.5062C38.7849 65.1132 41.5138 52.4926 40.1517 42.2694C39.2637 35.6009 36.8231 29.1666 33.5736 23.2834C31.9094 20.266 30.0359 17.3221 27.9858 14.5436C25.9635 11.8018 23.495 9.62944 21.1985 7.14482C20.7708 6.68556 20.0735 7.36068 20.5012 7.81994C22.1655 9.62026 24.0529 11.1772 25.6195 13.0693C27.3117 15.1131 28.7947 17.3221 30.2172 19.5542C32.9507 23.8529 35.3076 28.3858 36.9626 33.1989C40.2121 42.6598 40.5608 53.4846 36.0933 62.6562C31.9001 71.2628 22.556 75.8141 13.0399 75.1252C7.79141 74.744 2.78931 71.9241 1.46905 66.6012C0.35799 62.1188 1.26915 57.1817 4.92311 54.1368C8.69328 50.9954 14.2532 49.3788 18.6278 52.3594C20.915 53.9163 22.105 56.2816 21.3566 59.0096C20.6407 61.6228 18.744 63.7676 16.0012 64.3141C15.3736 64.4335 15.6246 65.3658 16.2429 65.2464Z" fill="#333333"/>
<path d="M20.5384 7.14481C17.791 7.03459 15.7037 5.91858 13.6164 4.22389C12.8772 3.62225 10.4831 1.20652 12.747 1.156C14.0301 1.12844 15.5642 2.27661 16.4661 3.09869C17.3029 3.86107 17.8607 4.80716 18.5952 5.64761C18.8509 5.94154 20.3432 7.01622 20.2734 7.42496C20.1619 8.05875 17.6422 8.49046 17.01 8.61446C16.0709 8.79817 15.2156 8.93135 14.3183 8.39861C13.6164 7.98527 13.2817 7.84749 14.0255 7.72808C16.0337 7.402 17.9955 7.98067 19.9248 8.35268C20.5896 8.48127 21.5007 8.58231 21.5007 7.67756C21.5007 7.42956 21.2683 7.15859 21.1846 6.95652C20.9243 6.33192 20.7662 5.64761 20.7197 4.97249C20.6546 3.97589 20.6128 2.81854 21.2032 2.00564C21.8401 1.12385 22.9697 1.11467 23.2673 2.41439C23.43 3.13543 23.1278 4.11367 22.8349 4.72449C22.384 5.66598 21.6774 7.32393 20.5849 7.61326C20.7895 7.76941 20.994 7.93016 21.1986 8.08631C21.1893 7.98986 21.1846 7.88882 21.1753 7.79238C21.1335 7.17696 20.1526 7.15859 20.1944 7.78319C20.2037 7.87964 20.2084 7.98067 20.2177 8.07712C20.2409 8.38483 20.5059 8.63742 20.8313 8.55016C22.5002 8.10468 23.43 6.06095 23.9878 4.56375C24.4248 3.38803 24.7037 0.949331 23.3602 0.20073C22.2166 -0.442241 21.0219 0.591105 20.3757 1.44534C19.7156 2.31794 19.7667 2.93336 19.7621 3.99426C19.7621 4.50863 19.7295 4.99545 19.79 5.50983C19.8411 5.95532 20.1758 6.62584 20.1386 7.05755C20.1107 7.3423 20.4083 7.28719 20.1898 7.42956C19.9992 7.55356 18.8974 7.10807 18.7207 7.06215C17.6143 6.7774 16.6055 6.75444 15.4526 6.76822C14.7274 6.7774 12.6587 6.43295 12.4681 7.53978C12.2496 8.83031 14.588 9.70751 15.5363 9.75803C17.3772 9.86366 19.8365 9.06913 21.2497 7.89341C21.3845 7.78319 21.417 7.58571 21.3799 7.42496C21.18 6.54318 20.0457 5.74406 19.4553 5.09649C18.5487 4.10448 17.8468 2.97928 16.7915 2.10209C15.4991 1.032 12.7145 -0.791282 11.106 0.733477C9.56727 2.18935 12.0683 4.22389 13.1004 5.05057C15.355 6.85548 17.5818 7.99445 20.5245 8.11386C21.1567 8.13682 21.166 7.17237 20.5384 7.14481Z" fill="#333333"/>
<path d="M27.8742 16.7435C27.9207 16.7572 27.9672 16.7664 28.0137 16.7802C27.9207 16.5414 27.8231 16.3026 27.7301 16.0684C27.3721 16.7435 25.8287 16.9777 25.1593 17.0833C24.5829 17.1752 24.0018 17.2441 23.4207 17.2808C22.649 17.3267 22.1701 17.5334 21.8401 16.7848C21.4728 15.9581 21.9981 16.1372 22.7652 16.0775C23.2719 16.0362 23.8019 16.0362 24.3086 16.05C25.6102 16.0959 26.9165 16.3393 28.1485 16.7572C28.195 16.4404 28.2415 16.1235 28.2879 15.8112C28.2508 15.8066 28.2136 15.8066 28.1764 15.802C27.5488 15.7469 27.5395 16.7159 28.1671 16.771C28.2043 16.7756 28.2415 16.7756 28.2786 16.7802C28.8504 16.8307 28.9155 15.9995 28.4181 15.8341C27.2513 15.4392 18.9857 13.8731 20.2874 17.1109C20.9196 18.6908 23.0255 18.3279 24.3737 18.1718C25.5731 18.034 27.9114 17.8136 28.5715 16.5735C28.7156 16.3026 28.6087 15.9443 28.2879 15.8617C28.2415 15.8479 28.195 15.8387 28.1485 15.8249C27.5348 15.655 27.2652 16.5873 27.8742 16.7435Z" fill="#333333"/>
<path d="M28.2833 17.0925C28.3112 17.1155 28.3391 17.1385 28.367 17.1614C28.5529 17.313 28.7435 17.3405 28.9574 17.2441C31.0679 16.3072 32.6067 14.9202 33.3133 12.6882C33.7503 11.3104 33.8386 9.07376 32.3184 8.29301C30.5566 7.38826 29.6035 9.13806 29.2038 10.5664C28.8923 11.687 28.618 12.7433 28.5157 13.896C28.4228 14.9156 28.8737 15.9076 28.5994 16.9318C28.8737 16.8629 29.148 16.794 29.4176 16.7251C29.3758 16.6746 29.3386 16.6241 29.2967 16.5781C28.9016 16.0913 28.2089 16.771 28.5994 17.2533C28.6412 17.3038 28.6784 17.3543 28.7203 17.4002C28.9527 17.6896 29.4548 17.5242 29.5385 17.1936C29.8034 16.2016 29.5199 15.2325 29.5338 14.2405C29.5571 12.9316 29.8639 11.6227 30.259 10.3735C30.352 10.1301 30.4496 9.89125 30.5426 9.64784C31.133 9.62029 31.7188 9.58814 32.3091 9.56058C32.523 9.70755 32.5788 10.5204 32.5974 10.7501C32.6578 11.5905 32.4207 12.4356 32.0628 13.1934C31.3143 14.787 30.0498 15.701 28.4739 16.4036C28.6691 16.4312 28.869 16.4587 29.0643 16.4863C29.0364 16.4633 29.0085 16.4404 28.9806 16.4174C28.5018 16.0224 27.7998 16.693 28.2833 17.0925Z" fill="#333333"/>
<path d="M33.741 25.7221C33.3923 26.7692 31.1004 27.5684 30.1614 27.7475C29.1061 27.9496 28.0276 27.9541 26.9909 27.6418C26.3633 27.4535 24.9176 26.8519 26.2471 26.3146C27.3117 25.8875 29.2688 26.2824 30.3566 26.2962C31.3422 26.31 33.1041 26.1676 33.9595 26.7325C34.4848 27.0815 34.9822 26.2503 34.4615 25.9012C33.8525 25.4925 32.9181 25.5063 32.1976 25.4282C30.696 25.272 29.1666 25.2996 27.6557 25.2858C26.6562 25.2766 23.8716 25.2812 24.4155 27.0127C24.9454 28.7073 28.1717 28.9462 29.5338 28.8084C31.1516 28.643 34.1036 27.7245 34.6893 25.9793C34.8799 25.396 33.9409 25.1297 33.741 25.7221Z" fill="#333333"/>
<path d="M33.8758 26.4752C33.8758 26.5028 33.8758 26.5349 33.8758 26.5625C34.2012 26.5671 34.5266 26.5717 34.8567 26.5717C34.8753 24.8586 34.9125 23.1731 35.289 21.4922C35.4331 20.8446 35.5633 20.1052 35.819 19.4898C36.2048 18.5759 37.6878 17.3772 38.2038 19.003C38.7338 20.6655 37.2973 22.6863 36.2141 23.8253C35.8562 24.2019 34.852 25.7725 34.4011 25.8552C33.7828 25.97 34.0338 26.9069 34.6521 26.7921C35.2472 26.6773 35.5633 26.1354 35.9212 25.6991C36.8324 24.5876 37.7668 23.5451 38.506 22.2959C39.273 21.0054 39.7519 18.6953 38.5525 17.4736C37.274 16.1739 35.7028 17.515 35.0705 18.7596C33.9037 21.0605 33.9037 24.0595 33.8758 26.5579C33.8711 27.1779 34.8474 27.1917 34.8567 26.5671C34.8567 26.5395 34.8567 26.5074 34.8567 26.4798C34.8613 25.8598 33.8804 25.8506 33.8758 26.4752Z" fill="#333333"/>
<path d="M37.5623 35.5503C37.4321 36.8867 32.8205 36.1887 32.0953 36.0141C31.463 35.8626 27.9021 34.866 28.4971 33.9888C28.8318 33.4928 30.3799 33.626 30.9191 33.6811C31.7606 33.7683 32.5787 34.0301 33.369 34.3195C34.1686 34.6134 34.9496 34.9624 35.7446 35.2747C36.507 35.5778 37.3995 35.7294 38.1155 36.129C38.664 36.4367 39.1661 35.61 38.6175 35.2977C37.5065 34.6685 36.1444 34.3975 34.9543 33.9107C33.6526 33.3826 32.3417 32.8498 30.9284 32.712C29.9057 32.611 26.5167 32.8452 27.3256 34.6501C28.0462 36.253 31.57 36.9878 33.0436 37.1761C34.587 37.3736 38.3293 37.7364 38.5385 35.5595C38.5989 34.9441 37.618 34.9349 37.5623 35.5503Z" fill="#333333"/>
<path d="M38.0922 36.4275C38.5897 37.5849 40.7978 36.4597 41.5324 36.0831C43.629 35.0038 44.6424 32.6248 44.7075 30.3836C44.7679 28.372 42.3552 28.2526 41.1604 29.3502C40.1796 30.255 39.5659 31.6466 38.771 32.7167C38.0225 33.727 37.897 34.7788 37.4182 35.8902C37.1718 36.4597 38.1155 36.7214 38.3572 36.1566C38.6176 35.5595 38.6733 34.9165 38.9476 34.3195C39.2451 33.6719 39.6821 33.1576 40.1098 32.5927C40.584 31.9681 40.9094 31.27 41.3557 30.6316C41.7276 30.1034 41.8252 30.0437 42.49 29.8095C43.0618 29.364 43.3547 29.5018 43.3686 30.232C43.629 30.5811 43.6708 30.9393 43.4941 31.3113C43.4105 32.7855 42.741 34.122 41.4952 34.9671C41.3418 35.0727 39.0499 36.2025 38.9383 35.9499C38.6966 35.3758 37.8459 35.858 38.0922 36.4275Z" fill="#333333"/>
<path d="M39.287 49.4109C38.2364 50.2744 34.866 48.869 33.7084 48.4924C32.7601 48.1847 31.8024 47.8311 30.9471 47.3075C30.3241 46.9263 27.916 44.8688 30.0173 44.5336C31.4212 44.3085 33.8804 46.2145 34.9543 46.9631C35.6888 47.4774 36.4233 47.978 37.1671 48.4786C37.4089 48.6394 38.6315 49.2824 38.6687 49.5855C38.7431 50.1963 39.7193 50.2147 39.6496 49.5946C39.5566 48.8139 38.8965 48.5108 38.2875 48.0837C36.8836 47.1008 35.4843 46.0491 34.0106 45.1765C32.8577 44.4968 29.2642 42.3337 28.2508 44.2993C27.1815 46.3706 30.5844 48.2995 31.993 48.8874C33.6341 49.5717 35.4238 50.0631 37.1671 50.4075C38.0783 50.5867 39.2173 50.7153 39.975 50.0952C40.4585 49.7049 39.7705 49.016 39.287 49.4109Z" fill="#333333"/>
<path d="M39.3428 49.5992C39.3056 49.613 39.273 49.6222 39.2358 49.636C38.8825 49.76 38.6919 50.3249 39.1103 50.5178C40.1052 50.977 41.5417 50.7933 42.6155 50.7061C43.9265 50.605 45.2235 50.2652 46.3857 49.6589C47.6781 48.9838 48.9658 47.4315 48.2917 45.8884C47.5479 44.1891 44.8516 44.6897 43.6336 45.5026C42.504 46.2512 41.6393 47.4269 40.6212 48.3179C39.8541 48.993 39.022 49.6865 38.6826 50.6831C38.6036 50.9173 38.7663 51.2296 39.0174 51.2801C39.0638 51.2893 39.1103 51.2985 39.1615 51.3077C39.7751 51.4271 40.0494 50.4994 39.4311 50.38C39.3846 50.3708 39.3381 50.3616 39.287 50.3524C39.3986 50.5499 39.5101 50.752 39.6217 50.9495C40.068 49.6268 41.709 48.7358 42.6434 47.7714C43.2152 47.1789 43.7498 46.4946 44.4983 46.1088C45.2514 45.7184 46.8366 45.4337 47.2922 46.2971C48.115 47.8586 45.7999 48.97 44.661 49.3329C43.8242 49.6038 42.9456 49.7416 42.0623 49.7692C41.3789 49.7921 40.226 49.9758 39.6031 49.6865C39.5613 49.9804 39.5194 50.2744 39.4776 50.5683C39.5148 50.5545 39.5473 50.5453 39.5845 50.5315C40.1842 50.3295 39.9378 49.3926 39.3428 49.5992Z" fill="#333333"/>
<path d="M36.4652 62.5046C34.429 62.1739 32.1883 60.0337 30.6356 58.8075C29.7012 58.0681 28.8551 57.347 28.1717 56.3734C27.9161 56.006 27.5813 55.5697 27.3861 55.1655C27.1165 54.8946 27.0421 54.5777 27.1676 54.2057C27.0002 53.604 27.1815 53.4479 27.7208 53.7372C29.2317 53.7694 30.789 55.4962 31.6304 56.5158C32.4672 57.5262 33.4621 58.4677 34.1873 59.5653C34.601 60.1899 35.8144 61.7881 35.8423 62.4541C35.8701 63.0741 36.8092 63.0924 36.8231 62.4633C36.8231 62.4265 36.8231 62.3898 36.8231 62.353C36.8324 61.733 35.8562 61.7193 35.8423 62.3439C35.8423 62.3806 35.8423 62.4173 35.8423 62.4541C36.1677 62.4587 36.4931 62.4633 36.8231 62.4633C36.7674 61.1084 35.7446 60.1899 35.038 59.0877C34.1687 57.7374 32.9368 56.5158 31.8815 55.2987C30.9285 54.2011 28.1996 52.0012 26.5214 52.7682C24.5596 53.6637 27.2094 56.8327 27.9718 57.7191C29.0736 59.005 30.5798 60.02 31.9512 61.0028C33.1831 61.8846 34.6522 63.1843 36.1909 63.4369C36.8092 63.5333 37.0835 62.6056 36.4652 62.5046Z" fill="#333333"/>
<path d="M35.7679 62.601C36.958 63.267 38.4874 63.3313 39.8216 63.5012C41.537 63.7216 43.2524 63.864 44.9818 63.8778C46.5577 63.8916 50.393 62.973 50.1791 60.7732C49.9885 58.7754 46.3578 59.1152 45.0329 59.3081C43.6197 59.5148 42.2436 59.9098 40.9373 60.4701C40.2028 60.7869 39.552 61.2095 38.85 61.5677C38.3015 61.8479 37.1393 62.5138 36.5396 62.4862C36.5349 62.8077 36.5303 63.1292 36.5303 63.4553C36.5675 63.4553 36.6 63.4553 36.6372 63.4553C37.2648 63.4599 37.2787 62.4954 36.6465 62.4862C36.6093 62.4862 36.5768 62.4862 36.5396 62.4862C35.9073 62.4816 35.898 63.4277 36.5303 63.4553C37.8226 63.5104 39.0964 62.5046 40.1982 61.9076C42.1971 60.8237 44.6285 60.0843 46.9296 60.121C47.2969 60.1256 48.1383 60.0567 48.4498 60.3461C49.5748 61.3978 48.3428 61.9259 47.6688 62.2887C46.4275 62.9593 45.1863 62.9225 43.8242 62.8812C42.6899 62.8445 41.5696 62.748 40.4445 62.6102C39.1103 62.4495 37.4693 62.4403 36.2746 61.7698C35.726 61.4621 35.2193 62.2933 35.7679 62.601Z" fill="#333333"/>
</svg>
