<svg width="60" height="60" viewBox="0 0 60 60" fill="none" xmlns="http://www.w3.org/2000/svg">
<g clip-path="url(#clip0_15_1585)">
<g opacity="0.6">
<path d="M40.8676 50.63C45.6247 44.8433 47.1082 39.4012 48.8858 33.7195C49.9448 30.324 51.0206 26.8528 51.0206 23.3017C51.0206 18.0403 48.579 13.0521 44.9985 9.61028C41.4181 6.16851 36.7786 4.17237 32.0257 3.25624C28.8487 2.64689 25.4658 2.51242 22.4358 3.84878C15.7918 6.78206 13.1821 15.3508 11.3919 22.8521C10.6817 25.8358 9.96727 28.8237 9.25706 31.8074C8.51744 34.9088 7.77361 38.0564 7.79462 41.2376C7.85346 49.3945 13.5057 56.8538 20.7675 58.8037C28.0292 60.7536 36.3038 57.2572 40.8676 50.63Z" fill="#A9B283"/>
<path d="M39.964 50.0038L39.8716 50.0249L39.901 50.2728L39.964 50.0038Z" fill="#A9B283"/>
<path d="M39.5439 51.2015C39.5902 51.1931 39.6196 51.2393 39.6658 51.2267L39.7036 50.361C39.296 50.4451 39.8213 51.1427 39.5439 51.2015Z" fill="#A9B283"/>
<path d="M39.38 51.3402C39.111 51.4789 39.2119 51.71 39.2287 51.8109C39.1572 51.6218 39.6153 51.4495 39.38 51.3402Z" fill="#A9B283"/>
<path d="M17.561 56.7823C17.5862 56.7949 17.6157 56.8033 17.6451 56.8117C17.6115 56.7823 17.582 56.7781 17.561 56.7823Z" fill="#A9B283"/>
<path d="M12.1021 53.2019L11.9172 53.2649C12.4173 53.6641 12.9006 54.118 13.3334 54.6349C13.5688 54.8744 13.8125 55.114 14.0563 55.3451C14.1781 55.4586 14.3042 55.5762 14.4345 55.6813C14.5689 55.778 14.7076 55.8746 14.8505 55.9629L14.7412 55.9587C15.0732 56.215 15.3842 56.4966 15.7372 56.7151C16.086 56.9378 16.4306 57.1563 16.7836 57.3665C17.1492 57.5472 17.5148 57.7237 17.8762 57.9044C18.2419 58.0767 18.6285 58.1943 19.0025 58.3372C20.528 58.8499 22.1123 59.1021 23.7428 59.1567C23.6924 59.1735 23.6714 59.2281 23.6167 59.2449C23.7806 59.1861 23.9613 59.0768 24.1336 59.1021C24.1757 59.1441 24.079 59.1861 24.0244 59.2029C24.7136 59.5685 26.0499 59.0096 26.487 59.1987C26.6761 59.1441 26.7475 59.0054 26.6299 58.9256C26.9408 58.8751 27.256 58.8289 27.5754 58.7785C27.8906 58.7196 28.2016 58.6356 28.5209 58.5641L28.9958 58.4507L29.4623 58.3036C29.7733 58.2027 30.0842 58.1061 30.391 57.9968C31.6097 57.5135 32.7906 56.9252 33.8286 56.1856C33.9547 56.1646 34.0177 56.2234 34.0387 56.3285C34.4505 55.946 34.8624 55.572 35.2994 55.2316C35.7071 54.8534 36.1609 54.534 36.577 54.1642C36.993 53.7986 37.4427 53.4624 37.8377 53.0716L38.4554 52.5085L39.027 51.9033C38.9849 51.7562 38.7748 51.9832 38.8168 51.731C38.5227 51.9411 38.3882 52.2479 38.2075 52.5127C38.0352 52.7816 37.8587 53.0464 37.5477 53.1893L37.5183 53.0422C37.1317 53.3069 37.678 53.349 37.2031 53.5507C36.9888 53.5969 37.1317 53.4036 37.0602 53.454C36.3542 54.1516 35.4885 54.6895 34.8708 55.4502C34.5262 55.3409 33.9715 56.0343 33.5134 55.9671C33.3411 56.1814 33.1016 56.278 33.1016 56.484C31.5257 57.2236 29.8825 57.8497 28.1595 58.2364C26.4407 58.623 24.6421 58.7659 22.8771 58.5263C22.6628 58.5641 22.4443 58.5852 22.2173 58.5894C21.9988 58.5726 21.7761 58.5431 21.5491 58.5053C21.3222 58.4633 21.0953 58.4171 20.8684 58.354C20.6456 58.2742 20.4229 58.1859 20.2002 58.0977C19.9774 58.0052 19.7505 57.9254 19.5278 57.8161C19.3093 57.7069 19.0907 57.5934 18.868 57.4841C18.4183 57.2866 17.9939 57.0303 17.5316 56.837C17.5274 56.8159 17.54 56.7991 17.5611 56.7907C17.2375 56.7067 16.8803 56.526 16.5189 56.3159C16.3382 56.2108 16.1575 56.1015 15.981 55.9881C15.8171 55.862 15.6574 55.7275 15.5145 55.5972L14.8505 55.3661C13.1695 53.6809 11.7113 51.7983 10.564 49.7139C9.4378 47.6253 8.68977 45.3013 8.51748 42.9354C8.29055 40.2542 8.79904 37.7286 9.33274 35.2408C9.89166 32.7488 10.4548 30.2147 10.7363 27.4957C10.7826 27.5125 10.8204 27.4789 10.8078 27.6176C11.0683 26.0711 11.581 24.7263 11.8164 23.2681L11.8668 23.2849C12.0811 21.4611 12.5602 19.6246 13.1149 17.8302C13.6696 16.0358 14.3 14.3044 14.8127 12.615C15.7246 10.6903 16.8509 8.68996 18.3973 6.99219C19.9438 5.31122 21.9148 3.93283 24.1042 3.30667L24.121 3.40753C25.8398 2.8318 27.6721 2.85702 29.4161 3.09655C31.1727 3.34029 32.883 3.79835 34.6312 4.20179C36.3668 4.82794 38.1823 5.37006 39.9347 6.15171C40.813 6.53412 41.6661 6.98798 42.4687 7.51328C43.2714 8.03859 44.0152 8.64373 44.6498 9.34554C45.3306 10.3163 46.3265 11.1862 47.2301 12.178C48.1336 13.1571 48.932 14.2582 49.1674 15.3634C49.7851 17.557 50.2978 19.6414 50.5794 21.7973C50.8778 23.9405 50.8567 26.1762 50.592 28.4329C49.9995 30.4332 49.4657 32.4336 48.932 34.4213C48.3941 36.4006 47.8268 38.3758 46.8561 40.166C46.6922 41.1199 46.2173 42.0235 45.6584 42.8976C45.0994 43.7759 44.4775 44.629 44.0068 45.5661L44.1539 45.5619C43.4605 46.0242 43.7589 47.2975 43.015 47.3941L43.0361 47.3143C42.5696 47.4824 43.0907 48.4742 42.662 48.4826L42.7461 48.6212C42.4939 49.0415 42.578 48.575 42.309 48.844C42.2418 48.97 42.4897 49.0415 42.2502 49.2348C41.9897 49.0835 41.8426 49.3441 41.6871 49.5962C41.5232 49.8399 41.3551 50.0795 41.0819 49.8862C41.2458 49.6803 40.6239 50.0501 40.8802 49.4995C40.7247 49.5878 40.2541 50.235 40.5146 50.361C40.7037 50.6048 40.7037 51.0208 41.1954 50.7813L41.0861 50.5628C41.3593 50.567 41.25 50.5291 41.4139 50.588C41.8384 50.0879 42.1536 50.2224 42.5402 49.9156C42.5318 49.9156 42.5234 49.9156 42.5192 49.903C42.5024 49.4827 42.889 49.2138 43.0697 49.0289L43.2294 49.0163C43.5277 49.0289 43.242 48.1086 43.4899 48.5204C44.1581 47.3437 44.9566 46.02 45.6247 44.671C45.5743 44.4104 46.1374 43.6414 45.7088 43.8011C46.2089 43.6246 46.7468 42.6328 46.8897 42.2462C46.9149 42.2756 46.9443 42.305 46.9065 42.3597C47.6503 41.7881 46.8645 41.3175 47.6713 40.8216C47.3351 40.5694 48.2681 39.5777 47.9487 39.0187C48.0621 38.9599 48.1504 38.9599 48.2092 39.0145C48.6547 37.7412 49.2388 36.3712 49.5876 35.2996C49.5288 34.2784 50.4365 33.1228 50.2054 32.1772C50.5037 31.5469 51.0206 30.5173 51.0669 29.5171L51.1005 29.6222C51.3526 28.5505 51.5964 27.1637 51.3904 26.3653C51.9073 26.1089 51.8779 25.6089 52.0712 25.134C51.9956 24.7474 52.004 24.1716 51.9704 23.5497C51.9368 22.9277 51.8821 22.2511 51.7266 21.688C51.941 21.4863 51.5291 20.7551 51.8317 20.6542C51.3022 19.0825 50.7265 17.4058 50.0289 15.7332C49.3397 14.0606 48.516 12.4049 47.6167 10.9004L47.6671 10.9256C47.2427 10.6819 46.6291 10.5348 46.1585 10.3625C46.15 10.3121 46.1921 10.2785 46.2551 10.3499C46.0324 10.1398 45.8769 9.87924 45.7046 9.6271C45.5407 9.37075 45.3726 9.1102 45.1205 8.92529C45.1583 8.89167 45.1583 8.89167 45.2675 8.92109C44.7506 8.63112 44.5363 7.92092 43.8387 7.68138L43.8597 7.59313L43.4437 7.42083C43.5151 7.34519 43.6244 7.22752 43.7883 7.39982C41.6871 5.71045 39.1782 4.52537 36.5938 3.73532C35.2952 3.34029 33.9757 3.03772 32.6477 2.79818C31.3197 2.55864 29.975 2.37374 28.6134 2.29389L28.8193 2.20564C28.4621 2.24346 28.1091 2.2981 27.7561 2.35273C27.7603 2.2981 27.8107 2.27288 27.8612 2.25187C26.4954 2.06276 25.1002 2.51242 23.8226 2.8318C23.8142 2.78137 23.9823 2.62588 23.789 2.62168C23.3478 2.89064 22.9485 2.93686 22.6082 3.0083C22.272 3.08395 22.003 3.1806 21.9106 3.56722C21.8601 3.56302 21.7719 3.45796 21.8433 3.36551C21.5449 3.54201 21.2466 3.72271 20.944 3.89921C20.654 4.09673 20.3809 4.30685 20.0951 4.50856C19.8051 4.70187 19.5446 4.93301 19.284 5.15994C19.0277 5.39527 18.7419 5.59699 18.5108 5.85333L17.7796 6.59296C17.5485 6.8493 17.3299 7.11826 17.103 7.37461C16.8719 7.63095 16.6659 7.90411 16.4642 8.18147C16.2625 8.45883 16.044 8.72358 15.8549 9.00934C15.4851 10.1146 14.9177 11.14 14.4303 12.2284C13.9176 13.3042 13.4805 14.4262 13.2914 15.5777L13.1948 15.5315C12.8838 17.0023 12.4383 18.4564 11.9971 19.9356C11.56 21.4149 11.1188 22.9109 10.7994 24.4154C10.4632 25.6467 10.3833 26.5124 10.0934 27.7647H9.9547C9.9547 29.9836 8.44183 32.068 8.49646 34.3961L8.35358 34.207C8.55109 34.6062 7.97537 35.5265 8.47545 35.4887L8.25693 35.8501C8.42923 36.6612 8.24432 37.3252 8.04681 38.0438C7.8535 38.7582 7.64338 39.5398 7.82408 40.4854L7.71482 40.3593C7.77785 40.8636 7.8619 41.4393 7.78205 41.8091C7.76104 41.7503 7.73163 41.7797 7.6938 41.6621C7.60135 42.0571 7.55933 42.4689 7.57614 42.885C7.61396 43.2968 7.6896 43.7128 7.77785 44.1289C8.00058 44.9483 8.28634 45.7552 8.53849 46.5411L8.27794 46.4234C8.39561 46.5999 8.49646 46.8226 8.58892 47.0706C8.68557 47.3185 8.79063 47.5917 8.89569 47.8732C9.00075 48.1548 9.09321 48.449 9.21928 48.7221C9.34955 48.9911 9.47983 49.2516 9.61851 49.4743L9.50084 49.4617L9.85804 49.8778L9.68575 49.9828C9.84964 50.2854 10.0345 50.5754 10.2152 50.8611L10.4926 51.2814L10.8036 51.6764L11.4213 52.458C11.6693 52.6976 11.8878 52.9455 12.1021 53.2019Z" fill="#A9B283"/>
<path d="M24.0201 59.1945C24.0159 59.1903 24.0117 59.1903 24.0075 59.1861C23.9655 59.2029 23.9865 59.2029 24.0201 59.1945Z" fill="#A9B283"/>
<path d="M42.6958 49.7937C42.6495 49.8399 42.6075 49.8736 42.5613 49.9072C42.5991 49.9198 42.6537 49.8315 42.6958 49.7937Z" fill="#A9B283"/>
</g>
<path d="M2.47036 9.13542C2.94523 9.24888 3.46213 9.19005 3.9412 9.13542C4.85733 9.03456 5.3322 8.7446 5.5003 7.78224C5.60956 7.16449 5.48349 6.43747 5.21874 5.87435C4.92457 5.24399 4.19755 4.72709 3.46633 4.66826C3.34026 4.77332 3.16796 4.82795 2.95784 4.79433C2.8822 4.78172 2.81076 4.78172 2.74352 4.78172C2.73932 4.78172 2.73932 4.78172 2.73511 4.78593C2.60904 4.84056 2.49558 4.85317 2.39052 4.83636C1.36513 5.15574 1.04995 6.8409 1.24326 7.71921C1.41556 8.47984 1.63828 8.9337 2.47036 9.13542Z" fill="#D69E9F"/>
<path d="M4.67662 15.6828C4.49172 15.7458 4.29 15.7374 4.13031 15.6365C3.95801 15.6491 3.78151 15.6786 3.5924 15.7332C3.48734 15.7668 3.38648 15.771 3.29403 15.7584C2.63845 15.9559 2.18039 16.3846 2.08794 17.3301C1.97027 18.5068 2.28545 19.4985 3.5882 19.3809C4.84472 19.2674 5.56753 18.822 5.75664 17.515C5.89532 16.519 5.42885 15.8551 4.67662 15.6828Z" fill="#D69E9F"/>
<path d="M39.4893 20.3474C39.4725 20.339 39.4557 20.3264 39.4389 20.3138C39.4347 20.318 39.4305 20.3138 39.4221 20.3054C39.3927 20.2844 39.3591 20.2676 39.3338 20.2424C39.3002 20.234 39.2582 20.234 39.191 20.255C38.8548 20.3558 38.5732 20.4105 38.2538 20.5744C37.7075 20.8559 37.3713 21.1963 37.1738 21.7931C37.0141 22.2679 36.9595 22.8647 37.1654 23.3311C37.468 24.0119 38.1572 24.117 38.8422 24.0876C39.8507 24.0456 40.2121 23.3774 40.3088 22.436C40.3592 21.957 40.3298 21.293 40.0567 20.8349C39.7751 20.8223 39.5019 20.6332 39.4893 20.3474Z" fill="#D69E9F"/>
<path d="M34.8919 27.3697C34.8331 27.4033 34.7701 27.4411 34.6902 27.4789C34.2658 27.6806 33.7657 27.7353 33.4337 28.0925C32.9168 28.6598 32.7613 29.9962 33.5598 30.3618C34.5852 30.8324 35.3206 30.0088 35.3878 29.0464C35.4046 28.8279 35.413 28.6052 35.4046 28.3824C35.392 28.1009 35.2239 27.7605 35.4971 27.7269C35.1987 27.7605 34.9886 27.5882 34.8919 27.3697Z" fill="#D69E9F"/>
<path d="M12.4259 3.44955C12.3502 3.45375 12.2872 3.46636 12.2326 3.48317C12.1527 3.57142 12.0435 3.63025 11.9132 3.64706C11.8039 3.73531 11.6989 3.83197 11.5476 3.92022C11.3501 4.02948 11.0895 4.12193 10.871 3.99166C10.8163 3.96224 10.7659 3.92862 10.7113 3.8992C10.644 3.85718 10.581 3.81095 10.5264 3.75632C10.3163 3.8908 10.1482 4.09672 10.0515 4.39089C9.83298 5.03385 9.79936 5.76507 10.1902 6.35761C10.7533 7.2107 11.9048 7.2065 12.7621 6.82408C13.7748 6.37442 14.1699 5.42048 13.7706 4.36567C13.5521 3.79835 13.0562 3.40752 12.4259 3.44955Z" fill="#D69E9F"/>
<path d="M24.9532 1.57528C24.575 1.39037 24.2388 1.33994 23.8396 1.23068C23.7597 1.20967 23.7135 1.20967 23.6715 1.22227C23.6253 1.2769 23.5622 1.32313 23.4908 1.36515C23.4782 1.69714 23.1672 1.92407 22.8394 1.94509C22.5326 2.4914 22.52 3.27305 22.5957 3.83617C22.7385 4.9372 23.184 5.71885 24.3733 5.73146C25.1801 5.73986 25.987 5.59698 26.3232 4.78592C26.5543 4.227 26.4661 3.52519 26.2644 2.97468C26.0122 2.27708 25.6088 1.89046 24.9532 1.57528Z" fill="#D69E9F"/>
<path d="M29.3616 9.58086C29.2691 9.53884 29.1935 9.50102 29.1262 9.4632C29.017 9.72375 28.7732 9.93387 28.416 9.90025C28.7354 9.92966 28.5505 10.3373 28.5463 10.6693C28.5421 10.9298 28.5589 11.1904 28.5841 11.4467C28.6976 12.5772 29.5843 13.5227 30.7778 12.9386C31.7065 12.4847 31.4796 10.913 30.8534 10.2659C30.4626 9.84982 29.87 9.80359 29.3616 9.58086Z" fill="#D69E9F"/>
<path d="M57.484 22.8227C57.3957 22.8353 57.3033 22.8311 57.1982 22.789C57.194 22.789 57.194 22.789 57.1898 22.789C57.131 22.789 57.0721 22.7932 57.0091 22.8059C56.8326 22.8395 56.6855 22.7932 56.5762 22.7092C55.9543 22.7722 55.3491 23.2303 55.1138 23.7724C54.9037 24.2557 54.8112 24.8776 54.9205 25.3987C55.0886 26.2098 55.4962 26.4451 56.2779 26.5124C56.6855 26.546 57.1267 26.5838 57.526 26.4788C58.2278 26.2896 58.4085 25.8988 58.5346 25.2432C58.6816 24.4952 58.3707 23.0622 57.484 22.8227Z" fill="#D69E9F"/>
<path d="M56.9798 32.1268C56.8999 32.1394 56.8159 32.1352 56.7276 32.1142C56.5596 32.0679 56.4041 32.0511 56.2528 32.0469C56.1225 32.1268 55.9628 32.1394 55.8115 32.0974C55.1728 32.2613 54.7903 32.837 54.9374 33.6817C55.1265 34.7869 55.7527 35.1483 56.8201 35.2156C57.9253 35.287 58.1733 34.4339 58.0472 33.4379C57.9421 32.6311 57.5429 32.2781 56.9798 32.1268Z" fill="#D69E9F"/>
<path d="M50.5627 22.0956C50.5165 22.1419 50.466 22.1839 50.4072 22.2217C50.3652 22.2511 50.319 22.2763 50.2769 22.3058C50.0962 22.4192 49.8693 22.352 49.7012 22.2595C49.5667 22.1881 49.4785 22.1041 49.3776 22.0326C49.2768 22.02 49.1927 21.978 49.1255 21.9149C49.0708 21.8981 49.012 21.8855 48.9406 21.8813C48.4027 21.8603 47.9908 22.2007 47.8185 22.6924C47.5033 23.5959 47.8605 24.3986 48.7304 24.7558C49.4659 25.0583 50.445 25.0373 50.9073 24.2977C51.2267 23.7892 51.1804 23.1673 50.9787 22.6251C50.8905 22.3772 50.7434 22.2049 50.5627 22.0956Z" fill="#D69E9F"/>
<path d="M5.47919 9.1186C5.42456 9.10179 5.36993 9.08498 5.3195 9.06818C4.60089 8.84124 4.02936 9.66072 4.6177 10.2112C6.7105 12.1611 9.05124 13.8127 11.1609 15.7416C13.3419 17.7377 15.3296 20.0155 17.1997 22.3016C19.0614 24.5751 20.7465 26.983 22.3477 29.4457C24.1211 32.1772 26.1214 34.8668 27.5755 37.7832C27.9579 38.5523 29.227 38.0816 28.8362 37.3042C27.4452 34.5138 25.5709 31.9797 23.8899 29.3574C22.1586 26.6469 20.3305 23.9951 18.2881 21.5031C16.5105 19.3347 14.6278 17.1998 12.6065 15.2541C10.3498 13.0773 7.7569 11.2955 5.46238 9.15643C5.22705 9.53884 4.99592 9.91706 4.76058 10.2995C4.81521 10.3163 4.86985 10.3331 4.92027 10.3499C5.74395 10.6105 6.30707 9.37915 5.47919 9.1186Z" fill="#333333"/>
<path d="M24.4027 31.9923C24.4153 32.0259 24.4237 32.0596 24.4363 32.0932C24.8565 31.9335 25.2768 31.7738 25.697 31.6141C24.9027 29.4961 24.8775 26.962 24.6716 24.7179C24.4867 22.6924 24.3648 20.6626 24.3018 18.6287C24.1799 14.8045 24.9111 10.8542 24.5161 7.06783C24.4279 6.20213 23.0831 6.32821 23.1713 7.1939C23.5916 11.245 22.8225 15.5315 22.9864 19.6288C23.0789 21.9528 23.2554 24.2683 23.5033 26.5838C23.7009 28.4497 23.7723 30.3282 24.4363 32.0974C24.743 32.9126 25.9786 32.4378 25.697 31.6183C25.6844 31.5847 25.676 31.5511 25.6634 31.5174C25.3818 30.6896 24.1211 31.1686 24.4027 31.9923Z" fill="#333333"/>
<path d="M3.18469 3.46216C1.07508 3.13437 -0.538642 5.60539 -0.177235 7.5385C0.00767137 8.51345 0.154755 9.40857 1.03306 9.9885C1.93237 10.581 3.03341 10.5936 4.0672 10.4802C5.04216 10.3709 6.00451 10.1398 6.47938 9.18584C6.97527 8.18567 6.98787 6.95016 6.66849 5.89535C6.13899 4.14295 4.10082 2.71833 2.26016 3.52099C1.46591 3.86559 1.94078 5.13051 2.73924 4.78171C3.65536 4.38249 4.82783 5.02545 5.22286 5.87434C5.48341 6.43746 5.61369 7.16448 5.50442 7.78223C5.33212 8.74459 4.86145 9.03455 3.94533 9.13541C3.46625 9.19004 2.94936 9.24888 2.47449 9.13541C1.64241 8.9337 1.41968 8.47983 1.25158 7.715C1.02465 6.69381 1.49112 4.56319 2.96617 4.79432C3.81926 4.9288 4.04198 3.59664 3.18469 3.46216Z" fill="#333333"/>
<path d="M13.6864 16.4266C13.4805 14.8087 13.3166 13.2454 12.9846 11.6401C12.7157 10.3331 12.7451 8.87066 12.3122 7.61835C12.0307 6.79467 10.7657 7.27795 11.0515 8.09742C11.4886 9.37495 11.476 10.9761 11.7533 12.3124C12.0475 13.7329 12.1567 15.1196 12.3416 16.5485C12.4509 17.4142 13.7999 17.2881 13.6864 16.4266Z" fill="#333333"/>
<path d="M11.8794 2.29809C9.60174 1.70976 8.17712 3.94964 8.60577 6.00042C9.03021 8.03438 11.0852 8.80342 12.93 8.19828C14.7623 7.59313 15.6994 5.86174 15.0691 4.00427C14.7581 3.09655 14.1319 2.44518 13.1948 2.18883C12.7451 2.06696 12.3207 2.07537 11.8668 2.20144C11.3541 2.34012 11.1608 2.59647 10.7448 2.8318C10.9717 2.80659 11.1945 2.78557 11.4214 2.76036C11.371 2.73094 11.3163 2.69732 11.2617 2.66791C11.392 2.91165 11.5222 3.15118 11.6525 3.39492C11.6651 3.31928 11.6777 3.24364 11.6903 3.16799C11.829 2.3107 10.4969 2.08797 10.3582 2.94527C10.3456 3.02091 10.333 3.09655 10.3203 3.1722C10.2657 3.49578 10.4464 3.74372 10.7112 3.89921C10.7658 3.92863 10.8162 3.96225 10.8709 3.99166C11.0894 4.12194 11.3499 4.03369 11.5475 3.92022C11.8752 3.73532 11.9761 3.47897 12.43 3.44955C13.0603 3.40753 13.5562 3.79835 13.7747 4.36568C14.174 5.42048 13.7831 6.37023 12.7662 6.82409C11.9089 7.20651 10.7574 7.21071 10.1943 6.35762C9.80345 5.76928 9.83707 5.03806 10.0556 4.39089C10.2993 3.66808 10.9423 3.44535 11.6651 3.63446C12.4972 3.84878 12.7157 2.51662 11.8794 2.29809Z" fill="#333333"/>
<path d="M15.9181 19.5238C15.0314 19.7969 13.8001 19.0783 12.968 18.8094C12.1948 18.5614 11.4131 18.3597 10.6399 18.1034C9.2993 17.6579 8.02177 17.225 6.59295 17.4142C6.79466 17.5066 6.99638 17.5949 7.2023 17.6873C7.17708 17.6453 7.14767 17.6033 7.12245 17.5612C6.65178 16.83 5.56336 17.6285 6.03403 18.3597C6.05924 18.4017 6.08866 18.4437 6.11387 18.4858C6.23574 18.6749 6.50049 18.7883 6.72322 18.7589C8.6017 18.511 10.6357 19.4859 12.4175 20.0407C13.737 20.4525 14.9978 21.2173 16.4014 20.7845C17.2292 20.5281 16.746 19.2674 15.9181 19.5238Z" fill="#333333"/>
<path d="M5.1305 14.8171C5.1179 14.775 5.10109 14.7288 5.08848 14.6868C4.99182 14.3926 4.68505 14.2455 4.39508 14.2539C2.23504 14.3128 0.755795 15.2919 0.726378 17.6033C0.696961 19.7045 1.85262 20.9904 3.97064 20.6962C4.85735 20.5744 5.84491 20.3264 6.41644 19.5784C6.96696 18.8556 7.20229 17.6747 7.13925 16.7838C6.98377 14.691 4.93719 13.9304 3.11335 14.4725C2.28127 14.7204 2.76455 15.9811 3.59242 15.7332C4.94139 15.3298 5.95838 16.0988 5.75246 17.515C5.56335 18.822 4.84054 19.2674 3.58402 19.3809C2.28547 19.4985 1.96609 18.5068 2.08376 17.3301C2.23084 15.8677 3.23522 15.6323 4.52115 15.5945C4.29002 15.4516 4.05889 15.3045 3.82776 15.1617C3.84036 15.2037 3.85717 15.2499 3.86978 15.2919C4.14294 16.1198 5.40366 15.6407 5.1305 14.8171Z" fill="#333333"/>
<path d="M22.9403 0.138056C21.1585 0.87768 20.94 3.22683 21.4401 4.86156C22.1041 7.0216 24.6339 7.79905 26.5712 6.57615C28.4581 5.38266 28.0168 2.1342 26.4325 0.873477C25.6173 0.226306 24.4322 -0.277983 23.39 -0.0468504C22.6378 0.121246 21.7595 0.659155 22.1671 1.54166C22.5285 2.32751 23.7934 1.85264 23.4278 1.06259C23.6716 1.59209 23.4152 1.11301 23.8396 1.23068C24.2389 1.33994 24.5751 1.39458 24.9533 1.57528C25.6047 1.89046 26.0123 2.28128 26.2644 2.97468C26.4662 3.5252 26.5502 4.227 26.3233 4.78592C25.9913 5.59699 25.1802 5.73987 24.3734 5.73146C23.1841 5.71465 22.7386 4.93721 22.5957 3.83618C22.4907 3.03772 22.5453 1.76859 23.4194 1.40718C24.2221 1.06679 23.743 -0.193935 22.9403 0.138056Z" fill="#333333"/>
<path d="M23.4781 18.3849C24.7556 18.4774 25.4952 16.8847 26.2096 16.0274C26.7349 15.397 27.2056 14.7288 27.6973 14.0732C28.0293 13.632 28.4369 13.2706 28.5294 12.7075C28.6722 11.8502 27.3401 11.6274 27.1972 12.4847C27.151 12.7663 26.7097 13.1361 26.5374 13.3756C26.2054 13.8295 25.8818 14.2876 25.5288 14.7288C25.2053 15.1365 24.8565 15.5273 24.5287 15.9307C24.4614 16.0148 23.7932 17.0612 23.6966 17.0528C22.8435 16.9939 22.6124 18.3261 23.4781 18.3849Z" fill="#333333"/>
<path d="M28.643 8.56809C27.1133 8.42941 27.1427 10.3835 27.231 11.4425C27.3948 13.4429 28.7354 14.8003 30.8114 14.3212C32.6353 13.9009 33.0891 12.0141 32.484 10.3961C32.1268 9.44639 31.4838 8.89588 30.5425 8.56389C29.4919 8.19407 29.0716 7.66037 27.9286 8.15625C27.1343 8.50085 27.6092 9.76578 28.4076 9.41698C28.8657 9.21946 28.9623 9.40017 29.3616 9.57667C29.8659 9.79939 30.4584 9.84562 30.8576 10.2617C31.4838 10.913 31.7107 12.4805 30.782 12.9344C29.5885 13.5185 28.7018 12.573 28.5883 11.4425C28.5631 11.1862 28.5463 10.9214 28.5505 10.6651C28.5547 10.3373 28.7396 9.92547 28.4202 9.89605C29.2817 9.9801 29.5087 8.64794 28.643 8.56809Z" fill="#333333"/>
<path d="M54.971 26.5376C55.0172 26.5208 55.0635 26.5082 55.1055 26.4914C55.7106 26.2812 56.2149 26.9662 55.7274 27.4453C53.996 29.1515 52.0461 30.6097 50.2979 32.2949C48.4909 34.0389 46.8562 36.0224 45.3181 38.006C43.7884 39.9769 42.41 42.0655 41.1115 44.1961C39.67 46.5579 38.0311 48.8902 36.8628 51.399C36.5519 52.063 35.4676 51.689 35.7786 51.0208C36.8964 48.617 38.4303 46.4234 39.7961 44.1541C41.2081 41.8133 42.6958 39.5146 44.3767 37.3546C45.8392 35.4719 47.3899 33.6144 49.0582 31.9167C50.9241 30.0172 53.0883 28.4413 54.9878 26.5754C55.1937 26.8948 55.4039 27.21 55.6098 27.5294C55.5635 27.5462 55.5173 27.5588 55.4753 27.5756C54.7819 27.8067 54.2734 26.7771 54.971 26.5376Z" fill="#333333"/>
<path d="M39.422 46.4024C39.4136 46.4318 39.4052 46.4612 39.3968 46.4864C39.0354 46.3604 38.674 46.2343 38.3126 46.1082C38.9388 44.2886 38.9009 42.1369 39.027 40.2248C39.1405 38.5019 39.1951 36.7705 39.1993 35.0433C39.2161 31.7948 38.5059 28.4497 38.7497 25.2264C38.8043 24.491 39.9515 24.5667 39.8969 25.3021C39.6322 28.7523 40.3844 32.3789 40.3382 35.8585C40.313 37.8337 40.2163 39.8088 40.0608 41.7755C39.9347 43.364 39.9179 44.9652 39.3968 46.4822C39.1573 47.184 38.0941 46.81 38.3126 46.104C38.321 46.0746 38.3294 46.0452 38.3378 46.02C38.5563 45.3182 39.6406 45.6964 39.422 46.4024Z" fill="#333333"/>
<path d="M56.7906 21.6796C58.5766 21.3518 60.0012 23.4152 59.7407 25.0667C59.6062 25.8988 59.5011 26.6637 58.7657 27.1764C58.0177 27.7017 57.0805 27.7353 56.2022 27.6638C55.3701 27.5924 54.5465 27.4201 54.122 26.6174C53.6766 25.7812 53.6388 24.7306 53.8867 23.827C54.2985 22.3268 55.9963 21.0703 57.5764 21.709C58.2572 21.9822 57.8832 23.0706 57.1982 22.7932C56.4081 22.4739 55.429 23.0496 55.1138 23.7766C54.9037 24.2599 54.8112 24.8818 54.9205 25.4029C55.0886 26.214 55.4962 26.4493 56.2779 26.5166C56.6855 26.5502 57.1268 26.5922 57.526 26.483C58.2278 26.2939 58.4085 25.903 58.5346 25.2475C58.7027 24.3776 58.2572 22.5747 57.0091 22.8059C56.2863 22.9361 56.0635 21.8099 56.7906 21.6796Z" fill="#333333"/>
<path d="M48.1674 32.9295C48.3061 31.5511 48.4069 30.2189 48.6549 28.8489C48.8566 27.7311 48.7978 26.4914 49.134 25.4155C49.3567 24.7095 50.4409 25.0878 50.2182 25.7938C49.8736 26.8864 49.924 28.248 49.7181 29.391C49.4996 30.6055 49.4365 31.7864 49.3147 33.0051C49.239 33.7405 48.0918 33.6649 48.1674 32.9295Z" fill="#333333"/>
<path d="M49.3776 20.8896C51.2981 20.3348 52.563 22.2091 52.2436 23.9615C51.9285 25.6971 50.2013 26.4031 48.6212 25.9282C47.0537 25.4576 46.2132 24.0077 46.7091 22.415C46.9528 21.6376 47.4697 21.0661 48.2598 20.8265C48.6422 20.713 48.9994 20.713 49.3902 20.8055C49.8273 20.9106 49.9996 21.1249 50.3568 21.314C50.1634 21.2972 49.9743 21.2846 49.781 21.2678C49.823 21.2384 49.8693 21.2131 49.9113 21.1837C49.8062 21.3938 49.7012 21.5998 49.5961 21.8099C49.5835 21.7468 49.5709 21.6796 49.5583 21.6166C49.4196 20.8895 50.5459 20.671 50.6845 21.398C50.6972 21.4611 50.7098 21.5283 50.7224 21.5914C50.7728 21.8645 50.6299 22.0788 50.4072 22.2175C50.3652 22.2469 50.3189 22.2721 50.2769 22.3016C50.0962 22.415 49.8693 22.3478 49.7012 22.2553C49.4196 22.104 49.3272 21.8897 48.9405 21.8771C48.4026 21.8561 47.9908 22.1965 47.8185 22.6882C47.5033 23.5917 47.8605 24.3944 48.7304 24.7516C49.4658 25.0541 50.445 25.0331 50.9073 24.2935C51.2267 23.785 51.1804 23.1631 50.9787 22.6209C50.756 22.0116 50.2013 21.8393 49.5961 22.0116C48.8859 22.2217 48.6758 21.0913 49.3776 20.8896Z" fill="#333333"/>
<path d="M46.3433 35.6148C47.104 35.8249 48.1335 35.1861 48.8311 34.9424C49.4825 34.7155 50.1423 34.5264 50.7895 34.291C51.9199 33.8792 52.9915 33.4842 54.2144 33.6102C54.0463 33.6943 53.874 33.7741 53.7059 33.8582C53.7269 33.8204 53.748 33.7867 53.7732 33.7489C54.1556 33.1186 55.1011 33.7699 54.7187 34.4003C54.6977 34.4381 54.6767 34.4717 54.6515 34.5096C54.5506 34.6735 54.3279 34.7743 54.143 34.7575C52.5419 34.5894 50.8357 35.4635 49.3354 35.9762C48.226 36.3544 47.1712 37.0352 45.9693 36.699C45.2549 36.4973 45.6331 35.4173 46.3433 35.6148Z" fill="#333333"/>
<path d="M55.3995 31.3662C55.4121 31.3283 55.4206 31.2905 55.4332 31.2569C55.5088 31.0048 55.7651 30.8745 56.0131 30.8745C57.8495 30.8745 59.1271 31.6729 59.2069 33.6355C59.2784 35.4173 58.3286 36.5393 56.5216 36.3376C55.7651 36.2536 54.9205 36.0687 54.4162 35.4425C53.9329 34.8416 53.7018 33.8414 53.7396 33.0849C53.8236 31.3031 55.5424 30.6097 57.1057 31.03C57.8201 31.2233 57.4377 32.3033 56.7275 32.1142C55.5718 31.8032 54.7272 32.4798 54.9331 33.6775C55.1222 34.7827 55.7483 35.1441 56.8158 35.2114C57.921 35.2828 58.1689 34.4297 58.0429 33.4337C57.8832 32.194 57.0259 32.0175 55.9332 32.0175C56.1266 31.8915 56.3199 31.7612 56.5132 31.6351C56.5006 31.6729 56.4922 31.7108 56.4796 31.7444C56.2694 32.4546 55.1852 32.0722 55.3995 31.3662Z" fill="#333333"/>
<path d="M39.9306 19.3052C41.4602 19.8936 41.704 21.8813 41.3131 23.2849C40.7962 25.134 38.6698 25.8526 36.9931 24.8566C35.3625 23.8859 35.6651 21.1165 36.9805 20.0113C37.657 19.4439 38.653 18.9859 39.5439 19.1582C40.1869 19.2842 40.9475 19.7213 40.6197 20.4819C40.3298 21.1585 39.2456 20.7845 39.5355 20.1037C39.338 20.5576 39.5481 20.1457 39.1909 20.255C38.8547 20.3558 38.5732 20.4105 38.2538 20.5744C37.7075 20.8559 37.3713 21.1963 37.1738 21.7931C37.0141 22.2679 36.9594 22.8647 37.1654 23.3312C37.4679 24.0119 38.1571 24.117 38.8421 24.0876C39.8507 24.0456 40.2121 23.3774 40.3088 22.436C40.3802 21.7553 40.3046 20.6794 39.5523 20.3895C38.8673 20.1247 39.2414 19.0405 39.9306 19.3052Z" fill="#333333"/>
<path d="M39.8927 34.8205C38.8085 34.9256 38.1445 33.5934 37.5184 32.879C37.0561 32.3537 36.6443 31.799 36.2072 31.2527C35.9172 30.8871 35.56 30.5845 35.4676 30.1096C35.3247 29.3826 36.4509 29.1641 36.5938 29.8911C36.6401 30.1307 37.0225 30.4332 37.1738 30.6307C37.4637 31.009 37.7537 31.3914 38.0605 31.757C38.3462 32.0974 38.6488 32.421 38.9346 32.7572C38.9934 32.8244 39.5859 33.6985 39.6658 33.6943C40.4012 33.6229 40.6281 34.7491 39.8927 34.8205Z" fill="#333333"/>
<path d="M35.2786 26.6006C36.5771 26.4451 36.5939 28.1093 36.5435 29.0128C36.4468 30.7148 35.3416 31.8999 33.5682 31.5427C32.0091 31.2275 31.5804 29.6348 32.0595 28.2438C32.3411 27.4285 32.8748 26.9452 33.6648 26.6426C34.5473 26.3065 34.8919 25.84 35.8753 26.235C36.5603 26.5082 36.1863 27.5924 35.4971 27.3192C35.1021 27.1637 35.0264 27.3192 34.6902 27.4789C34.2658 27.6806 33.7657 27.7353 33.4337 28.0925C32.9168 28.6598 32.7613 29.9962 33.5598 30.3618C34.5852 30.8324 35.3206 30.0088 35.3878 29.0464C35.4046 28.8279 35.413 28.6052 35.4046 28.3824C35.392 28.1009 35.2239 27.7605 35.4971 27.7269C34.7701 27.8109 34.5431 26.6847 35.2786 26.6006Z" fill="#333333"/>
</g>
<defs>
<clipPath id="clip0_15_1585">
<rect width="60" height="60" fill="white"/>
</clipPath>
</defs>
</svg>
