<svg width="39" height="60" viewBox="0 0 39 60" fill="none" xmlns="http://www.w3.org/2000/svg">
<g clip-path="url(#clip0_15_1797)">
<g opacity="0.8">
<path d="M30.0038 48.5773C33.7644 44.0023 34.9382 39.6996 36.3402 35.2018C37.1791 32.5186 38.0254 29.7729 38.0254 26.9609C38.0254 22.8017 36.0973 18.8561 33.264 16.1324C30.4306 13.4087 26.7657 11.8334 23.0051 11.1083C20.4956 10.6261 17.8204 10.5194 15.4213 11.5794C10.1778 13.9056 8.11351 20.678 6.69685 26.6112C6.13386 28.9705 5.57087 31.3335 5.00788 33.6928C4.42282 36.1478 3.83407 38.6322 3.85247 41.1498C3.90031 47.5983 8.36741 53.4983 14.1077 55.0405C19.8479 56.5827 26.394 53.8186 30.0038 48.5773Z" fill="#EACACA"/>
<path d="M29.2904 48.0841L29.2168 48.0988L29.2426 48.2939L29.2904 48.0841Z" fill="#EACACA"/>
<path d="M28.9591 49.03C28.9959 49.0227 29.018 49.0595 29.0548 49.0521L29.0843 48.3675C28.764 48.4337 29.1763 48.9822 28.9591 49.03Z" fill="#EACACA"/>
<path d="M28.8302 49.1367C28.6167 49.2471 28.6977 49.4312 28.7088 49.5085C28.6535 49.3613 29.0143 49.2251 28.8302 49.1367Z" fill="#EACACA"/>
<path d="M11.5801 53.4431C11.5985 53.4504 11.6243 53.4615 11.6463 53.4652C11.6169 53.4431 11.5948 53.4394 11.5801 53.4431Z" fill="#EACACA"/>
<path d="M7.26381 50.609L7.11662 50.6568C7.51403 50.9734 7.89303 51.3304 8.23892 51.739C8.42658 51.9267 8.61793 52.1181 8.80927 52.3021C8.90862 52.3941 9.00429 52.4861 9.10732 52.5671C9.21403 52.6444 9.32442 52.718 9.43481 52.7879L9.3465 52.7843C9.60775 52.9867 9.85429 53.2075 10.1339 53.3842C10.4099 53.5609 10.6822 53.7339 10.9582 53.8995C11.2489 54.043 11.5359 54.1829 11.8229 54.3228C12.1099 54.4589 12.419 54.551 12.7134 54.6651C13.9166 55.0699 15.1714 55.2724 16.4593 55.3129C16.4188 55.3276 16.4004 55.3681 16.3599 55.3828C16.4887 55.3386 16.6322 55.2503 16.772 55.2687C16.8052 55.3018 16.7316 55.3349 16.6837 55.346C17.2283 55.6331 18.2844 55.1951 18.6303 55.3423C18.7811 55.2981 18.8363 55.1914 18.7443 55.1251C19.7378 55.0074 20.7424 54.7276 21.7175 54.389C22.6816 54.0062 23.6125 53.5425 24.4331 52.9572C24.5324 52.9388 24.584 52.9867 24.5987 53.0713C25.8976 51.8825 27.3363 50.8666 28.5433 49.571C28.5101 49.4533 28.3446 49.6336 28.3777 49.4349C27.9324 49.7772 27.8699 50.3587 27.3768 50.5869L27.3547 50.4691C27.0493 50.6789 27.4798 50.7121 27.1045 50.8703C26.9353 50.9071 27.0493 50.7525 26.9904 50.793C26.4311 51.3451 25.7467 51.7721 25.261 52.372C24.9887 52.2874 24.5508 52.8358 24.1866 52.7806C24.0504 52.9499 23.8627 53.0272 23.8591 53.1891C22.6117 53.7743 21.3127 54.2676 19.9513 54.5767C18.5935 54.8822 17.1694 54.9963 15.7749 54.8049C15.6056 54.8344 15.4326 54.8528 15.256 54.8528C15.0831 54.8417 14.9065 54.816 14.7262 54.7865C14.5495 54.7534 14.3692 54.7166 14.1889 54.6687C14.0123 54.6062 13.8357 54.5362 13.6591 54.4663C13.4824 54.3927 13.3021 54.3301 13.1292 54.2455C12.9562 54.1571 12.7833 54.0688 12.6104 53.9805C12.2534 53.8259 11.9186 53.6234 11.5543 53.4689C11.5506 53.4505 11.5616 53.4394 11.5764 53.432C11.3225 53.3658 11.0391 53.2222 10.7521 53.0566C10.6086 52.9756 10.4651 52.8873 10.329 52.7953C10.1965 52.6959 10.0751 52.5892 9.961 52.4861L9.43849 52.3021C8.11013 50.9697 6.9584 49.479 6.04952 47.8338C5.15905 46.1812 4.56662 44.3445 4.43416 42.4748C4.25385 40.351 4.65494 38.3561 5.0781 36.3906C5.51965 34.4178 5.96489 32.4155 6.18935 30.266C6.22615 30.2808 6.25559 30.2513 6.24823 30.3654C6.45429 29.1434 6.85905 28.0797 7.04671 26.924L7.08719 26.9387C7.25645 25.4959 7.63546 24.0421 8.07334 22.625C8.5149 21.208 9.01165 19.8351 9.41641 18.499C10.1376 16.9789 11.0281 15.3962 12.2497 14.0528C13.4714 12.7241 15.0279 11.6309 16.761 11.1377L16.7757 11.2187C18.1335 10.766 19.5833 10.7807 20.9632 10.9721C22.3504 11.1672 23.7045 11.5279 25.0881 11.8444C26.4606 12.3376 27.8956 12.7682 29.2829 13.3866C30.6627 13.9976 32.0021 14.8036 33.0104 15.9115C33.5476 16.6771 34.335 17.3654 35.0489 18.153C35.7627 18.9296 36.3956 19.7983 36.5833 20.6743C37.069 22.4115 37.4775 24.0568 37.6982 25.7609C37.9337 27.4577 37.919 29.2244 37.7093 31.0095C37.242 32.5922 36.8188 34.1749 36.3956 35.7428C35.9725 37.3071 35.5199 38.8714 34.7545 40.2848C34.6257 41.0393 34.2504 41.7533 33.8052 42.4453C33.3636 43.141 32.8705 43.8145 32.4989 44.5543L32.6166 44.5506C32.0684 44.915 32.3039 45.9235 31.7151 46.0008L31.7335 45.9382C31.3656 46.0707 31.7777 46.8547 31.4392 46.8621L31.5054 46.9688C31.3067 47.3038 31.3729 46.932 31.1595 47.1455C31.1043 47.2449 31.303 47.3001 31.1117 47.4547C30.9056 47.3369 30.7915 47.543 30.6664 47.7418C30.5376 47.9368 30.4015 48.1246 30.1881 47.97C30.3169 47.808 29.8275 48.0988 30.0298 47.6645C29.9047 47.7344 29.5331 48.246 29.7428 48.3454C29.89 48.5368 29.89 48.8644 30.2801 48.6766L30.1954 48.5037C30.4125 48.5073 30.3242 48.4779 30.4567 48.5221C30.7915 48.1282 31.0417 48.235 31.3472 47.992C31.3398 47.992 31.3361 47.992 31.3324 47.981C31.3177 47.6497 31.6231 47.4363 31.7703 47.289L31.8954 47.278C32.1309 47.289 31.9028 46.5603 32.1015 46.8879C32.6314 45.9566 33.2606 44.9113 33.7905 43.844C33.75 43.6378 34.1952 43.0305 33.8567 43.1557C34.2504 43.0158 34.6736 42.2318 34.7913 41.9263C34.8097 41.9484 34.8355 41.9742 34.806 42.0147C35.3948 41.562 34.7729 41.1902 35.4095 40.7964C35.1446 40.5976 35.8805 39.8136 35.6303 39.372C35.7223 39.3278 35.7922 39.3241 35.8363 39.3683C36.1896 38.3635 36.6495 37.2777 36.9255 36.4311C36.8777 35.6214 37.5989 34.7123 37.4149 33.9614C37.6504 33.4645 38.0589 32.6511 38.0956 31.8561L38.1251 31.9407C38.3238 31.0905 38.5151 29.9974 38.3569 29.3643C38.7653 29.1618 38.7433 28.7643 38.8941 28.3889C38.8353 28.0834 38.8389 27.6307 38.8132 27.1338C38.7874 26.6406 38.7433 26.1069 38.6182 25.6615C38.7874 25.5033 38.4636 24.9254 38.6991 24.8444C38.2833 23.6041 37.8234 22.2753 37.2751 20.954C36.7305 19.6326 36.0792 18.3223 35.369 17.1335L35.4095 17.1519C35.0746 16.9605 34.5889 16.8427 34.2173 16.7065C34.2099 16.666 34.243 16.6403 34.2909 16.6955C34.1143 16.5299 33.9892 16.3237 33.8567 16.125C33.7279 15.9225 33.5954 15.7164 33.3967 15.5692C33.4262 15.5398 33.4262 15.5398 33.5145 15.5655C33.106 15.3336 32.9368 14.7742 32.3848 14.5865L32.4032 14.5165L32.0721 14.3804C32.1272 14.3178 32.2156 14.2295 32.3443 14.362C30.6848 13.0259 28.7015 12.0873 26.6556 11.4653C25.629 11.1524 24.584 10.9132 23.5353 10.7218C22.4865 10.5304 21.4231 10.3869 20.3487 10.3206L20.5106 10.2507C20.2272 10.2801 19.9476 10.3243 19.6716 10.3648C19.6753 10.3243 19.7158 10.3022 19.7562 10.2838C18.6781 10.1366 17.5705 10.4899 16.5623 10.7402C16.5549 10.6997 16.6911 10.5782 16.5329 10.5746C16.1833 10.788 15.8668 10.8248 15.5982 10.8801C15.3333 10.9389 15.1199 11.0162 15.0463 11.3217C15.0058 11.3181 14.9359 11.2334 14.9911 11.1635C14.7556 11.3033 14.5164 11.4432 14.2809 11.5867C14.0528 11.7413 13.8357 11.9106 13.6112 12.0689C13.3794 12.2198 13.177 12.4038 12.971 12.5842C12.7686 12.7682 12.5441 12.9302 12.3601 13.1326C11.5616 13.8871 10.892 14.7521 10.2627 15.6244C9.96836 16.4967 9.51944 17.3102 9.13676 18.1714C8.732 19.0217 8.38611 19.9087 8.23524 20.8178L8.15797 20.781C7.91511 21.9441 7.55818 23.0925 7.20862 24.2629C6.86273 25.4333 6.51316 26.6148 6.26295 27.8037C5.99433 28.7791 5.93546 29.4637 5.70364 30.4501H5.59325C5.59325 32.2057 4.39736 33.851 4.44152 35.695L4.32745 35.5441C4.48199 35.8606 4.02571 36.5857 4.42312 36.56L4.25017 36.847C4.38632 37.4875 4.23913 38.0138 4.08459 38.5806C3.93004 39.1474 3.76814 39.7658 3.90796 40.513L3.81965 40.4136C3.87117 40.8111 3.93372 41.2675 3.87117 41.562C3.85645 41.5178 3.83069 41.5399 3.80126 41.4442C3.73134 41.757 3.69455 42.0809 3.70926 42.4085C3.7387 42.7361 3.79758 43.0637 3.87117 43.3912C4.04779 44.039 4.27225 44.6795 4.47463 45.2978L4.26857 45.2058C4.45255 45.4855 4.58134 45.9125 4.75797 46.3542C4.8426 46.575 4.91619 46.8106 5.01186 47.024C5.11489 47.2375 5.21792 47.4436 5.32831 47.6203L5.23632 47.6093L5.51965 47.9405L5.38351 48.0252C5.5123 48.2644 5.65948 48.4926 5.80299 48.7171L6.02009 49.0521L6.26295 49.3649L6.74866 49.9833C6.9216 50.2115 7.09455 50.4066 7.26381 50.609Z" fill="#EACACA"/>
<path d="M16.6836 55.3497C16.6799 55.3497 16.6762 55.346 16.6725 55.346C16.6431 55.357 16.6578 55.357 16.6836 55.3497Z" fill="#EACACA"/>
<path d="M31.4466 47.9147C31.4098 47.9516 31.3767 47.9773 31.3398 48.0068C31.373 48.0178 31.4171 47.9442 31.4466 47.9147Z" fill="#EACACA"/>
</g>
<path d="M19.8189 21.8005C19.8741 21.5871 19.9514 21.3699 20.0139 21.1454C20.323 20.067 20.3451 18.9628 20.1795 17.8549C20.0029 16.6476 19.5061 15.5655 19.083 14.4356C18.9799 14.1595 18.8254 13.5706 18.6157 13.0995C18.0122 14.5129 17.6332 15.9005 17.8724 17.5052C18.0159 18.4438 18.807 20.8583 19.8189 21.8005Z" fill="#878E6F"/>
<path d="M23.8515 24.9806C23.2554 25.2456 22.6593 25.5364 22.1073 25.8824C21.9233 26.0002 19.2813 28.3595 19.5463 28.4846C19.7891 28.5987 19.6714 28.7165 19.4653 28.7864C20.0026 28.952 20.3852 29.0441 21.0476 28.9005C21.9822 28.6981 22.5746 28.3079 23.1597 27.5755C23.9067 26.6406 24.5249 25.5143 25.0842 24.4396C24.6426 24.5757 24.1643 24.8444 23.8515 24.9806Z" fill="#878E6F"/>
<path d="M6.28474 46.6302C5.88734 46.9541 4.00703 48.949 4.08799 49.814C4.67673 49.7514 5.34643 49.56 5.88366 49.4827C6.86613 49.3428 7.94794 49.1036 8.82738 48.6177C9.52284 48.235 10.2109 47.5982 10.7629 47.0314C11.2596 46.5198 11.5099 45.9971 11.7858 45.4193C9.9092 44.7972 7.7934 45.4009 6.28474 46.6302Z" fill="#878E6F"/>
<path d="M13.8759 38.5033C13.7949 37.9512 12.9743 35.0987 12.128 34.7233C11.8668 35.3232 11.6791 36.0667 11.4546 36.6262C11.0499 37.6457 10.6819 38.8125 10.6525 39.913C10.6304 40.7816 10.8401 41.7791 11.0646 42.6072C11.267 43.3507 11.6129 43.866 11.9956 44.4329C13.5962 42.9496 14.1886 40.5976 13.8759 38.5033Z" fill="#878E6F"/>
<path d="M29.3049 31.4475C27.7631 31.7015 25.4854 32.4193 24.7569 34.05C24.7569 34.0537 24.7532 34.0574 24.7495 34.061C25.3567 34.1899 26.2287 34.7972 26.6629 34.904C27.5681 35.1285 28.661 35.1248 29.5478 34.8377C30.5119 34.5248 31.2551 33.7187 31.9396 32.9972C32.3774 32.5371 33.1465 31.8377 33.4445 31.1678C32.072 31.2893 30.6811 31.2193 29.3049 31.4475Z" fill="#878E6F"/>
<path d="M12.4926 44.7163C12.3601 44.7089 12.1136 44.7494 12.0437 44.8856C12.0326 44.904 12.0253 44.9224 12.0179 44.9408C11.856 44.8929 11.6868 44.8524 11.5212 44.8156C11.5175 44.8377 11.5138 44.8635 11.5101 44.8856C11.4623 45.1911 12.1688 45.1138 12.3049 45.0512C12.4705 44.9739 12.6214 44.8709 12.7612 44.7457C12.7097 44.731 12.6508 44.7199 12.5809 44.7163C12.5515 44.7199 12.522 44.7199 12.4926 44.7163Z" fill="#878E6F"/>
<path d="M7.15704 30.1998C7.00249 30.3544 6.16353 30.3728 6.30704 30.0194C6.7302 28.9778 7.14232 28.0392 7.01353 26.8909C7.01721 25.9118 6.38063 25.6763 5.11115 26.1805C5.02652 26.4382 4.94189 26.6995 4.86093 26.9571C4.7947 27.2516 4.73951 27.5828 4.76158 27.8883C4.99708 28.1681 5.18107 28.4883 5.27306 28.8379C5.35769 29.1655 4.52977 29.0404 4.40466 28.9557C4.09557 28.7386 3.9263 28.422 3.85639 28.065C3.72392 27.9619 3.56202 27.8662 3.36699 27.7521C2.91072 27.2185 2.49492 27.2737 2.11959 27.9141C1.62652 28.0282 1.4131 28.2711 1.47933 28.6429C1.3395 29.4342 2.11591 30.0194 2.88496 30.3065C3.19773 30.3028 3.52154 30.3728 3.85271 30.5531C4.29059 30.7924 3.58777 30.958 3.40011 30.9396C3.1315 30.9138 2.84816 30.8623 2.56483 30.7887C1.71851 31.0463 1.40942 32.9308 1.60076 33.5639C1.65595 33.9209 1.82522 34.2264 2.10855 34.4767C2.67522 34.3552 3.24557 34.2374 3.81223 34.116C4.02197 33.9798 4.18756 33.7258 4.32738 33.4461C4.22067 32.8094 4.25011 32.1211 4.90877 31.9407C5.23626 31.8524 5.96115 32.1836 5.37609 32.3419C5.34665 32.3493 5.32089 32.364 5.29881 32.3861C5.47912 32.4155 5.61894 32.4891 5.58951 32.5996C5.58215 32.6216 5.57847 32.6437 5.57111 32.6658V32.6695C5.4828 32.9271 5.37977 33.1774 5.25466 33.4167C5.35401 33.9835 5.54903 34.5871 5.61894 34.7049C6.41743 36.0778 8.06592 35.7649 8.10639 34.381C8.11007 34.2632 8.06224 33.8105 7.98128 33.4756C7.69059 33.4167 7.40726 33.2694 7.14968 33.0155C7.00617 32.8719 7.1644 32.7357 7.31526 32.6989C7.86721 32.5628 8.28302 32.6953 8.57003 32.9676C9.0815 32.7541 9.39795 31.6573 9.2986 31.2745C9.21029 30.9469 7.80466 29.5593 7.15704 30.1998Z" fill="#D69E9F"/>
<path d="M34.3202 19.0474C33.7793 19.3713 32.9588 19.7431 32.5135 19.1321C32.4915 19.0916 32.4915 19.0511 32.5135 19.0069C32.7821 18.4438 33.4445 18.2782 34.1473 18.3812C34.5557 17.8512 34.7508 17.0856 34.6551 16.5667C34.5042 15.7606 34.0185 14.6748 32.7858 15.1238C32.0425 15.3925 31.796 16.1986 31.6598 16.8758C31.5936 17.1961 30.7731 17.2071 30.7289 16.8758C30.6038 15.952 29.7427 14.8515 28.775 15.8011C28.028 16.5335 28.3334 17.542 29.1614 18.0242C29.5845 18.2708 28.9075 18.4364 28.7088 18.4107C27.1228 18.2156 26.6408 20.4056 27.3142 21.5171C28.5101 23.4863 29.4815 21.3257 30.5265 21.1564C30.5486 21.0975 30.5707 21.0386 30.5927 20.9834C30.6737 20.7994 31.0085 20.8068 31.1668 20.8215C31.1962 20.8252 31.2257 20.8252 31.2551 20.8289C31.612 20.8583 31.6194 21.0129 31.4832 21.1307C31.2109 21.7748 31.3765 22.4815 31.5311 23.1329C31.5899 23.6666 31.807 24.1194 32.186 24.4948C33.2311 24.7561 33.9412 24.4727 34.3239 23.6409C34.5116 23.2912 34.5889 22.9231 34.5557 22.5367C34.3791 22.4263 34.2393 22.3232 34.1289 22.2312C33.9486 22.2312 33.7683 22.2201 33.599 22.1797C33.0912 22.0656 32.5614 21.7196 33.1795 21.3221C33.4629 21.138 34.0185 21.2484 34.4858 21.4398C34.6477 21.4067 34.8354 21.3773 35.0599 21.3589C35.4094 21.0129 35.5566 20.6191 35.4977 20.1737C35.2254 19.4854 34.8317 19.1137 34.3202 19.0474Z" fill="#D69E9F"/>
<path d="M25.798 7.8068C25.8569 7.62644 26.2322 7.62644 26.372 7.64485C26.4015 7.64853 26.4309 7.65221 26.4603 7.65589C26.8173 7.70374 26.8246 7.862 26.6848 7.9761C26.6774 8.00555 26.6701 8.03868 26.6664 8.06812C26.7179 8.11229 26.74 8.17118 26.7032 8.24111C26.6811 8.28896 26.648 8.33681 26.6223 8.38098C26.5744 9.10606 26.8394 10.0262 27.2147 10.4826C27.9543 11.3844 29.6543 10.8949 30.0848 9.86428C30.3093 9.3269 30.5742 7.71846 29.2017 7.94666C28.8963 7.99819 28.3002 7.67061 28.8448 7.5197C30.0075 7.20317 31.1961 7.05962 31.6707 5.76404C32.3588 3.90163 30.1106 3.44523 29.3305 4.84755C29.1906 5.10152 28.3223 5.08312 28.4326 4.72241C28.6608 3.98996 28.9036 3.25015 28.5982 2.50298C28.1971 1.51657 27.8844 1.45768 26.843 1.57178C25.7428 1.68956 25.5846 1.75213 25.5184 2.80111C25.4963 3.16182 25.5699 3.48571 25.5257 3.8501C25.4852 4.20344 24.7677 4.10774 24.6132 3.90899C23.6896 2.73854 21.2941 3.49307 22.0411 5.00582C22.0705 5.06103 22.5194 5.56528 22.9536 5.81556C23.34 5.70514 23.7705 5.70146 24.1348 5.75667C24.2967 5.78244 24.5984 5.90022 24.4108 6.09897C24.1458 6.3787 23.7043 6.40815 23.2701 6.35294C22.1331 7.28782 23.7043 11.9549 25.6766 8.34785C25.7023 8.17486 25.7391 7.99451 25.798 7.8068Z" fill="#D69E9F"/>
<path d="M25.706 8.41034C23.5681 12.4811 21.9454 16.7765 20.5287 21.1417C19.1452 25.3965 18.0597 29.6514 17.5924 34.1123C17.1214 38.6285 17.3201 43.1115 17.4084 47.635C17.4525 49.9133 17.4673 52.1917 17.4857 54.47C17.493 55.6294 17.5041 56.7667 17.3753 57.9224C17.2759 58.8168 17.0883 59.6045 17.4231 60.4584C17.5298 60.7345 18.1811 60.6645 18.3209 60.4584C18.3614 60.3995 18.4019 60.3406 18.4387 60.2817C18.619 60.0167 17.7212 59.8916 17.5409 60.1566C17.5004 60.2155 17.4599 60.2744 17.4231 60.3333C17.7212 60.3333 18.0192 60.3333 18.3209 60.3333C17.8941 59.2401 18.3541 57.9408 18.4166 56.8182C18.4718 55.8429 18.4203 54.8528 18.4129 53.8774C18.3945 51.6985 18.3798 49.5158 18.3357 47.3369C18.2437 42.9091 18.0634 38.5254 18.5233 34.1086C18.9943 29.5925 20.1093 25.2824 21.5186 20.9761C22.9132 16.7065 24.5101 12.5106 26.6039 8.52812C26.7584 8.22999 25.8495 8.13061 25.706 8.41034Z" fill="#333333"/>
<path d="M18.1664 39.7253C21.169 37.6862 23.7006 35.176 25.6913 32.1358C26.8173 30.4169 28.0536 28.7496 29.0361 26.9424C30.0002 25.1683 30.6478 23.2691 31.1814 21.3257C31.2807 20.9687 30.3645 20.9172 30.2835 21.2006C29.2127 25.0984 27.2956 28.1865 25.0989 31.5322C23.0125 34.7159 20.514 37.3439 17.3606 39.486C17.0404 39.7069 17.9236 39.8909 18.1664 39.7253Z" fill="#333333"/>
<path d="M18.5161 48.2166C16.4297 47.6902 14.8328 46.9467 13.2137 45.5039C11.8191 44.2635 10.6674 42.8318 9.51198 41.3742C8.56263 40.178 7.51761 39.0591 6.82951 37.6825C6.09726 36.2103 5.19943 34.6681 5.56739 32.9823C5.62995 32.7026 4.71003 32.6437 4.63644 32.9823C4.26479 34.6828 5.11847 36.0888 5.82865 37.5832C6.66761 39.3499 8.05116 40.8 9.25073 42.3238C10.3804 43.7519 11.6094 45.1138 13.0224 46.2695C14.5973 47.554 16.0875 48.1282 18.0414 48.6214C18.3726 48.7024 19.1012 48.3638 18.5161 48.2166Z" fill="#333333"/>
<path d="M25.8568 8.23735C23.557 12.8234 21.7209 5.98847 23.936 6.33077C23.844 6.21667 23.7521 6.10257 23.6601 5.98847C23.2443 6.42647 22.1367 5.22289 22.0925 5.13088C21.3456 3.61813 23.741 2.8636 24.6646 4.03404C24.8192 4.2328 25.5367 4.3285 25.5772 3.97515C25.6213 3.61077 25.5477 3.28687 25.5698 2.92617C25.636 1.87718 25.7943 1.81461 26.8945 1.69683C27.9358 1.58641 28.2486 1.64162 28.6497 2.62804C28.9551 3.37521 28.7122 4.11502 28.4841 4.84747C28.37 5.20817 29.2384 5.22657 29.3819 4.97261C30.162 3.5666 32.4103 4.02668 31.7222 5.88909C31.2438 7.18468 30.059 7.32823 28.8962 7.64476C28.3553 7.79199 28.9477 8.12325 29.2531 8.07172C30.6257 7.83984 30.3644 9.44828 30.1363 9.98933C29.7057 11.0199 28.0057 11.5094 27.2661 10.6077C26.8062 10.0482 26.5081 8.79312 26.7473 8.05331C26.556 8.10852 26.3646 8.16005 26.1733 8.21526C26.2027 8.21894 26.2321 8.22262 26.2616 8.2263C26.6958 8.28151 27.1337 7.85824 26.5081 7.77726C26.4787 7.77358 26.4492 7.7699 26.4198 7.76622C26.28 7.74782 25.9047 7.74782 25.8458 7.92817C25.062 10.339 27.4464 12.459 29.7462 11.4542C30.7471 11.0162 31.575 9.61759 31.1776 8.51339C30.8575 7.62268 29.8198 7.48281 28.9992 7.62268C29.117 7.76622 29.2384 7.90609 29.3562 8.04963C30.3718 7.77358 31.391 7.69261 32.1417 6.86078C32.7893 6.14306 33.0763 5.0131 32.4287 4.20335C31.4021 2.92249 29.1869 3.5666 28.4767 4.84747C28.7748 4.88795 29.0728 4.93212 29.3746 4.97261C29.7573 3.74327 29.9339 2.78262 29.0508 1.70787C28.6018 1.16314 28.0057 0.743544 27.2956 0.658889C26.6222 0.577914 25.8642 0.758266 25.3527 1.22203C24.5248 1.97288 24.7603 2.98138 24.6425 3.97147C24.9479 3.95307 25.2534 3.93099 25.5551 3.91258C24.8412 3.00714 24.2414 2.48817 22.9904 2.60963C22.0668 2.70165 21.0622 3.13965 20.9739 4.18127C20.8856 5.20449 21.5295 5.97007 22.4384 6.2682C22.983 6.44855 23.9949 6.70988 24.4549 6.22035C24.6425 6.02159 24.3408 5.90381 24.1789 5.87805C23.5055 5.77499 22.6003 5.86701 22.1661 6.48168C21.6289 7.24725 21.8938 8.95139 22.5267 9.60287C23.7925 10.9058 26.0886 9.66912 26.7473 8.36249C26.9092 8.05331 26.0003 7.95394 25.8568 8.23735Z" fill="#333333"/>
<path d="M30.6553 21.2668C29.5808 21.3441 28.5947 23.6519 27.373 21.6386C26.6996 20.527 27.1817 18.3371 28.7676 18.5321C28.9663 18.5579 29.647 18.3923 29.2202 18.1457C28.3923 17.6635 28.0869 16.655 28.8338 15.9225C29.7979 14.9729 30.6626 16.0735 30.7877 16.9973C30.8319 17.3286 31.6525 17.3175 31.7187 16.9973C31.8548 16.3201 32.1014 15.514 32.8447 15.2453C34.0774 14.7963 34.5631 15.8784 34.7139 16.6881C34.8758 17.5531 34.2209 19.1174 33.1243 19.1026C33.2752 19.1615 33.4224 19.2167 33.5732 19.2756C34.4968 18.9407 35.1592 19.2793 35.5529 20.2952C35.6118 20.7405 35.4646 21.138 35.115 21.4803C33.7131 21.6055 33.5438 21.9993 34.6072 22.6581C34.6403 23.0446 34.5631 23.4127 34.3754 23.7623C33.9964 24.5942 33.2825 24.8776 32.2375 24.6162C31.8585 24.2408 31.6414 23.7881 31.5825 23.2544C31.428 22.5956 31.2587 21.8815 31.5457 21.23C31.3544 21.2853 31.1631 21.3368 30.9717 21.392C31.0012 21.3957 31.0306 21.3957 31.06 21.3994C31.4906 21.4362 31.9358 21.0055 31.3066 20.9503C31.2771 20.9466 31.2477 20.9466 31.2183 20.943C31.06 20.9282 30.7252 20.9209 30.6442 21.1049C29.6544 23.3575 31.9432 26.6222 34.3607 24.9144C35.1518 24.3549 36.0423 22.9231 35.2622 22.0103C34.9458 21.6423 33.7057 21.1343 33.2274 21.4435C32.6092 21.841 33.1354 22.187 33.6468 22.3011C34.644 22.5256 35.9834 22.0803 36.3771 21.0681C37.1609 19.0585 33.312 17.5494 32.5613 19.1247C32.5393 19.1652 32.5393 19.2057 32.5613 19.2499C33.025 19.8866 33.8934 19.4597 34.4306 19.1284C35.5787 18.4217 35.954 17.3506 35.4609 16.0735C35.0672 15.0539 34.2061 14.454 33.0986 14.6086C31.7371 14.7999 31.0343 15.7385 30.7767 16.9973C31.0858 16.9973 31.3949 16.9973 31.7077 16.9973C31.52 15.5802 30.5007 14.5202 29.0436 14.9877C27.3178 15.5434 26.994 17.5641 28.5542 18.4732C28.7051 18.3444 28.8559 18.2156 29.0068 18.0868C26.9719 17.8365 25.6583 19.3676 26.3317 21.4178C26.6113 22.2606 27.2516 22.7538 28.1274 22.8348C28.6094 22.8827 29.0546 22.8017 29.4999 22.6324C29.8715 22.4888 30.2432 22.2717 30.5743 22.0508C30.6737 21.9809 30.8025 21.7232 30.8981 21.7159C31.5274 21.6717 31.0858 21.2374 30.6553 21.2668Z" fill="#333333"/>
<path d="M5.6189 32.7836C5.62626 32.7615 5.62993 32.7394 5.63729 32.7173C5.70721 32.4523 4.81305 32.3898 4.72474 32.6548C4.56283 33.1369 4.30158 33.943 3.8637 34.2301C3.29703 34.3516 2.72669 34.4693 2.16002 34.5908C1.87669 34.3405 1.70742 34.0387 1.65223 33.678C1.42041 32.9087 1.93188 30.2734 3.24552 30.9948C3.39638 30.866 3.54725 30.7372 3.69812 30.6083C2.82236 30.52 1.33946 29.8244 1.5308 28.757C1.46456 28.3852 1.67799 28.1423 2.17106 28.0282C2.54638 27.3878 2.96218 27.3362 3.41846 27.8663C3.95201 28.1865 4.23167 28.3374 4.38989 28.9557C4.68058 28.9152 4.9676 28.8784 5.25829 28.8379C4.66587 28.4257 4.77625 27.6749 4.90872 27.0749C4.99335 26.8173 5.07799 26.5559 5.15894 26.2983C6.4321 25.7904 7.065 26.0296 7.06132 27.0087C7.19011 28.157 6.77799 29.0956 6.35483 30.1372C6.21132 30.4906 7.05028 30.4722 7.20483 30.3176C7.84877 29.6771 9.25808 31.0647 9.34271 31.3923C9.47885 31.9113 8.84964 33.7553 7.99595 32.8977C7.94076 33.0044 7.88556 33.1112 7.83037 33.2142C8.01435 33.1701 8.15418 34.3037 8.1505 34.4988C8.11002 35.8864 6.46154 36.1956 5.66305 34.8227C5.53058 34.5945 4.94184 32.5922 5.42387 32.456C6.00526 32.2941 5.28037 31.9628 4.95656 32.0548C4.03296 32.3088 4.34942 33.5639 4.53708 34.2706C4.92712 35.7244 6.06046 36.5047 7.56176 36.306C9.6518 36.0263 9.58924 32.272 7.36673 32.813C7.21587 32.8499 7.05396 32.986 7.20115 33.1296C8.51478 34.4509 10.6306 32.894 10.2369 31.2267C9.93881 29.9642 7.36305 29.1324 6.41002 30.0783C6.69335 30.1372 6.97669 30.1998 7.26002 30.2587C7.85981 28.7754 8.94163 25.4591 6.30331 25.2935C5.4202 25.2383 4.56651 25.5622 4.19119 26.3793C3.81586 27.189 3.6282 28.4956 4.4598 29.0735C4.58123 29.1582 5.41284 29.2833 5.3282 28.9557C4.9124 27.3546 2.69725 26.3461 1.26954 27.3841C0.489456 27.9509 0.445301 28.9962 0.916297 29.7876C1.42041 30.6341 2.53166 30.958 3.45526 31.05C3.64292 31.0684 4.34573 30.9028 3.90786 30.6635C1.87301 29.552 -0.0440944 32.3014 0.853742 34.1418C1.2585 34.9699 2.04595 35.3711 2.94379 35.2901C4.34574 35.1723 5.19942 34.0313 5.6189 32.7836C5.31716 32.7578 5.01175 32.7394 4.70634 32.7173C4.69898 32.7394 4.6953 32.7615 4.68794 32.7836C4.61803 33.0523 5.53058 33.1222 5.6189 32.7836Z" fill="#333333"/>
<path d="M11.819 43.8182C9.99017 40.5718 12.2016 37.1047 12.5218 33.8179C12.2164 33.8363 11.9146 33.8583 11.6092 33.8767C12.8382 35.6766 13.4306 37.5316 13.3055 39.7032C13.2283 41.0246 13.0332 44.0832 11.6497 44.7236C11.9146 44.7788 12.1796 44.834 12.4445 44.8893C12.4555 44.823 12.4666 44.7567 12.4776 44.6905C12.5255 44.396 11.6019 44.3519 11.5467 44.6905C11.5356 44.7567 11.5246 44.823 11.5135 44.8893C11.4657 45.1947 12.1722 45.1174 12.3084 45.0549C13.7729 44.3776 14.0746 41.7975 14.2181 40.4062C14.4793 37.9365 13.9053 35.798 12.5071 33.7516C12.3635 33.5418 11.6276 33.4682 11.5945 33.8105C11.2707 37.1562 9.0629 40.6344 10.9248 43.936C11.0757 44.212 11.9845 44.1126 11.819 43.8182Z" fill="#333333"/>
<path d="M19.6382 22.3122C19.6529 22.3453 19.6676 22.3784 19.6823 22.4115C19.9105 22.3232 20.1386 22.2385 20.3667 22.1502C19.1083 21.7564 18.0412 18.6094 17.8793 17.5052C17.596 15.6244 18.1663 14.0381 18.9574 12.3597C18.6999 12.3928 18.4386 12.4259 18.181 12.4627C18.6189 12.7277 18.9243 13.9902 19.0936 14.4392C19.5131 15.5692 20.0098 16.6476 20.1901 17.8586C20.352 18.9664 20.3299 20.0706 20.0245 21.1491C19.8737 21.6754 19.6308 22.1576 19.8663 22.6949C19.9914 22.9747 20.9076 22.8974 20.7641 22.5735C20.4698 21.9036 21.1873 20.3099 21.2167 19.5627C21.2572 18.5468 21.1211 17.5273 20.8377 16.5519C20.536 15.5214 20.0797 14.4981 19.6786 13.5007C19.4763 12.9964 19.3291 12.4296 18.8434 12.1388C18.6667 12.0321 18.1737 12.0137 18.067 12.2419C17.1434 14.2074 16.5141 16.1213 17.1176 18.3039C17.4856 19.64 18.446 22.1024 19.9068 22.5551C20.0613 22.6029 20.7237 22.5992 20.5912 22.2937C20.5765 22.2606 20.5618 22.2275 20.547 22.1944C20.4146 21.9073 19.4983 21.9846 19.6382 22.3122Z" fill="#333333"/>
<path d="M19.5462 28.4883C19.2812 28.3631 21.9232 26.0002 22.1072 25.8861C22.6555 25.5364 23.2552 25.2456 23.8514 24.9843C24.2929 24.7892 25.0693 24.3255 25.5992 24.3733C25.4925 24.2776 25.3821 24.1819 25.2754 24.0862C24.6719 25.264 23.9912 26.5449 23.1633 27.5828C22.5782 28.3153 21.9858 28.7054 21.0511 28.9079C20.2747 29.0772 19.8847 28.9226 19.1745 28.7018C18.847 28.5987 18.1258 28.9226 18.7035 29.1029C20.0944 29.5373 21.4117 29.6624 22.7622 28.9152C24.3812 28.0208 25.371 25.7683 26.1695 24.215C26.2615 24.0384 25.9635 23.939 25.8457 23.928C24.4291 23.8028 22.7475 24.7855 21.581 25.4701C20.6243 26.0333 18.7366 27.3767 18.6741 28.6208C18.6704 28.6944 18.755 28.7606 18.8102 28.7864C18.836 28.7975 18.8617 28.8122 18.8875 28.8232C19.1524 28.941 20.0098 28.7091 19.5462 28.4883Z" fill="#333333"/>
<path d="M24.7566 34.0497C25.4852 32.4192 27.7592 31.7052 29.3047 31.4475C30.9127 31.1825 32.5428 31.3261 34.1398 31.0868C33.9447 31.0132 33.746 30.9359 33.551 30.8623C33.3965 31.6168 32.4471 32.4634 31.943 32.9971C31.2586 33.7185 30.5153 34.5245 29.5512 34.8374C28.6644 35.1245 27.5716 35.1282 26.6664 34.9036C26.1144 34.7675 24.8744 33.8363 24.3408 34.0718C24.8081 33.862 23.9508 33.6228 23.6822 33.7406C23.6454 33.759 23.6086 33.7737 23.5681 33.7921C23.3841 33.8731 23.4136 34.0313 23.5681 34.1197C25.43 35.2275 27.4906 35.8901 29.6359 35.3306C30.817 35.0214 31.4757 34.4988 32.3441 33.6338C33.08 32.9014 34.2649 31.9223 34.482 30.8623C34.5298 30.6341 33.9889 30.6231 33.8932 30.6378C31.6817 30.969 29.4924 30.7187 27.2956 31.3481C26.0923 31.6941 24.3887 32.7394 23.8588 33.9246C23.7153 34.2448 24.6315 34.3331 24.7566 34.0497Z" fill="#333333"/>
<path d="M12.4078 45.0733C10.4318 44.3372 8.13938 44.6574 6.32899 45.78C5.33916 46.3946 4.65475 47.1087 4.03656 48.0804C3.79371 48.4595 2.88483 49.652 3.24912 50.1305C3.47358 50.4249 3.93353 50.2777 4.23158 50.2409C5.58202 50.0753 7.00973 49.8618 8.30864 49.4312C9.34631 49.0852 10.1043 48.5773 10.9175 47.8632C11.9552 46.9578 12.3342 46.2143 12.9413 45.0144C12.7905 45.0696 12.6433 45.1285 12.4924 45.1837C12.5218 45.1837 12.5476 45.1874 12.577 45.1874C13.1364 45.2168 13.1327 44.7531 12.577 44.7236C12.5476 44.7236 12.5218 44.7199 12.4924 44.7199C12.3599 44.7126 12.1134 44.7531 12.0435 44.8892C11.6387 45.6843 11.4106 46.3725 10.763 47.0351C10.211 47.6019 9.51925 48.2386 8.82747 48.6214C7.94804 49.1073 6.86622 49.3465 5.88375 49.4864C5.22141 49.5821 4.35669 49.8508 3.69803 49.8397C3.8489 49.8986 3.99609 49.9538 4.14695 50.0127C3.67964 49.295 5.85799 46.9835 6.28483 46.6339C7.83397 45.3751 10.027 44.7641 11.9368 45.4781C12.2606 45.5959 12.9744 45.2831 12.4078 45.0733Z" fill="#333333"/>
</g>
<defs>
<clipPath id="clip0_15_1797">
<rect width="38.2822" height="60" fill="white"/>
</clipPath>
</defs>
</svg>
