<svg width="35" height="35" viewBox="0 0 35 35" fill="none" xmlns="http://www.w3.org/2000/svg">
<g clip-path="url(#clip0_2_541)">
<path d="M17.5 35C27.165 35 35 27.165 35 17.5C35 7.83502 27.165 0 17.5 0C7.83502 0 0 7.83502 0 17.5C0 27.165 7.83502 35 17.5 35Z" fill="#C13584"/>
<path d="M17.5555 8.94759C20.3591 8.94759 20.6913 8.95826 21.7984 9.00875C22.8222 9.05548 23.3781 9.22654 23.7482 9.3703C24.2383 9.56079 24.588 9.78829 24.9554 10.1557C25.3229 10.5232 25.5504 10.8729 25.7409 11.363C25.8847 11.7331 26.0557 12.289 26.1025 13.3127C26.1529 14.4199 26.1636 14.752 26.1636 17.5556C26.1636 20.3593 26.1529 20.6913 26.1025 21.7985C26.0557 22.8223 25.8847 23.3782 25.7409 23.7482C25.5504 24.2383 25.3229 24.5881 24.9555 24.9555C24.588 25.323 24.2383 25.5504 23.7482 25.7409C23.3781 25.8848 22.8222 26.0558 21.7984 26.1025C20.6915 26.153 20.3594 26.1637 17.5555 26.1637C14.7517 26.1637 14.4197 26.153 13.3127 26.1025C12.2889 26.0558 11.7329 25.8848 11.3629 25.7409C10.8728 25.5504 10.5231 25.323 10.1557 24.9555C9.78825 24.5881 9.56067 24.2383 9.37018 23.7482C9.22642 23.3782 9.05535 22.8223 9.00863 21.7985C8.95814 20.6913 8.94747 20.3593 8.94747 17.5556C8.94747 14.752 8.95814 14.4199 9.00863 13.3127C9.05535 12.289 9.22642 11.7331 9.37018 11.363C9.56067 10.8729 9.78817 10.5232 10.1557 10.1558C10.5231 9.78829 10.8728 9.56079 11.3629 9.3703C11.7329 9.22654 12.2889 9.05548 13.3127 9.00875C14.4198 8.95826 14.752 8.94759 17.5555 8.94759ZM17.5555 7.05566C14.7039 7.05566 14.3463 7.06774 13.2264 7.11884C12.1088 7.16985 11.3455 7.3473 10.6776 7.60691C9.98714 7.87519 9.40159 8.2342 8.81788 8.818C8.23408 9.40171 7.87507 9.98726 7.60679 10.6777C7.34718 11.3456 7.16973 12.1089 7.11872 13.2265C7.06762 14.3464 7.05554 14.704 7.05554 17.5556C7.05554 20.4073 7.06762 20.7648 7.11872 21.8847C7.16973 23.0024 7.34718 23.7656 7.60679 24.4335C7.87507 25.124 8.23408 25.7095 8.81788 26.2933C9.40159 26.877 9.98714 27.236 10.6776 27.5043C11.3455 27.7639 12.1088 27.9414 13.2264 27.9924C14.3463 28.0435 14.7039 28.0556 17.5555 28.0556C20.4072 28.0556 20.7648 28.0435 21.8847 27.9924C23.0022 27.9414 23.7656 27.7639 24.4335 27.5043C25.1239 27.236 25.7095 26.877 26.2932 26.2933C26.8769 25.7095 27.236 25.124 27.5043 24.4335C27.7639 23.7656 27.9414 23.0024 27.9924 21.8847C28.0435 20.7648 28.0555 20.4073 28.0555 17.5556C28.0555 14.704 28.0435 14.3464 27.9924 13.2265C27.9414 12.1089 27.7639 11.3456 27.5043 10.6777C27.236 9.98726 26.8769 9.40171 26.2932 8.818C25.7095 8.2342 25.1239 7.87519 24.4335 7.60691C23.7656 7.3473 23.0022 7.16985 21.8847 7.11884C20.7648 7.06774 20.4072 7.05566 17.5555 7.05566Z" fill="white"/>
<path d="M17.5607 12.1685C14.5828 12.1685 12.1689 14.5824 12.1689 17.5603C12.1689 20.5382 14.5828 22.9521 17.5607 22.9521C20.5386 22.9521 22.9526 20.5382 22.9526 17.5603C22.9526 14.5824 20.5386 12.1685 17.5607 12.1685ZM17.5607 21.0603C15.6278 21.0603 14.0607 19.4933 14.0607 17.5603C14.0607 15.6273 15.6278 14.0603 17.5607 14.0603C19.4938 14.0603 21.0607 15.6273 21.0607 17.5603C21.0607 19.4933 19.4938 21.0603 17.5607 21.0603Z" fill="white"/>
<path d="M24.4249 11.9525C24.4249 12.6483 23.8608 13.2125 23.1649 13.2125C22.469 13.2125 21.9049 12.6483 21.9049 11.9525C21.9049 11.2566 22.469 10.6924 23.1649 10.6924C23.8608 10.6924 24.4249 11.2566 24.4249 11.9525Z" fill="white"/>
</g>
<defs>
<clipPath id="clip0_2_541">
<rect width="35" height="35" fill="white"/>
</clipPath>
</defs>
</svg>
