<svg width="35" height="35" viewBox="0 0 35 35" fill="none" xmlns="http://www.w3.org/2000/svg">
<g clip-path="url(#clip0_2_546)">
<path d="M17.4482 34.9482C27.1131 34.9482 34.9482 27.1132 34.9482 17.4482C34.9482 7.78326 27.1131 -0.0517578 17.4482 -0.0517578C7.78317 -0.0517578 -0.0518494 7.78326 -0.0518494 17.4482C-0.0518494 27.1132 7.78317 34.9482 17.4482 34.9482Z" fill="#BD081C"/>
<path fill-rule="evenodd" clip-rule="evenodd" d="M18.3291 7C12.5554 7 9.64444 11.1393 9.64444 14.5911C9.64444 16.681 10.4358 18.5407 12.1329 19.2329C12.4113 19.3466 12.6605 19.2369 12.7412 18.9288C12.7974 18.7153 12.9302 18.1771 12.9891 17.953C13.0704 17.6482 13.0387 17.5418 12.8139 17.276C12.3247 16.6989 12.0119 15.9517 12.0119 14.8933C12.0119 11.8216 14.31 9.07263 17.9952 9.07263C21.2586 9.07263 23.0516 11.0672 23.0516 13.7297C23.0516 17.2336 21.5005 20.1909 19.1992 20.1909C17.9278 20.1909 16.9764 19.1391 17.2812 17.8499C17.6462 16.3107 18.3542 14.6487 18.3542 13.5379C18.3542 12.5436 17.82 11.7139 16.7152 11.7139C15.4155 11.7139 14.3716 13.058 14.3716 14.8589C14.3716 16.006 14.759 16.7822 14.759 16.7822C14.759 16.7822 13.4287 22.417 13.196 23.4041C12.7319 25.3696 13.1266 27.7788 13.1597 28.0221C13.1795 28.1662 13.3646 28.2006 13.4486 28.0909C13.5683 27.9348 15.116 26.0234 15.6422 24.1141C15.791 23.574 16.4971 20.7741 16.4971 20.7741C16.9189 21.5794 18.1532 22.2888 19.4656 22.2888C23.3722 22.2888 26.022 18.7272 26.022 13.9597C26.022 10.3566 22.9696 7 18.3291 7Z" fill="white"/>
</g>
<defs>
<clipPath id="clip0_2_546">
<rect width="35" height="35" fill="white"/>
</clipPath>
</defs>
</svg>
