<svg width="35" height="35" viewBox="0 0 35 35" fill="none" xmlns="http://www.w3.org/2000/svg">
<g clip-path="url(#clip0_2_549)">
<path d="M17.5 0C7.83494 0 0 7.83494 0 17.5C0 27.1651 7.83494 35 17.5 35C27.1651 35 35 27.1651 35 17.5C35 7.83494 27.1651 0 17.5 0Z" fill="#40B3E0"/>
<path d="M26.0152 10.0665L22.8895 25.8257C22.8895 25.8257 22.4524 26.9186 21.2503 26.394L14.0373 20.864L11.4145 19.5964L6.99926 18.11C6.99926 18.11 6.32168 17.8696 6.25606 17.345C6.19057 16.8204 7.02114 16.5363 7.02114 16.5363L24.5725 9.65118C24.5725 9.65118 26.0152 9.01735 26.0152 10.0665Z" fill="white"/>
<path d="M13.4829 25.6488C13.4829 25.6488 13.2724 25.6291 13.01 24.7984C12.7478 23.9679 11.4145 19.5964 11.4145 19.5964L22.0153 12.8644C22.0153 12.8644 22.6273 12.4928 22.6055 12.8644C22.6055 12.8644 22.7147 12.9299 22.3869 13.2358C22.059 13.542 14.0592 20.733 14.0592 20.733" fill="#D2E5F1"/>
<path d="M16.8029 22.9843L13.9499 25.5855C13.9499 25.5855 13.7269 25.7548 13.4828 25.6487L14.0292 20.8169" fill="#B5CFE4"/>
</g>
<defs>
<clipPath id="clip0_2_549">
<rect width="35" height="35" fill="white"/>
</clipPath>
</defs>
</svg>
